<svg xmlns="http://www.w3.org/2000/svg" viewBox="0 0 128.83 128.83"><defs><style>.cls-1{fill:#5dddd3;}.cls-2{fill:#fff;}.cls-3{fill:#ffca4f;}.cls-4{fill:#c8cacc;}.cls-5{fill:#20d0c2;}.cls-6{fill:#15bdb1;}.cls-7{fill:#ecf0f1;}.cls-8{fill:#666;}</style></defs><title>category_etc</title><g id="Layer_2" data-name="Layer 2"><g id="Layer_1-2" data-name="Layer 1"><path class="cls-1" d="M64.42,128.83A64.42,64.42,0,1,0,0,64.42,64.54,64.54,0,0,0,64.42,128.83Z"/><path class="cls-2" d="M29.59,18H99.25V96.4l-14.4,14.4H29.59V18Z"/><path class="cls-3" d="M84.85,96.4h14.4l-14.4,14.4Z"/><path class="cls-4" d="M38.21,28.42H89v.75H38.21Zm0,43.42H61.44v.75H38.21v-.75Zm0-4H89v.75H38.21Zm0-4.93H89v.75H38.21Zm0-4.92H89v.75H38.21Zm0-4.93H89v.75H38.21Zm0-4.92H89v.75H38.21Zm0-4.92H89V44H38.21Zm0-4.92H89V39H38.21Zm0-4.92H89v.75H38.21Z"/><path class="cls-3" d="M61,73.09,50.92,78.55l4.68,4.68L61,73.09Z"/><path class="cls-5" d="M52.29,79.92a1.9,1.9,0,0,1,1.94,1.94L17.65,118.44l-1.94-1.94Z"/><path class="cls-6" d="M52.29,79.92c.1-.93-.3-1.44-1.37-1.37L14.34,115.13l1.37,1.37Z"/><path class="cls-7" d="M19,119.81l-4.68-4.68-1.15,1.15L17.86,121Z"/><path class="cls-3" d="M14.4,122.12,12,119.75a1.64,1.64,0,0,1,0-2.31l1.16-1.15L17.87,121l-1.15,1.15a1.64,1.64,0,0,1-2.31,0h0Z"/><path class="cls-8" d="M61.71,72.63l-.19-.19-4.26,2.71L59,76.88Z"/><path class="cls-6" d="M54.23,81.86c.93-.1,1.44.3,1.37,1.37L19,119.81l-1.37-1.37Z"/></g></g></svg>