<svg xmlns="http://www.w3.org/2000/svg" viewBox="0 0 128.83 128.83"><defs><style>.cls-1{fill:#ffca4f;}.cls-2{fill:#20d0c2;}.cls-3{fill:#1a91a1;}.cls-4{fill:#fff;}.cls-5{fill:#ecf0f1;}.cls-6{fill:#ff5b61;}.cls-7{fill:#ffba1b;}.cls-8{fill:#f5a209;}.cls-9{fill:#666;}.cls-10{fill:#807d7d;}</style></defs><title>category_employment</title><g id="Layer_2" data-name="Layer 2"><g id="Layer_1-2" data-name="Layer 1"><path class="cls-1" d="M64.42,128.83A64.42,64.42,0,1,0,0,64.42,64.54,64.54,0,0,0,64.42,128.83Z"/><path class="cls-2" d="M44.09,36.65h56.24L113.09,93l-4.67,0-.11,19.89,4.82,0,0,3.32h-76c-7.19-.56-6.55-13.35-6.94-16.77l6.4-57.26c0-2.54,2.67-5.56,7.56-5.56Z"/><path class="cls-3" d="M44.09,36.65h5.39l-4.9,79.59H37.07c-8.82-1-9.15-15-6.29-22.56l5.76-51.48c0-2.54,2.67-5.56,7.56-5.56Z"/><path class="cls-4" d="M38.05,93h73.58a21.84,21.84,0,0,0,0,20.19H38.05C30.16,113.17,30.16,93,38.05,93Z"/><path class="cls-5" d="M32.7,98.53h77q-.07.3-.12.61h-77C32.6,98.93,32.65,98.73,32.7,98.53Zm76.61,2.12h0c0,.2,0,.4-.06.61h-77c0-.2,0-.41.07-.61Zm-.14,2.12h0q0,.3,0,.61h-77q0-.3,0-.61Zm.08,2.12h0q0,.3.06.61h-77q0-.3-.07-.61Zm.3,2.12h0q.06.3.13.61h-77c-.05-.2-.1-.4-.15-.61h77Zm.52,2.12h0q.09.3.19.61H33.48c-.09-.2-.18-.4-.27-.61h76.85Zm.74,2.12h0l.25.61H35a6.1,6.1,0,0,1-.55-.61h76.38Z"/><path class="cls-6" d="M60.43,103.32h11.5v25.51l-5.8-8.32-5.7,8.32V103.32Z"/><path class="cls-4" d="M24.9,72.35l78-27.89c8.73-.72,11.35,17,5.62,18.72L32.31,91.76c-4.33,1.63-8.56-5.33-8.93-12.15-.2-3.62.78-3.51,4.91-5.13L24.9,72.35h0Z"/><path class="cls-5" d="M110.93,60.52a4,4,0,0,1-2.45,2.66L32.31,91.76a4,4,0,0,1-3.84-.67c2.16.22,3.34-.07,5.4-2Z"/><path class="cls-7" d="M76.06,54.06c5.79.83,9.93,14.58,7,18.65l-10.53,4c1.91-6.45-2.25-17.19-8-18.47Z"/><path class="cls-8" d="M94.71,81.87,83.09,72.71l-10.53,4,8.79,10.22,4.06-6.07Z"/><path class="cls-5" d="M27.78,74.7l.51-.21c3.18.64,8.77,12.05,2.65,14.59-4.35,1.8-6.38-7.64-6.22-10.77C26.58,77,28.6,82.61,28,82.74L26.66,83s0,2.47,1.29,2.64l5-1.62s-.41-7.27-5.17-9.31Z"/><path class="cls-5" d="M45.75,97.21H110A25.41,25.41,0,0,1,111.63,93H38c-7.3,0-7.85,17.29-1.64,19.87-2.1-6-.42-15.64,5-15.64h4.29Z"/><path class="cls-9" d="M70.26,34.26l.63,11.06c-3.6,6.09-15.07,10.62-26.37,10.5-10.77-.11-21.39-4.58-24.32-10.2l-.06-10.83,24.06,6.64,26.05-7.16h0Z"/><path class="cls-10" d="M5.3,30.42,44.21,17.27,83.11,30.42,44.21,43.56Z"/><path class="cls-6" d="M19.13,57.32,17.35,68.73c0,.19.6.44.9.07a.62.62,0,0,0,1.07,0,.56.56,0,0,0,1,0c.3.37,1,.11.92-.2L19.46,57.31a.17.17,0,0,0-.33,0Z"/><path class="cls-4" d="M44.47,27.09a.44.44,0,0,1,.25.85l-25,7.52V57.28a.44.44,0,1,1-.89,0V35.13h0a.44.44,0,0,1,.32-.43l25.34-7.62h0Z"/><path class="cls-4" d="M19.29,58.77A1.77,1.77,0,1,0,17.53,57,1.77,1.77,0,0,0,19.29,58.77Z"/><path class="cls-5" d="M20.72,56.56a1.7,1.7,0,0,1-1.7,1.7h0a1.71,1.71,0,0,1-1.39-.77,1.77,1.77,0,0,0,1.32,1.24,1.8,1.8,0,0,0,.38,0,1.77,1.77,0,0,0,1.22-3,1.7,1.7,0,0,1,.22.83Z"/></g></g></svg>