<svg xmlns="http://www.w3.org/2000/svg" viewBox="0 0 128.83 128.83"><defs><style>.cls-1{fill:#21d0c3;}.cls-2{fill:#15bdb2;}.cls-3{fill:#666;}.cls-4{fill:#fff;}.cls-5{fill:#dce3db;}.cls-6{fill:#fad24d;}.cls-7{fill:#ff5b62;}.cls-8{fill:#c2c2c4;}.cls-9{fill:#b0b0b0;}.cls-10{fill:#ecf0f1;}.cls-11{fill:#b6b6b8;}.cls-12{fill:#edb937;}.cls-13{fill:#ed4c54;}</style></defs><title>category_coding</title><g id="Layer_2" data-name="Layer 2"><g id="Layer_1-2" data-name="Layer 1"><circle class="cls-1" cx="64.42" cy="64.42" r="64.42"/><ellipse class="cls-2" cx="64.42" cy="106.1" rx="45.87" ry="3.62"/><path class="cls-3" d="M12.3,13.4h98.63a5.91,5.91,0,0,1,5.89,5.89V80H6.41V19.29A5.91,5.91,0,0,1,12.3,13.4Z"/><path class="cls-4" d="M10.41,76H112.82V19.29a1.91,1.91,0,0,0-1.89-1.89H12.3a1.91,1.91,0,0,0-1.89,1.89V76Z"/><path class="cls-4" d="M116.82,80v6.44c0,3.24-2.92,5.89-6.49,5.89H12.91c-3.57,0-6.49-2.65-6.49-5.89V80Z"/><path class="cls-5" d="M32.77,76V17.4H12.3a1.91,1.91,0,0,0-1.89,1.89V76H32.77Z"/><path class="cls-4" d="M14.92,24.31h14V26h-14Zm0,41.17h14v1.71h-14Zm0-8.23H26.63V59H14.92Zm0-8.23h14v1.71h-14Zm0-8.23h8.72v1.71H14.92Zm0-8.23h9.57v1.71H14.92Z"/><rect class="cls-6" x="37.43" y="24.15" width="12.94" height="1.69"/><rect class="cls-7" x="52.82" y="24.15" width="19.2" height="1.69"/><rect class="cls-1" x="37.43" y="29.63" width="12.94" height="1.69"/><rect class="cls-7" x="52.82" y="29.63" width="23.15" height="1.69"/><rect class="cls-6" x="77.79" y="29.63" width="3.36" height="1.69"/><rect class="cls-7" x="37.43" y="35.11" width="8.55" height="1.69"/><rect class="cls-1" x="48.48" y="35.11" width="17.28" height="1.69"/><rect class="cls-6" x="68.22" y="35.11" width="12.94" height="1.69"/><rect class="cls-6" x="37.43" y="40.59" width="12.94" height="1.69"/><rect class="cls-7" x="53.59" y="40.59" width="27.18" height="1.69"/><rect class="cls-1" x="82.12" y="40.59" width="11.34" height="1.69"/><rect class="cls-7" x="37.43" y="46.07" width="15.9" height="1.69"/><rect class="cls-1" x="56.34" y="46.07" width="15.9" height="1.69"/><rect class="cls-6" x="75.26" y="46.07" width="15.9" height="1.69"/><rect class="cls-6" x="37.43" y="51.55" width="12.94" height="1.69"/><rect class="cls-1" x="52.82" y="51.55" width="7.76" height="1.69"/><rect class="cls-7" x="62.06" y="51.55" width="7.76" height="1.69"/><path class="cls-8" d="M74,101.36,83,104.27H40.19l7.33-2.91v-9H74Z"/><path class="cls-9" d="M74,101.36l-26.45-9H74Z"/><path class="cls-10" d="M47.51,101.36H74L83,104.27v1.25H40.19v-1.25l7.33-2.91Z"/><circle class="cls-11" cx="61.61" cy="86.21" r="1.97"/><path class="cls-6" d="M91.57,82.08h25.89l-1.81,21.39a64.76,64.76,0,0,1-11.23,11.44H94.35L91.57,82.08Z"/><path class="cls-12" d="M91.57,82.08h25.89l-.17,2H91.73Z"/><path class="cls-13" d="M96.88,76.74h15.26a1.35,1.35,0,0,1,1.35,1.35v1.35h-18V78.09A1.35,1.35,0,0,1,96.88,76.74Z"/><path class="cls-7" d="M91.92,78.12H117.1a1.5,1.5,0,0,1,1.49,1.49V83a0,0,0,0,1,0,0H90.46a0,0,0,0,1,0,0V79.62A1.5,1.5,0,0,1,91.92,78.12Z"/><path class="cls-12" d="M94.36,114.91h10l-1.22.94H94.56a.19.19,0,0,1-.19-.19v-.75Z"/><path class="cls-4" d="M92.57,93.82h23.84c.61,0,.78.55.68,1.2l-1.1,7.34c-.1.65-.13,1-.74,1H93.78c-.61,0-.67-.23-.77-.89L91.93,95C91.83,94.36,92,93.82,92.57,93.82Z"/><path class="cls-12" d="M102.08,95.39s.93.38.48,1.76-.58,2,0,2.69-.36.67-.84.3C99.61,98.55,100.73,95.06,102.08,95.39Zm4.69,2.8s.19,1-1.22,1.36a8.86,8.86,0,0,0-1.33.43,3.18,3.18,0,0,0,.71-2.27c.85-.25,1.64-.11,1.84.47Zm-3.1,2.14a1.4,1.4,0,0,0-.39.65c-.22.76-.69.15-.71-.43a.42.42,0,0,0,.36-.32l.2.1a1,1,0,0,0,.55,0h0Zm-.29,1.38s-.19-1,1.22-1.36,2-.63,2.27-1.43.76-.07.71.54c-.21,2.62-3.75,3.57-4.2,2.25Zm-.18-1.56s-.93-.38-.48-1.76.58-2,0-2.69.36-.67.84-.3c2.09,1.59,1,5.09-.39,4.75Z"/></g></g></svg>