<svg xmlns="http://www.w3.org/2000/svg" viewBox="0 0 128.83 128.83"><defs><style>.cls-1{fill:#0e7886;}.cls-2{fill:#15bdb1;}.cls-3{fill:#20d0c2;}.cls-4{fill:#ff5b61;}.cls-5{fill:#666;}.cls-6{fill:#fbb429;}.cls-7{fill:#ec4b53;}.cls-8{fill:#fff;}.cls-9{fill:#ecf0f1;}</style></defs><title>category_hobby</title><g id="Layer_2" data-name="Layer 2"><g id="Layer_1-2" data-name="Layer 1"><path class="cls-1" d="M64.42,0A64.42,64.42,0,1,1,0,64.42,64.42,64.42,0,0,1,64.42,0Z"/><path class="cls-2" d="M69.34,14.31a9.29,9.29,0,0,1,0-2c3.91.34,7.79.93,11.68,1.36,1.27.14,2.55.24,3.8.5.2,1.94.21,3.9.35,5.85.14,2.65.39,5.29.46,7.94a12.74,12.74,0,0,1-.08,4.31,3.7,3.7,0,0,1-1.48,2.18,5.6,5.6,0,0,1-4.69.49A3.68,3.68,0,0,1,77,32.71a3.17,3.17,0,0,1,.61-3.58,4.23,4.23,0,0,1,6.25.35c-.15-3.13-.24-6.27-.38-9.4-4.09-.38-8.18-.74-12.28-1.11a14.33,14.33,0,0,0,.06,2c.11,1.92.21,3.84.33,5.76a11.29,11.29,0,0,1-.14,3.77A4.21,4.21,0,0,1,70,32.6a4.69,4.69,0,0,1-2.62.72,5.16,5.16,0,0,1-3.11-.79,3.51,3.51,0,0,1-1.59-2.72,3.27,3.27,0,0,1,1.88-3.24,4.09,4.09,0,0,1,5,.86l.24-.07c-.17-4.35-.32-8.71-.51-13.06Z"/><path class="cls-3" d="M69.34,14.31a9.27,9.27,0,0,1,0-2c3.91.34,7.79.93,11.68,1.36,1.12.13,2.24.22,3.35.42.12,1.6.14,3.21.26,4.81.14,2.65.39,5.29.45,7.94A12.71,12.71,0,0,1,85,31.11a3.7,3.7,0,0,1-1.48,2.18,5.6,5.6,0,0,1-4.69.49,3.79,3.79,0,0,1-2-1.46,3.2,3.2,0,0,1,.78-3.18,4.23,4.23,0,0,1,6.25.35c-.15-3.13-.24-6.27-.38-9.4L83,20,83,19c-4.09-.38-8.18-.74-12.28-1.11a14.46,14.46,0,0,0,.06,2c.12,1.92.21,3.84.34,5.76A11.29,11.29,0,0,1,71,29.34a4.21,4.21,0,0,1-1.48,2.13,4.7,4.7,0,0,1-2.62.72,5.16,5.16,0,0,1-3.11-.79,3.82,3.82,0,0,1-.95-.92,3,3,0,0,1-.1-.67,3.27,3.27,0,0,1,1.88-3.24,4.09,4.09,0,0,1,5,.86l.24-.07c-.17-4.35-.32-8.71-.51-13.06Z"/><path class="cls-4" d="M67.67,55.8c-3-2.43-6-4.87-9.2-5.33A9.81,9.81,0,0,0,49.81,54c-2,2.45-2.56,5.85-4.17,7.92s-4.27,2.81-8.15,3.83-9,2.33-13.18,5.95-7.53,9.54-7.06,15.11c.82,9.76,15.27,24.21,25,25,5.58.47,11.5-2.85,15.11-7.06s4.92-9.3,5.95-13.18S65.1,85,67.17,83.43s5.47-2.17,7.92-4.17a9.81,9.81,0,0,0,3.5-8.67c-.45-3.13-2.76-6-5.12-8.95-.07-.08-5.73-5.76-5.8-5.85Z"/><path class="cls-5" d="M109.25,24.89l-5.08-5.08L67.24,55.37l6.43,6.46,35.58-37Z"/><path class="cls-6" d="M49.64,93.37l-14-14L33.15,82l14,14Z"/><path class="cls-7" d="M109.25,24.89l-2.68-2.68-2.4-2.4,2.32-5.75,8.5,8.51-5.74,2.32Z"/><path class="cls-4" d="M123.59,14l-8.5-8.5-8.59,8.59,8.5,8.51Z"/><path class="cls-7" d="M61.14,67.92a8,8,0,1,0,0,11.38A8,8,0,0,0,61.14,67.92Z"/><path class="cls-6" d="M45,93.82,35.24,84l-1.72,1.72,9.79,9.79L45,93.82Z"/><path class="cls-8" d="M45,93.82,35.24,84l.5-.5a.71.71,0,0,1,1,0l8.79,8.79a.71.71,0,0,1,0,1Z"/><path class="cls-7" d="M60.42,51A9.85,9.85,0,0,0,52,54.51c-2,2.46-2.56,5.85-4.17,7.92s-4.27,2.81-8.15,3.83-9,2.33-13.18,5.95-7.53,9.54-7.06,15.11c.74,8.76,12.44,21.29,21.89,24.37C31.59,110.06,18,96.23,17.24,86.78a16,16,0,0,1,1.82-8.39,21.33,21.33,0,0,1,9.63-9.63,43.47,43.47,0,0,1,8.79-3c3.88-1,6.54-1.76,8.15-3.83S47.8,56.42,49.8,54a9.81,9.81,0,0,1,8.67-3.5,9.17,9.17,0,0,1,1.95.51Z"/><path class="cls-8" d="M43.58,90.74l65-66.53-.59-.57L43,90.17Zm-4.69-4.67h0l-.57-.59,66.53-65,.57.59Zm1.73,1.37h0L40,86.86,105.9,21.53l.57.58ZM42.21,89h0l-.58-.58,65.32-65.85.58.57Z"/><path class="cls-9" d="M123.17,16.66l-11-11-.73.73,11,11,.73-.73Z"/><path class="cls-3" d="M123.8,16.53l-.58-.58a.27.27,0,0,0-.37,0L121.77,17a.27.27,0,0,0,0,.37l.58.58a.27.27,0,0,0,.38,0l1.07-1.07A.27.27,0,0,0,123.8,16.53Z"/><path class="cls-3" d="M112.89,5.63,112.31,5a.27.27,0,0,0-.37,0l-1.07,1.07a.27.27,0,0,0,0,.37l.58.58a.27.27,0,0,0,.38,0L112.89,6A.27.27,0,0,0,112.89,5.63Z"/><path class="cls-9" d="M120.5,19.33l-11-11-.74.73,11,11,.73-.74Z"/><path class="cls-3" d="M121.13,19.2l-.58-.58a.27.27,0,0,0-.37,0l-1.07,1.07a.27.27,0,0,0,0,.37l.58.58a.27.27,0,0,0,.37,0l1.07-1.07a.27.27,0,0,0,0-.38Z"/><path class="cls-3" d="M110.22,8.29l-.58-.58a.27.27,0,0,0-.37,0L108.2,8.78a.27.27,0,0,0,0,.37l.58.58a.27.27,0,0,0,.38,0l1.07-1.07a.27.27,0,0,0,0-.38Z"/><path class="cls-9" d="M117.84,22l-11-11-.73.73,11,11,.74-.73Z"/><path class="cls-3" d="M118.46,21.87l-.58-.58a.27.27,0,0,0-.37,0l-1.07,1.07a.27.27,0,0,0,0,.37l.58.58a.27.27,0,0,0,.38,0l1.07-1.07A.27.27,0,0,0,118.46,21.87Z"/><path class="cls-3" d="M107.56,11l-.58-.58a.27.27,0,0,0-.37,0l-1.07,1.07a.27.27,0,0,0,0,.37l.58.58a.27.27,0,0,0,.38,0l1.07-1.07A.27.27,0,0,0,107.56,11Z"/><path class="cls-6" d="M120.69,13.09a1.26,1.26,0,1,0,0,1.78A1.26,1.26,0,0,0,120.69,13.09Z"/><path class="cls-6" d="M116.12,8.53a1.26,1.26,0,1,0,0,1.78A1.26,1.26,0,0,0,116.12,8.53Z"/><path class="cls-6" d="M118,15.76a1.26,1.26,0,1,0,0,1.78A1.26,1.26,0,0,0,118,15.76Z"/><path class="cls-6" d="M113.46,11.19a1.26,1.26,0,1,0,0,1.78A1.26,1.26,0,0,0,113.46,11.19Z"/><path class="cls-6" d="M115.36,18.43a1.26,1.26,0,1,0,0,1.78A1.26,1.26,0,0,0,115.36,18.43Z"/><path class="cls-6" d="M110.79,13.86a1.26,1.26,0,1,0,0,1.78A1.26,1.26,0,0,0,110.79,13.86Z"/><path class="cls-6" d="M70.32,38.47a3,3,0,0,1,0-.65c1.25.11,2.48.3,3.73.43.4,0,.81.08,1.21.16.06.62.07,1.25.11,1.87,0,.84.12,1.69.14,2.53a4.06,4.06,0,0,1,0,1.37,1.18,1.18,0,0,1-.47.69,1.79,1.79,0,0,1-1.5.16,1.17,1.17,0,0,1-.76-.7A1,1,0,0,1,73,43.2a1.35,1.35,0,0,1,2,.11c0-1-.08-2-.12-3L70.93,40a4.65,4.65,0,0,0,0,.63c0,.61.07,1.22.11,1.84a3.62,3.62,0,0,1,0,1.2,1.34,1.34,0,0,1-.47.68,1.5,1.5,0,0,1-.84.23,1.64,1.64,0,0,1-1-.25,1.12,1.12,0,0,1-.51-.87,1,1,0,0,1,.6-1,1.31,1.31,0,0,1,1.6.28l.08,0c-.05-1.39-.1-2.78-.16-4.17Z"/></g></g></svg>