<svg xmlns="http://www.w3.org/2000/svg" viewBox="0 0 128.83 128.83"><defs><style>.cls-1{fill:#1a91a1;}.cls-2{fill:#fff;}.cls-3{fill:#20d0c2;}.cls-4{fill:#15bdb1;}.cls-5{fill:#fbb429;}.cls-6{fill:#ff5b61;}</style></defs><title>category_language</title><g id="Layer_2" data-name="Layer 2"><g id="Layer_1-2" data-name="Layer 1"><path class="cls-1" d="M64.42,128.83A64.42,64.42,0,1,0,0,64.42,64.54,64.54,0,0,0,64.42,128.83Z"/><path class="cls-2" d="M66,104.39h2.42l1.35,15.15H64.69Z"/><path class="cls-2" d="M41.93,24.48l-2.1-2.1-.07.05a46.35,46.35,0,1,0,64.81,64.81l.05-.07-2.1-2.1-.07.1q-.41.57-.85,1.13l-.51.65-1.5-1.5-.93.93L100.26,88l-.45.51A43.41,43.41,0,1,1,38.53,27.19l.51-.45,1.51,1.51.93-.93L40.05,25.9l.65-.5,1.13-.85.09-.07h0Z"/><path class="cls-3" d="M67.75,102.08A42.36,42.36,0,1,0,25.39,59.72,42.44,42.44,0,0,0,67.75,102.08Z"/><path class="cls-4" d="M101.74,56.1A40.72,40.72,0,0,1,37.41,89.27,42.36,42.36,0,1,0,75.66,18.09a40.73,40.73,0,0,1,26.08,38h0Z"/><path class="cls-2" d="M109.62,66.19c-.65.78-.44,1-.29,1.66-.16.81-.34,1.62-.54,2.41a8,8,0,0,0-.94.56,10.82,10.82,0,0,1-.36,1.82c-.35.89-.4.42-.91,1.14a10.68,10.68,0,0,1-.75,1.32,5.36,5.36,0,0,1-.9.92c-1.67,1.54-5.27,1.59-5.58,1.37-.85-.72-.27-.91-.48-1.93a8.56,8.56,0,0,0-1.07-2.33l0-.07a5.18,5.18,0,0,1-.46-1c-.69-2.19-.44-3.85-1.65-6.07-1.52-2.87.84-4.36.75-6,0-.43-.19-.69-.23-1-.29-1.79-.46-3.39-1.65-4.79s-1.14-1-.71-3.5c.54-2.88-.69-2.14-2.42-2.22-.85-2.62-2.5-1.34-4.15-.57-1,.48-1.42-.14-2.6,0-2.61.35-.56,1.48-4.06-1.29-1.46-1.16-.48-.57-1.35-2a21.76,21.76,0,0,0-1.58-1.74c-1.33-1.66.25-3.34,0-5.25-.4-3.54-1-.46,1-4.75,1-2.28,2.62-2.3,3-3.31s.11-1.56.77-2.39c.58-.68,1.4-.54,1.73-1.6.46-1.31-.42-1.48-1.39-1.51-.4-1.37-.4-1-.1-2.3.17-.68,0-1,.16-1.68a42.14,42.14,0,0,1,5.21,2.41c-.3.88-.32,1.62-2.26,1.91a1.92,1.92,0,0,0-.5.08c-.56.2-.23,0-.56.35.25.59-.1.49.9.63,1.83.25,2.06-.88,3.39-1.16.25-.05,1-.11,1.8-.15a42.42,42.42,0,0,1,18.78,42ZM30.9,38.82h0a42.34,42.34,0,0,1,2.51-3.91c0,.06,0,.13,0,.19.13,3.47,3.29,3.67,4.1,2,.54-1.08.41-1.66,2.16-1.39a4.29,4.29,0,0,1-.33,2.31c-.15.41-.58,1.17-.36,1.74,1.25.51,1.29-.45,2.94.54.11,1.65-.75,3.5.52,4.45,1,.72,1,.08,1.9-.08s.79.43,1.67.57c.5-.62.29-.23.62-1,.58-1.31.73-.69,2.1-1.49l.38-.25c.15.32.33.63.48.94,1-1.19,1.12,0,2.27.29A4.52,4.52,0,0,0,53,44c.84,0,.92-.4,2.07,0a3.5,3.5,0,0,0,.46.15s.08,0,.08.06l.1.08a4.5,4.5,0,0,1,.36.66l2.35,2.25c1.52.6,1.52-.52,3.25,1.16.73.69.4.68.81,1.57.06.14.17.28.25.45.15.42.33.82.5,1.22.79,1,1.87.39,3,1.45.63.62.16.43,1.56.68,2.17.35,1.33.15,3,1.4.63.46.79.2,1.38.6A2.85,2.85,0,0,1,72,59.15c-2.14,3.11-1.41,2.6-1.5,5.07-.08,1.42-.48,4.34-1.81,4.7-4.83,1.36-2,2.3-3.29,4.68-.36.68-.64.85-.87,1.39-1,2.25-.29,3-3.13,2.5a6.21,6.21,0,0,0,.37.58c.84,1.31,1,2.3-.75,2.62-1.44.28-.83,0-1,1.6-.56.23-.81,0-1.17.37.5.93,0,.15.89.68-.16.51-.27,1-.41,1.49-.33,1.2-.42.09-.54,1.49.5.23.85.18,1.29.79-.06.46-.52,1.72-.65,2.45.71,1.06,1.29,2.2,2.81,2.31,0,.89.19.8-.58,1a5.41,5.41,0,0,1-2.62-.77,7,7,0,0,1-2.6-2.26,10.06,10.06,0,0,0-.64-.83c-.73-.94-.44-1.37-.65-2a2.44,2.44,0,0,1-.46-2c.06-.34.6-2-.06-1.68s.5.15-.41.59a13.26,13.26,0,0,1-.5-2.17c-.23-1.22-.52-1.26-.65-2-.29-1.71.44-1.9-.37-4.75-.53-1.89-.32-6.35-.88-8.64a3.63,3.63,0,0,0-.33-.91c-.52-.86-1.79-1.26-2.81-2a.18.18,0,0,1-.11-.06c-1.41-1-2.73-4.85-3.85-6.3-.52-.69-.85-.39-1.08-1.48s.13-.83.46-1.67c-1.71-3.14,2.21-3.1,1.41-6.87a4.23,4.23,0,0,0-1.1-2c-.81.35-.42.55-.85,1.23l-1.94-1.11c-2-1.91-.92-.52-1.48-1.77-1.19-2.62-2.33-1.15-3.75-2.45-.64-.54-.75-1.39-1.81-1.23-1.6.21-.71.46-2.37-.31-.46-.22-.93-.45-1.39-.69Zm6.86-9h0A42.37,42.37,0,0,1,53.08,20a4.8,4.8,0,0,0-.12.81,5.72,5.72,0,0,0-2.42,1.17l-1.77,1.69-.13.12c.21,1.59,0,1.62-1,2.24a10.56,10.56,0,0,0-1.83,1.17c-2.4,2.16-1.25,1.15-1.12,4.87-.5-.15-1-.32-1.44-.49-.37-2.47.13-1.65-1.85-2.22-2.14-.62-1.85.43-2.73.62a1.6,1.6,0,0,1-1-.13ZM56.09,19h0q1-.28,2-.52c-.92.3-1.23.69-2,.87C56.1,19.19,56.09,19.07,56.09,19Z"/><path class="cls-5" d="M57.73,119.54h19A1.29,1.29,0,0,1,78,120.82v1.28H56.45v-1.28A1.29,1.29,0,0,1,57.73,119.54Z"/><path class="cls-6" d="M46.1,122.11H88.39a3.37,3.37,0,0,1,3.36,3.36v3.36h-49v-3.36a3.37,3.37,0,0,1,3.36-3.36Z"/></g></g></svg>