<svg xmlns="http://www.w3.org/2000/svg" viewBox="0 0 128.83 128.83"><defs><style>.cls-1{fill:#ff757c;}.cls-2{fill:#fff;}.cls-3{fill:#c8cacc;}.cls-4{fill:#d0d1d4;}.cls-5{fill:#fed198;}.cls-6{fill:#15bdb1;}.cls-7{fill:#aab4bd;}.cls-8{fill:#fbb429;}.cls-9{fill:#f5a209;}.cls-10{fill:#20d0c2;}.cls-11{fill:#ecf0f1;}.cls-12{fill:#f0b97d;}.cls-13{fill:#666;}.cls-14{fill:#ccc;}.cls-15{fill:#0e5e9a;}.cls-16{fill:#807d7d;}</style></defs><title>category_lecture</title><g id="Layer_2" data-name="Layer 2"><g id="Layer_1-2" data-name="Layer 1"><path class="cls-1" d="M64.42,128.83A64.42,64.42,0,1,0,0,64.42,64.54,64.54,0,0,0,64.42,128.83Z"/><path class="cls-2" d="M60.83,62.66h65.39V12.85H60.83Z"/><path class="cls-3" d="M84.1,23.37h37v1h-37Zm0,6.5h21.32v1H84.1Zm0-2.17h37v1h-37Zm0-2.17h37v1h-37Z"/><path class="cls-4" d="M73.21,38.89h39v1h-39Zm0,6.5H92v1H73.21v-1Zm0-2.17h33v1h-33Zm0-2.17h46.06v1H73.21Z"/><path class="cls-5" d="M71.65,31s1.23-2.55,2.46-2.38a4.68,4.68,0,0,1,1.29.25l6.12-.67a.56.56,0,1,1,0,1.12l-4,.55s.68.28.65.71a3.73,3.73,0,0,1-.35,1.08,3.74,3.74,0,0,1,.3.94c0,.2-.82.88-.82.88l.33.71-.56.58s-2.61.47-3,.61a6.27,6.27,0,0,1-2-.42l-2.55.4-.13-3.57,2.21-.8Z"/><path class="cls-5" d="M12.35,63.33a1.47,1.47,0,0,1,1.28.8l.78,1.66a2.59,2.59,0,0,1-.75,1.49c.37.33.38.71,0,1.45a1,1,0,0,1-1.54.19s-.56.56-1,.44-.63-.21-.63-.21-.69.28-.88.21-.68-1-.68-1l-.77.17-.75-.7s.35-2.83.29-3.24a5.46,5.46,0,0,1,.61-1.68l.17-2.57,3.51.66.3,2.33Z"/><path class="cls-6" d="M27,19h8.1l5,45.93a40,40,0,0,1-16.68,0l3-42.8Z"/><path class="cls-2" d="M27,19h8.1l2.39,22.07H25.1l1.35-18.95L27,19Z"/><path class="cls-7" d="M27,19h8.1l0,.41-4,4.39L27,19.37Z"/><path class="cls-8" d="M30.1,24c.63,0,1.3,0,1.92,0l.22,1c.85,3.88,1.21,9,2,12.83l-3,2.56-3-2.56c.69-3.29,1.23-10.56,1.92-13.85Z"/><path class="cls-9" d="M29.2,23.75l1.33-1.59h1.09l1.33,1.59-.66,1.51c-.76,0-1.66,0-2.43,0l-.66-1.51Z"/><path class="cls-10" d="M20.91,59.94l.9,52.69h7.32L31.77,59.8Z"/><path class="cls-6" d="M25.48,112.63h3.66l2.64-52.83-5.43.07-.87,52.76Z"/><path class="cls-6" d="M41.92,59.94,41,112.63H33.7L31.06,59.8Z"/><path class="cls-10" d="M37.36,112.63H33.7L31.07,59.81l5.43.07.87,52.76Z"/><path class="cls-11" d="M26.05,28.79l5,8.7,5-8.7,2,29.56S33.88,62,33.38,62a.59.59,0,0,1-.66-.3L31.07,58.1l-1.65,3.63a.59.59,0,0,1-.66.3C28.26,62,24,58.35,24,58.35l2-29.56Z"/><path class="cls-2" d="M26.53,19.93,27,19l3.56,3.15L28,25.29l-1.45-5.35Zm9.08,0h0L35.12,19l-3.56,3.15,2.6,3.13,1.45-5.35Z"/><path class="cls-10" d="M35.39,19.35l1.84,1.91,8,3.1s.75-.23,1,.28S56.65,32.3,56.65,32.3l12.92-1.23L70,37,55.3,39.57,44,35,42.45,48.4l3.8,18.51s-7,3.18-8.23,3.33a1.32,1.32,0,0,1-1.53-.78l-3.68-23,2.56-27.1Zm-8.63,0h0l-1.84,1.91-8,3.1s-.61-.23-.85.28S8.43,45.42,8.43,45.42L6.49,61.14l6.38.2,1.32-13.61,4.5-9.43,1,10.1L15.89,66.9s7,3.18,8.23,3.33a1.32,1.32,0,0,0,1.53-.78l3.68-23Z"/><path class="cls-2" d="M7.79,61.09l4.63.18v1H7.73Z"/><path class="cls-12" d="M27.91,16.72,27,19l3.56,3.15h1L35.07,19l-.45-2.23-6.71-.06Z"/><path class="cls-5" d="M24.75,6.59c0,.42-.15.83-.14,1.24-1.44-.27-.75,4,.07,4.61.06,0,.22-.06.36-.14.28,1.58,2.7,5.79,4.23,7.56.43.49,3,.48,3.46,0,1.57-1.73,4-6,4.27-7.58.13.09.29.19.36.14.82-.59,1.51-4.87.07-4.61,0-.4-.14-.82-.14-1.24-.08-3.33-3.09-5-6.27-5s-6.19,1.67-6.27,5Z"/><path class="cls-13" d="M26.68,2.32a2.44,2.44,0,0,0-2.29,2.19,22,22,0,0,0-.1,3.34,1.51,1.51,0,0,1,1.08,1.23c.12,1,0,1,0,1l.35-.08L26,8.3c1.44-.9,0-2.24,1.43-2.55,3.89,2.77,7.32,2.3,8.87,1,0,0-.36,1.36-.08,1.85a2.1,2.1,0,0,1,.11,1.25l.36,0s-.07-2,.74-2c3.05-5-6.61-11.3-10.75-5.5Z"/><path class="cls-2" d="M69.6,31.43l1.4-.3.46,5.06L70,36.4l-.36-5Z"/><path class="cls-5" d="M17.55,82.57c0,.62-.2,4.23-.19,4.83-1.91-.4-.6,5.94.48,6.81.08.07.3-.09.48-.21.28,1.77,1.8,4,3.59,6.19l-.75,7,4.69-.32,4.69.32-.74-7c1.8-2.13,3.3-4.44,3.59-6.21.18.13.39.28.48.21,1.08-.87,2.38-7.21.48-6.81,0-.6-.19-4.2-.19-4.83-.11-4.92-4.1-7.38-8.3-7.4S17.66,77.65,17.55,82.57Z"/><path class="cls-14" d="M19.93,105.51,16,106.91a64.77,64.77,0,0,0,13.68,11.77L35.9,107l-4.17-1.48-3.67,2.9h-4.4l-3.72-2.91Z"/><path class="cls-15" d="M24.53,108.15l.51,1.39-.39,5.54q1.25,1,2.55,1.9l-.53-7.45.5-1.39-1.32-.06-1.32.06Z"/><path class="cls-10" d="M20,105.47l-4,1.44a64.49,64.49,0,0,0,28.47,18.78c-.17-3.94-.3-11.48-.62-13.31a5.61,5.61,0,0,0-1.76-3.17l-10.37-3.67c-3.94-2.11-7.84-2.28-11.69-.05Z"/><path class="cls-2" d="M21.91,101.44c-1.42.75-1.31,1.52-1.31,1.52l-.16,2.32a11.09,11.09,0,0,1,10.81,0L31.09,103s.07-.68-1.31-1.52A9.06,9.06,0,0,0,21.91,101.44Z"/><path class="cls-13" d="M20.06,76.61c-2.06,1.68-4.61,3.8-3.69,7.08l1.88,6.66c.85,3,1,8.52,5,8.47l2.64,0,2.64,0c4,.06,4.12-5.44,5-8.47l1.88-6.66c.93-3.29-1.63-5.4-3.69-7.08-2.35-1.92-9.23-1.92-11.58,0Z"/><path class="cls-5" d="M56.12,82.57c0,.62-.2,4.23-.19,4.83-1.91-.4-.6,5.94.48,6.81.08.07.3-.09.48-.21.28,1.77,1.8,4,3.59,6.19l-.75,7,4.69-.32,4.69.32-.74-7c1.8-2.13,3.3-4.44,3.59-6.21.18.13.39.28.48.21,1.08-.87,2.38-7.21.48-6.81,0-.6-.19-4.2-.19-4.83-.11-4.92-4.09-7.38-8.3-7.4S56.23,77.65,56.12,82.57Z"/><path class="cls-14" d="M58.5,105.51l-5.9,2.11,9.15,14.16h4.85L74.47,107l-4.17-1.48-3.67,2.9h-4.4l-3.72-2.91Z"/><path class="cls-15" d="M63.1,108.15l.5,1.39-.86,12.23h3.36l-.86-12.23.5-1.39-1.32-.06-1.32.06Z"/><path class="cls-10" d="M58.61,105.47l-10.44,3.72a5.6,5.6,0,0,0-1.76,3.17c-.27,1.58-.41,9-.55,13.74a64.71,64.71,0,0,0,37.12,0c-.14-4.77-.28-12.16-.55-13.74a5.61,5.61,0,0,0-1.76-3.17L70.3,105.52c-3.94-2.11-7.84-2.28-11.69-.05Z"/><path class="cls-2" d="M60.48,101.44c-1.42.75-1.31,1.52-1.31,1.52L59,105.28a11.09,11.09,0,0,1,10.81,0L69.66,103s.07-.68-1.31-1.52A9.06,9.06,0,0,0,60.48,101.44Z"/><path class="cls-13" d="M58.63,76.61c-2.06,1.68-4.61,3.8-3.69,7.08l1.88,6.66c.85,3,1,8.52,5,8.47l2.64,0,2.63,0c4,.06,4.12-5.44,5-8.47L73.9,83.7c.93-3.29-1.63-5.4-3.69-7.08-2.35-1.92-9.23-1.92-11.58,0Z"/><path class="cls-5" d="M94.69,82.57c0,.62-.2,4.23-.19,4.83-1.91-.4-.6,5.94.48,6.81.08.07.3-.09.47-.21.28,1.77,1.8,4,3.59,6.19l-.75,7,4.69-.32,4.69.32-.74-7c1.8-2.13,3.3-4.44,3.59-6.21.18.13.39.28.48.21,1.08-.87,2.38-7.21.48-6.81,0-.6-.19-4.2-.19-4.83-.11-4.92-4.09-7.38-8.3-7.4S94.8,77.65,94.69,82.57Z"/><path class="cls-14" d="M97.07,105.51l-5.9,2.11L98.56,119a64.74,64.74,0,0,0,14.25-12.12l-3.95-1.4-3.67,2.9h-4.4l-3.72-2.91Z"/><path class="cls-15" d="M101.67,108.15l.5,1.39-.53,7.45q1.3-.92,2.55-1.9l-.39-5.55.5-1.39-1.32-.06-1.32.06Z"/><path class="cls-10" d="M97.18,105.47l-10.44,3.72A5.61,5.61,0,0,0,85,112.37c-.26,1.53-.4,8.51-.54,13.29a64.48,64.48,0,0,0,28.38-18.74l-3.95-1.4c-3.94-2.11-7.84-2.28-11.69-.05Z"/><path class="cls-2" d="M99.05,101.44c-1.42.75-1.31,1.52-1.31,1.52l-.16,2.32a11.09,11.09,0,0,1,10.81,0l-.16-2.32s.07-.68-1.31-1.52a9.06,9.06,0,0,0-7.87,0Z"/><path class="cls-13" d="M97.2,76.61c-2.06,1.68-4.61,3.8-3.69,7.08l1.88,6.66c.85,3,1,8.52,5,8.47l2.64,0,2.63,0c4,.06,4.12-5.44,5-8.47l1.88-6.66c.93-3.29-1.63-5.4-3.69-7.08C106.43,74.69,99.55,74.69,97.2,76.61Z"/><path class="cls-16" d="M58.23,12.32h70.61v2.11H58.23Zm0,48.76h70.61v2.11H58.23Z"/><path class="cls-3" d="M86.24,12.32l7.19-4.14.15-.09.16.09,7.09,4.14H99.51L93.58,8.78,87.5,12.32Z"/><path class="cls-2" d="M93.6,9.6a1,1,0,1,0-1-1A1,1,0,0,0,93.6,9.6Z"/></g></g></svg>