<svg xmlns="http://www.w3.org/2000/svg" viewBox="0 0 12.35 12.79"><defs><style>.cls-1{fill:#26b99a;}.cls-2{fill:#38454f;}.cls-3{fill:#afb6bb;}.cls-4{fill:#839594;}.cls-5{fill:#edeada;}.cls-6{fill:#cec9ae;}</style></defs><title>Date</title><g id="Layer_2" data-name="Layer 2"><g id="Layer_1-2" data-name="Layer 1"><polygon class="cls-1" points="9.04 1.1 3.31 1.1 0 1.1 0 3.97 12.35 3.97 12.35 1.1 9.04 1.1"/><circle class="cls-2" cx="4.19" cy="1.98" r="0.44"/><circle class="cls-2" cx="5.51" cy="1.98" r="0.44"/><circle class="cls-2" cx="6.84" cy="1.98" r="0.44"/><circle class="cls-2" cx="8.16" cy="1.98" r="0.44"/><path class="cls-3" d="M8.16,0A1.09,1.09,0,0,0,7.5.23a1.11,1.11,0,0,1,.29.33.66.66,0,1,1,.37,1.21.22.22,0,0,0,0,.44A1.1,1.1,0,1,0,8.16,0Z"/><path class="cls-4" d="M7.21.56a1.09,1.09,0,0,0-.15.55H7.5A.66.66,0,0,0,7.21.56Z"/><path class="cls-4" d="M5.88.56a1.09,1.09,0,0,0-.15.55h.44A.66.66,0,0,0,5.88.56Z"/><path class="cls-3" d="M7.79.56A1.11,1.11,0,0,0,7.5.23a1.08,1.08,0,0,0-1.32,0,1.11,1.11,0,0,1,.29.33.66.66,0,1,1,.37,1.21.22.22,0,0,0,0,.44,1.1,1.1,0,0,0,1.1-1.1A1.09,1.09,0,0,0,7.79.56Z"/><path class="cls-4" d="M4.56.56a1.09,1.09,0,0,0-.15.55h.44A.66.66,0,0,0,4.56.56Z"/><path class="cls-3" d="M6.46.56A1.11,1.11,0,0,0,6.17.23a1.08,1.08,0,0,0-1.32,0,1.11,1.11,0,0,1,.29.33.66.66,0,1,1,.37,1.21.22.22,0,1,0,0,.44,1.1,1.1,0,0,0,1.1-1.1A1.09,1.09,0,0,0,6.46.56Z"/><path class="cls-3" d="M5.14.56A1.11,1.11,0,0,0,4.85.23,1.09,1.09,0,0,0,4.19,0a1.1,1.1,0,0,0-1.1,1.1h.44a.66.66,0,1,1,.66.66.22.22,0,0,0,0,.44,1.1,1.1,0,0,0,1.1-1.1A1.09,1.09,0,0,0,5.14.56Z"/><rect class="cls-5" y="3.97" width="12.35" height="8.82"/><circle class="cls-6" cx="2.65" cy="6.4" r="1.1"/><circle class="cls-6" cx="6.17" cy="6.4" r="1.1"/><circle class="cls-6" cx="9.7" cy="6.4" r="1.1"/><circle class="cls-6" cx="2.65" cy="9.92" r="1.1"/><circle class="cls-6" cx="6.17" cy="9.92" r="1.1"/><circle class="cls-1" cx="9.7" cy="9.92" r="1.1"/></g></g></svg>