<svg xmlns="http://www.w3.org/2000/svg" viewBox="0 0 139.96 53.62"><defs><style>.cls-1{fill:#6c63ff;}.cls-2{fill:#fff;}.cls-3{fill:#363636;}</style></defs><title>KAIStudy_logo_</title><g id="Layer_2" data-name="Layer 2"><g id="Layer_1-2" data-name="Layer 1"><rect class="cls-1" x="3.1" y="7.49" width="61.37" height="38.65" rx="5.69" ry="5.69" transform="translate(10.74 -9.65) rotate(19.27)"/><path class="cls-2" d="M16.22,29.69v6.53a8.26,8.26,0,0,1-1,.18,11.2,11.2,0,0,1-1.39.09,6.16,6.16,0,0,1-1.2-.1,2.12,2.12,0,0,1-.87-.37,1.6,1.6,0,0,1-.53-.74A3.6,3.6,0,0,1,11,34V18.43l1-.16a9.43,9.43,0,0,1,1.36-.1,6.17,6.17,0,0,1,1.2.1,2.13,2.13,0,0,1,.87.37,1.6,1.6,0,0,1,.53.74,3.61,3.61,0,0,1,.18,1.24v4.7l6.15-7.06a4.39,4.39,0,0,1,2.88.75,2.29,2.29,0,0,1,.87,1.79,2.91,2.91,0,0,1-.38,1.45,7.56,7.56,0,0,1-1.24,1.54l-3.69,3.69,1.55,1.71,1.6,1.73,1.51,1.61,1.26,1.33A2.68,2.68,0,0,1,26.44,35a2.63,2.63,0,0,1-.64.86,2.7,2.7,0,0,1-.9.53,3.18,3.18,0,0,1-1.06.18,3.1,3.1,0,0,1-2-.61,10.6,10.6,0,0,1-1.48-1.43Z"/><path class="cls-2" d="M33.36,19a6.24,6.24,0,0,1,1.52-.56,8.1,8.1,0,0,1,2.05-.27,7.39,7.39,0,0,1,2.62.43A2.28,2.28,0,0,1,41,19.91q.53,1.54,1.15,3.58t1.24,4.21Q44,29.87,44.62,32t1,3.74a2.43,2.43,0,0,1-1.06.67,5.07,5.07,0,0,1-1.68.25,5.17,5.17,0,0,1-1.2-.12,2.13,2.13,0,0,1-.8-.35,1.74,1.74,0,0,1-.5-.62,5.31,5.31,0,0,1-.34-.89l-.53-2H34.19q-.24.89-.47,1.83t-.47,1.83a7.73,7.73,0,0,1-.87.25,5.12,5.12,0,0,1-1.11.1A3.87,3.87,0,0,1,29,36.11a1.66,1.66,0,0,1-.72-1.43,3,3,0,0,1,.12-.83q.12-.41.27-1,.21-.8.58-2t.81-2.56q.44-1.37.95-2.82L32,22.79q.44-1.29.81-2.29T33.36,19Zm3.54,3.81L36,25.54q-.52,1.52-.93,3.09h3.66q-.41-1.6-.84-3.12t-.78-2.73Z"/><path class="cls-2" d="M53.24,36.22a8.22,8.22,0,0,1-1,.18,10.84,10.84,0,0,1-1.37.09,6.16,6.16,0,0,1-1.2-.1,2.12,2.12,0,0,1-.87-.37,1.6,1.6,0,0,1-.53-.74A3.6,3.6,0,0,1,48.07,34V18.43l1-.16a9.43,9.43,0,0,1,1.36-.1,6.17,6.17,0,0,1,1.2.1,2.13,2.13,0,0,1,.87.37,1.6,1.6,0,0,1,.53.74,3.61,3.61,0,0,1,.18,1.24Z"/><path class="cls-2" d="M59.65,23.87a2.1,2.1,0,0,1-.77.74,2.36,2.36,0,0,1-1.12.24,4.23,4.23,0,0,1-1-.12,5,5,0,0,1-.92-.32l.29-3.6q.15-1.8.21-3.34A5.49,5.49,0,0,1,57.39,17a4.33,4.33,0,0,1,1.29-.21,4.89,4.89,0,0,1,.93.09,2.37,2.37,0,0,1,.81.31,1.61,1.61,0,0,1,.56.59,1.82,1.82,0,0,1,.21.9,8,8,0,0,1-.12,1.3,10.67,10.67,0,0,1-.34,1.42,13.91,13.91,0,0,1-.5,1.36A7,7,0,0,1,59.65,23.87Z"/><path class="cls-3" d="M68.78,29.22q-1.3-.44-2.36-.9a7.26,7.26,0,0,1-1.83-1.11,4.59,4.59,0,0,1-1.2-1.55,5.09,5.09,0,0,1-.43-2.2,4.84,4.84,0,0,1,1.94-4,8.64,8.64,0,0,1,5.42-1.51,14.79,14.79,0,0,1,2.36.18,7,7,0,0,1,1.88.55,3.26,3.26,0,0,1,1.23.95,2.14,2.14,0,0,1,.44,1.34,2.36,2.36,0,0,1-.35,1.31,3.68,3.68,0,0,1-.86.93,6.68,6.68,0,0,0-1.74-.72,8.75,8.75,0,0,0-2.39-.31,4,4,0,0,0-2,.37,1.08,1.08,0,0,0-.62.93.86.86,0,0,0,.38.72,4,4,0,0,0,1.15.52l1.57.5a11.35,11.35,0,0,1,4.27,2.26,4.83,4.83,0,0,1,1.49,3.74,4.92,4.92,0,0,1-2,4.06,9.3,9.3,0,0,1-5.82,1.55,13.53,13.53,0,0,1-2.53-.22,8,8,0,0,1-2-.65,3.76,3.76,0,0,1-1.36-1.06A2.34,2.34,0,0,1,63,33.41a2.21,2.21,0,0,1,.5-1.46A3.82,3.82,0,0,1,64.56,31a8,8,0,0,0,2,1.12,7,7,0,0,0,2.61.47,3.51,3.51,0,0,0,2-.44,1.28,1.28,0,0,0,.59-1,1,1,0,0,0-.47-.9A6.13,6.13,0,0,0,70,29.63Z"/><path class="cls-3" d="M84.62,31.4a1.22,1.22,0,0,0,.49,1.09,2.46,2.46,0,0,0,1.37.32,5.93,5.93,0,0,0,.92-.07,5.14,5.14,0,0,0,.83-.19,3.69,3.69,0,0,1,.46.72,2.2,2.2,0,0,1,.19,1A2.28,2.28,0,0,1,88,36.07a4.69,4.69,0,0,1-3,.71,6,6,0,0,1-4-1.18,4.76,4.76,0,0,1-1.4-3.84V19.11c.22-.06.53-.12.93-.19a7.64,7.64,0,0,1,1.29-.1,3.78,3.78,0,0,1,2,.46,2.14,2.14,0,0,1,.72,1.94V23.1h3.87a5.1,5.1,0,0,1,.34.81A3.39,3.39,0,0,1,89,25a2.05,2.05,0,0,1-.46,1.49,1.66,1.66,0,0,1-1.23.46H84.62Z"/><path class="cls-3" d="M91.42,22.18a6.85,6.85,0,0,1,.93-.18,9.51,9.51,0,0,1,1.32-.09,7,7,0,0,1,1.17.09,2,2,0,0,1,.87.35,1.71,1.71,0,0,1,.55.72,3.14,3.14,0,0,1,.19,1.2v6.35A2.19,2.19,0,0,0,97,32.36a2.52,2.52,0,0,0,1.71.52,4.26,4.26,0,0,0,1.11-.12,3.81,3.81,0,0,0,.67-.24V22.18a6.82,6.82,0,0,1,.93-.18,9.51,9.51,0,0,1,1.31-.09,7,7,0,0,1,1.17.09,2,2,0,0,1,.87.35,1.71,1.71,0,0,1,.55.72,3.14,3.14,0,0,1,.19,1.2v9a2.41,2.41,0,0,1-1.24,2.22,8.13,8.13,0,0,1-2.47,1,13.49,13.49,0,0,1-3.12.34,11.51,11.51,0,0,1-2.94-.35,6.56,6.56,0,0,1-2.32-1.09,4.88,4.88,0,0,1-1.51-1.91,6.77,6.77,0,0,1-.53-2.82Z"/><path class="cls-3" d="M108,29.16a8.83,8.83,0,0,1,.59-3.38,6.46,6.46,0,0,1,1.64-2.38,6.75,6.75,0,0,1,2.45-1.4,9.71,9.71,0,0,1,3-.46,6.37,6.37,0,0,1,1.15.1,4.66,4.66,0,0,1,.92.25V17.1a8.15,8.15,0,0,1,.95-.19,8.45,8.45,0,0,1,1.33-.1,7,7,0,0,1,1.17.09,2,2,0,0,1,.87.35,1.6,1.6,0,0,1,.53.72,3.37,3.37,0,0,1,.18,1.2v14a2.52,2.52,0,0,1-1.3,2.22,9,9,0,0,1-2.22,1,11.53,11.53,0,0,1-6.57-.1,7,7,0,0,1-2.57-1.54,6.6,6.6,0,0,1-1.59-2.41A8.68,8.68,0,0,1,108,29.16Zm8.39-3.69a3.2,3.2,0,0,0-2.45.92,3.94,3.94,0,0,0-.86,2.78,4.14,4.14,0,0,0,.8,2.76,2.87,2.87,0,0,0,2.3.93,2.69,2.69,0,0,0,1-.16,2.2,2.2,0,0,0,.67-.37v-6.5A2.71,2.71,0,0,0,116.38,25.46Z"/><path class="cls-3" d="M128.17,32.67q-.33-.74-.69-1.65t-.77-2.1q-.4-1.18-.83-2.7t-.9-3.5a3.83,3.83,0,0,1,2.63-1,3.17,3.17,0,0,1,1.71.43,2.63,2.63,0,0,1,1,1.61l2.33,8.13h.12q.35-1,.69-2.19t.66-2.44q.33-1.26.61-2.51t.49-2.47a4.92,4.92,0,0,1,2.33-.56,3.08,3.08,0,0,1,1.71.44,1.7,1.7,0,0,1,.68,1.54,9.71,9.71,0,0,1-.21,1.85q-.21,1-.55,2.23t-.8,2.44q-.46,1.26-1,2.47t-1,2.29q-.53,1.08-1,1.94a20.78,20.78,0,0,1-1.54,2.36,8.43,8.43,0,0,1-1.36,1.43,3.89,3.89,0,0,1-1.3.71,4.78,4.78,0,0,1-1.36.19,2.78,2.78,0,0,1-2-.74,3.1,3.1,0,0,1-.92-1.92q.94-.74,1.89-1.64a20,20,0,0,0,1.71-1.85,2.78,2.78,0,0,1-1.08-.69A6.81,6.81,0,0,1,128.17,32.67Z"/></g></g></svg>