<svg xmlns="http://www.w3.org/2000/svg" xmlns:xlink="http://www.w3.org/1999/xlink" viewBox="0 0 1854 2213.93"><defs><style>.cls-1{fill:url(#linear-gradient);}.cls-2,.cls-4,.cls-46,.cls-5,.cls-6{fill:#fff;}.cls-2{opacity:0.3;}.cls-14,.cls-2,.cls-35,.cls-39,.cls-46,.cls-6,.cls-8{isolation:isolate;}.cls-3,.cls-8{opacity:0.1;}.cls-4{stroke:#535461;stroke-width:2px;}.cls-11,.cls-4{stroke-miterlimit:10;}.cls-6{opacity:0.25;}.cls-7{fill:#dea3a2;}.cls-11,.cls-9{fill:none;}.cls-10{fill:#2c8f00;}.cls-11{stroke:#565987;}.cls-12{fill:#ffd037;}.cls-13{fill:#a8a8a8;}.cls-14,.cls-46{opacity:0.2;}.cls-15{fill:url(#linear-gradient-2);}.cls-16{fill:url(#linear-gradient-3);}.cls-17{fill:#575a88;}.cls-18{fill:#aac9f5;}.cls-19{fill:#d5838e;}.cls-20{fill:#ffccd0;}.cls-21{fill:#cd828d;}.cls-22{fill:#663d5c;}.cls-23{fill:#f26383;}.cls-24{fill:#ffc1c7;}.cls-25{fill:#ffd6db;}.cls-26{fill:#48ccaa;}.cls-27{fill:#e4aab4;}.cls-28{fill:#bdd2e8;}.cls-29{fill:#cf6f80;}.cls-30{fill:#575a89;}.cls-31{fill:#512e4e;}.cls-32{fill:#ffceb4;}.cls-33{fill:#f8bda5;}.cls-34{fill:#e8eaf2;}.cls-35{opacity:0.05;}.cls-36{fill:#f1cec8;}.cls-37{fill:#f6e2df;}.cls-38{fill:#fdf9f9;}.cls-39,.cls-45{fill:#42312e;}.cls-39{opacity:0.3;}.cls-40{fill:#ff748e;}.cls-41{fill:#ffedba;}.cls-42{fill:#575988;}.cls-43{fill:#b97482;}.cls-44{fill:#d3878a;}.cls-47{fill:#f2dcdc;}.cls-48{fill:url(#linear-gradient-4);}</style><linearGradient id="linear-gradient" x1="945.47" y1="686.96" x2="1931.76" y2="686.96" gradientUnits="userSpaceOnUse"><stop offset="0" stop-color="#6c63ff"/><stop offset="1" stop-color="#9d7fff"/></linearGradient><linearGradient id="linear-gradient-2" x1="1342.25" y1="10392.71" x2="1342.25" y2="10629.94" gradientTransform="matrix(1, 0, 0, -1, -37.44, 10968.62)" gradientUnits="userSpaceOnUse"><stop offset="0" stop-color="gray" stop-opacity="0.25"/><stop offset="0.54" stop-color="gray" stop-opacity="0.12"/><stop offset="1" stop-color="gray" stop-opacity="0.1"/></linearGradient><linearGradient id="linear-gradient-3" x1="1477.43" y1="10432.94" x2="1477.43" y2="10459.15" xlink:href="#linear-gradient-2"/><linearGradient id="linear-gradient-4" x1="-228.53" y1="1526.96" x2="757.76" y2="1526.96" xlink:href="#linear-gradient"/></defs><title>main_background_v9</title><g id="Layer_2" data-name="Layer 2"><g id="Layer_1-2" data-name="Layer 1"><path class="cls-1" d="M1418.54,40.68C1394.31-2.51,1346.66-13,1312.11,17.32L978,310.22c-34.55,30.29-42.91,89.85-18.68,133l499.36,890c24.23,43.19,71.88,53.64,106.43,23.35L1854,1103.35V816.79Z"/><path class="cls-2" d="M1113.83,423c5.7,29.29,17.77,54.61,36.85,66.87,39.65,25.5,129.06,12.35,195.79-2.75,34.51-7.81,64.85-29.35,86.89-59.69Z"/><path class="cls-2" d="M1463.77,285.14h-36.61c-1.68.07-3.09-1.58-3.14-3.68s1.26-3.86,2.94-3.93h6.53c-1.68.07-3.09-1.58-3.14-3.68s1.26-3.86,2.94-3.93H1429c-1.68.07-3.09-1.58-3.14-3.68s1.26-3.86,2.94-3.93h19.31a44,44,0,0,0-14.93-4.94c-52.11-8-70.71-2.72-77.28,2.75a67.55,67.55,0,0,1-26.78,14.11c-32.13,8-92.26,17.56-146.77-3.07-27.08-10.25-47.21,7.07-59.28,36h347.07a79.59,79.59,0,0,0-4.3-23A2.84,2.84,0,0,1,1463.77,285.14Z"/><path class="cls-2" d="M1333.26,377.52l-.48,0-5-.35L1280,373.77l-5.16-.37-76-5.34-21.31-1.5-3.37-.24-3-.21-60.47-4.25a232.12,232.12,0,0,0,1.42,51.1L1163,415.2l4,.18.71,0,24.13,1.06,1.3.06,2.78.12,24.33,1.07,3.34.15,11.64.52h.22l1.71.08,5.82.26h0l5.11.22,9.73.43h.2l.87,0,.92,0h.2l15.52.68,4.35.19h.18l2.09.09h.55l1.84.09,5.62.25h0l2.11.09,2.71.12h.1l3.72.16,10.78.51,3,.13h.32l14.33.63,8.32.37,10.38.5,1.66.07,2.68.12,9.75.43,73.57,3.24a188.42,188.42,0,0,0,22.33-40.93Zm-138.33,28.39a2.88,2.88,0,0,1-2.11-1h0a4,4,0,0,1-.67-1,4.43,4.43,0,0,1-.39-1.81,4.31,4.31,0,0,1,.52-2.08h0a4.19,4.19,0,0,1,.35-.53,2.93,2.93,0,0,1,2.29-1.18h6.33c-1.68.07-3.09-1.58-3.14-3.68s1.26-3.86,2.94-3.93h-4.62c-1.67-.16-2.93-2-2.8-4.08s1.48-3.54,3.09-3.5h36.61c1.68-.07,3.09,1.58,3.14,3.68s-1.26,3.86-2.94,3.93h4.32c1.68-.07,3.09,1.58,3.14,3.68s-1.26,3.86-2.94,3.93h-6.53c1.68-.07,3.09,1.58,3.14,3.68s-1.26,3.86-2.94,3.93h-.2Z"/><path class="cls-2" d="M1470.14,307.47l-252.55,7.38-27.76.81-70.66,2.07a196.28,196.28,0,0,0-8.4,43.54H1464a212.29,212.29,0,0,0,5.1-27.76A157.57,157.57,0,0,0,1470.14,307.47ZM1182,341.08h-6.33c1.71,0,3.12,1.66,3.16,3.8v.23a4,4,0,0,1-1.4,2.93,2.79,2.79,0,0,1-1.76.64h-36.61c-1.68.07-3.09-1.58-3.14-3.68s1.26-3.86,2.94-3.93h6.53c-1.68.07-3.09-1.58-3.14-3.68s1.26-3.86,2.94-3.93h-4.32c-1.68.07-3.09-1.58-3.14-3.68s1.26-3.86,2.94-3.93h36.81c1.68-.07,3.09,1.58,3.14,3.68s-1.26,3.86-2.94,3.93H1182a2.74,2.74,0,0,1,1.5.46,4,4,0,0,1,1.66,3.34c0,2.14-1.46,3.83-3.17,3.8Z"/><g class="cls-3"><path class="cls-4" d="M1301.54,487.58s9.27-27.43,26.56-37.61A41.58,41.58,0,0,0,1345,430.21a85,85,0,0,0,4.25-12.82"/><path class="cls-5" d="M1360.15,410.9c-1.8,2.73-11.14,6.7-11.14,6.7s1.13-11.82,2.92-14.54,5.09-3.17,7.37-1a7.19,7.19,0,0,1,1,8.59Z"/><path class="cls-5" d="M1357,432.47c-2.74,1.11-12.37-1.65-12.37-1.65s6.29-9.19,9-10.3,5.72.67,6.64,4-.53,6.82-3.14,7.92Z"/><path class="cls-5" d="M1339.59,458c-2.84-.71-10-8.92-10-8.92s9.29-4.12,12.13-3.41,4.66,4.06,4.07,7.45S1342.42,458.68,1339.59,458Z"/><path class="cls-5" d="M1322.84,473.71c-2.89-.12-11.11-6.77-11.11-6.77s8.58-5.95,11.47-5.82,5.16,3,5.06,6.52S1325.73,473.83,1322.84,473.71Z"/><path class="cls-5" d="M1335.61,423.12c.37,3.45,6.64,12.66,6.64,12.66s4.13-10.81,3.76-14.27-3-5.89-5.87-5.44S1335.24,419.66,1335.61,423.12Z"/><path class="cls-5" d="M1316.21,441.82c1.21,3.16,9.49,9.69,9.49,9.69s1.25-11.8,0-15-4.35-4.55-7-3.08-3.72,5-2.66,8.12Z"/><path class="cls-5" d="M1299.43,463.11c.75,3.36,8,11.48,8,11.48s2.89-11.38,2.14-14.74-3.62-5.35-6.42-4.46-4.38,4.17-3.74,7.54Z"/><path class="cls-6" d="M1360.15,410.9c-1.8,2.73-11.14,6.7-11.14,6.7s1.13-11.82,2.92-14.54,5.09-3.17,7.37-1a7.19,7.19,0,0,1,1,8.59Z"/><path class="cls-6" d="M1357,432.47c-2.74,1.11-12.37-1.65-12.37-1.65s6.29-9.19,9-10.3,5.72.67,6.64,4-.53,6.82-3.14,7.92Z"/><path class="cls-6" d="M1339.59,458c-2.84-.71-10-8.92-10-8.92s9.29-4.12,12.13-3.41,4.66,4.06,4.07,7.45S1342.42,458.68,1339.59,458Z"/><path class="cls-6" d="M1322.84,473.71c-2.89-.12-11.11-6.77-11.11-6.77s8.58-5.95,11.47-5.82,5.16,3,5.06,6.52S1325.73,473.83,1322.84,473.71Z"/><path class="cls-6" d="M1335.61,423.12c.37,3.45,6.64,12.66,6.64,12.66s4.13-10.81,3.76-14.27-3-5.89-5.87-5.44S1335.24,419.66,1335.61,423.12Z"/><path class="cls-6" d="M1316.21,441.82c1.21,3.16,9.49,9.69,9.49,9.69s1.25-11.8,0-15-4.35-4.55-7-3.08-3.72,5-2.66,8.12Z"/><path class="cls-6" d="M1299.43,463.11c.75,3.36,8,11.48,8,11.48s2.89-11.38,2.14-14.74-3.62-5.35-6.42-4.46-4.38,4.17-3.74,7.54Z"/></g><g class="cls-3"><path class="cls-4" d="M1308.47,446.05s1.17-29.57,14.68-46.07a48.73,48.73,0,0,0,10.53-25.4,90.76,90.76,0,0,0,.47-13.79"/><path class="cls-5" d="M1342.61,350.35c-1,3.29-8.66,10.76-8.66,10.76s-2.2-11.6-1.26-14.89,3.94-5,6.67-3.89,4.11,4.52,3.29,7.82Z"/><path class="cls-5" d="M1345.53,372c-2.27,2.14-12.13,3.37-12.13,3.37s3.4-11.17,5.68-13.32,5.53-1.66,7.36,1.1a7.24,7.24,0,0,1-.7,8.64Z"/><path class="cls-5" d="M1336.2,403c-2.87.46-11.89-4.46-11.89-4.46s7.63-7.58,10.5-8,5.52,2,5.89,5.41S1339.07,402.49,1336.2,403Z"/><path class="cls-5" d="M1324.73,424.47c-2.76,1-12.33-2-12.33-2s6.45-9,9.22-10.06,5.71.81,6.57,4.13-.66,6.81-3.3,7.84Z"/><path class="cls-5" d="M1322.81,371.66c1.3,3.11,9.76,9.3,9.76,9.3s.91-11.85-.39-15-4.47-4.37-7-2.8-3.57,5.1-2.43,8.21Z"/><path class="cls-5" d="M1309.68,397c2,2.5,11.63,5.36,11.63,5.36s-2.08-11.63-4.09-14.13a4.65,4.65,0,0,0-7.42-.14,7.25,7.25,0,0,0-.31,8.66Z"/><path class="cls-5" d="M1299.73,423.8c1.62,2.87,10.71,7.64,10.71,7.64s-.42-11.89-2.05-14.76-4.9-3.61-7.29-1.64-3,5.63-1.51,8.49Z"/></g><ellipse class="cls-2" cx="1182.35" cy="542.72" rx="8.25" ry="1.42"/><ellipse class="cls-2" cx="1150.74" cy="546.73" rx="8.25" ry="1.42"/><ellipse class="cls-2" cx="1113.5" cy="541.3" rx="8.25" ry="1.42"/><ellipse class="cls-2" cx="1163.39" cy="558.14" rx="5.87" ry="1.01"/><ellipse class="cls-2" cx="1130.58" cy="557.13" rx="5.87" ry="1.01"/><ellipse class="cls-2" cx="1440.03" cy="532.75" rx="13.26" ry="2.28"/><path class="cls-7" d="M1322.26,301.84l-9.33,2.25s16.28-1.92,21.15-1.6,15.86,8,15.86,8,5.19,2.06,11.33,9.28a56.43,56.43,0,0,1,4.19,5.61c4.9,7.42,9.82,18.3,12.86,34,.32,1.62.61,3.27.88,5q.82,5.19,1.35,11c.16,1.8.3,3.65.42,5.56s.2,3.68.27,5.59.1,3.67.12,5.57c0,2.55,0,5.16,0,7.86q-.06,2.7-.18,5.5v.22a224.78,224.78,0,0,1-3.57,32.59c-.18.94-.37,1.88-.56,2.79q-1.33,6.3-3.25,12.37-.32,1.07-.68,2.08-.8,2.38-1.65,4.54-.7,1.78-1.42,3.41c-.09.22-.19.44-.29.66q-.36.78-.72,1.53c-8.4,17.56-18.71,21.84-22.82,22.88-.57.14-1,.23-1.33.27h0c-.3,0-.47.05-.47.05-1,4.62.88,6.49,3.11,7.16a7.75,7.75,0,0,0,1.1.24h0a12.91,12.91,0,0,0,4.38-.22s10,.56,20.54.87l2.38.07h0l.88,0c5.44.13,10.75.18,14.62,0h0a39.86,39.86,0,0,0,4.39-.35c8-1.29,5.64-7.71,3.21-12.67-2.1-4.27-1.06-11.88,2.38-24.43q.83-3.05,1.85-6.49c3.77-12.76,3.55-31.84,2.66-48-.12-2.13-.24-4.21-.38-6.21-.16-2.46-.32-4.81-.49-7a147.61,147.61,0,0,0-5.5-29c-.35-1.22-.71-2.43-1.07-3.55a97.88,97.88,0,0,0-3.53-9.7c-.29-.64-.55-1.22-.8-1.7l-.23-.45c-.43-.87-.88-1.87-1.35-3-.68-1.59-1.38-3.38-2.08-5.24-1.77-4.72-3.49-9.89-4.62-13.38-.83-2.56-1.34-4.24-1.34-4.24a7.52,7.52,0,0,1,.56-2c4.31-9.85,29.31-15.51,29.31-15.51l12.53,1.13,24.91,2.24-27.2-5.13-4.22-.81s1.22-.16,3-.53h0c3.59-.73,9.5-2.26,12.74-4.92,2.6-2.13,16.29-3,28.58-3.42v-3.91l-2.29,2-26.41.49,12.82-20.51-16.93,21.63c-2.66.67-7.79,2.17-13.67,4-4.06,1.24-8.47,2.62-12.69,3.93-10.38,3.24-19.65,6.21-19.65,6.21.89-16.49,7.46-31.68,18-41.66l14.49-13.72h-3.76c-10.71,8-26.84,23.95-26.84,23.95a225,225,0,0,1,2.54-23.93h-4.93q-.09,1.16-.22,2.31c-1.95,16.48-2.9,35.9-2.9,35.9-1.67,14.11-6.16,2.08-6.16,2.08.4-16-4.77-31-8.9-40.31h-5.46c2.52,6.43,1.68,11.13,1.68,11.13-8.37-7.8-15-10.43-19.58-11.13a15.52,15.52,0,0,0-5.07,0,7.52,7.52,0,0,0-1.89.55c16.92,1,29,17,29,17,1.34.41,4.73,13.51,6.16,30.14.21,2.43.38,5,.5,7.53.39,8.58-.48,12.07-1.59,13.26a1.71,1.71,0,0,1-2.46,0,5.29,5.29,0,0,1-1-.92c-2.63-5.52-12.65-11.79-21.74-16.59-1.92-1-3.81-2-5.57-2.84-6.14-3-10.76-9.52-12.47-17.49-3-13.59-8.55-13.07-8.55-13.07,6.54,6.25,6.16,25.15,6.16,25.15l-21.66-5.72c10.3,3.46,27.17,11.49,27.17,11.49l-8.61,2.07Z"/><path class="cls-7" d="M1298.06,286.79l5.65,1.49A32.87,32.87,0,0,0,1298.06,286.79Z"/><path class="cls-8" d="M1363,480.17a14,14,0,0,1,11.3-1.76c6.53,1.76,16.53.81,17.44.64Z"/><path class="cls-8" d="M1383.87,384.2s1.59,31.33-1.24,37.5Z"/><path class="cls-8" d="M1389.73,421.71s-2,29.34-3.45,35.08S1389.73,421.71,1389.73,421.71Z"/><path class="cls-8" d="M1391.72,349.56c1.44.68,7.62,16.33,6.37,21S1391.72,349.56,1391.72,349.56Z"/><path class="cls-8" d="M1376.05,333.3c.67.38,3.54,9.4,3,12.07S1376.05,333.3,1376.05,333.3Z"/><path class="cls-8" d="M1402.8,385.94c-.71,9.1-1.1,15.05-.65,22.34a107,107,0,0,1-.19,17Z"/><path class="cls-8" d="M1325.45,280a8.54,8.54,0,0,1,1.2,4.61c0,1.65-.13,3.3,0,4.94s.75,3.76,2.13,4Z"/><path class="cls-9" d="M1394.4,271.26a15.53,15.53,0,0,0-2.88,2.48,7,7,0,0,0-1.67,3.75c-.06.62,0,1.25-.14,1.86a6.43,6.43,0,0,1-1,2.25,29.35,29.35,0,0,1-2.43,3.36"/><path class="cls-8" d="M1386,313.11a18.41,18.41,0,0,1,2.32-2,8.92,8.92,0,0,1,2.38-1.31,22.18,22.18,0,0,1,3.94-.53,5.06,5.06,0,0,0,3.59-1.85Z"/><path class="cls-8" d="M1438.16,292.86a8.68,8.68,0,0,0-4.57,1c-.71.46-1.32,1.11-2,1.59a5.21,5.21,0,0,1-2.94,1Z"/><path class="cls-8" d="M1416.53,300.9c.32-.32.84-.07,1.12.33s.43.92.72,1.31a2.83,2.83,0,0,0,2.34.9Z"/><path class="cls-8" d="M1407.61,259.48l-1.5,1a27,27,0,0,0-4.42,3.37Z"/><path class="cls-8" d="M1390.48,277.81c-1-.29-1.84,1-2,2.27s0,2.56-.25,3.78a7.31,7.31,0,0,1-1.48,2.77Z"/><path class="cls-8" d="M1373.8,280.08c-.9,3.35,1,7,.45,10.46-.17,1.05-.56,2-.76,3.08a11,11,0,0,0,1.81,7.86Z"/><path class="cls-10" d="M1150.56,546.41s11.58-47.43-1.81-66.43c-10-14.2-21.38-12.51-26.47-10.76a10.26,10.26,0,0,0-6.07,6.31c-1.78,4.8-1.46,12.59,11.11,21.69,21,15.22,22.35,36.1,22.35,36.1Z"/><path class="cls-11" d="M1124.08,475.95s34.12,13.34,26.47,70.46"/><path class="cls-11" d="M1144,480.73s-4.7,4-3.21,9.9"/><path class="cls-11" d="M1127.51,484.25s2.87-3.65,6.37-1.62"/><path class="cls-11" d="M1141,502.62s5-3.2,6.35.81"/><path class="cls-11" d="M1153.48,509.29s-3.79-.38-3.86,1.89"/><path class="cls-10" d="M1151,546.79s-13.56-34.47-17.28-33.72c-1.77.36-2.6,2.53-3,4.72a17.09,17.09,0,0,0,.74,8.39C1133.45,531.69,1138.62,542.17,1151,546.79Z"/><path class="cls-11" d="M1133.84,519.61s14.23,25.79,17,26.92"/><line class="cls-11" x1="1132.54" y1="523.63" x2="1135.86" y2="523.63"/><line class="cls-11" x1="1136.51" y1="533.07" x2="1141.72" y2="533.35"/><line class="cls-11" x1="1139.68" y1="525.52" x2="1139.12" y2="528.91"/><line class="cls-11" x1="1145.22" y1="535.84" x2="1145.12" y2="538.92"/><path class="cls-10" d="M1150.62,546.79s13.56-34.47,17.28-33.72c1.77.36,2.6,2.53,3,4.72a17.09,17.09,0,0,1-.74,8.39C1168.19,531.69,1163,542.17,1150.62,546.79Z"/><path class="cls-11" d="M1167.81,519.61s-14.23,25.79-17,26.93"/><line class="cls-11" x1="1169.11" y1="523.63" x2="1165.79" y2="523.63"/><line class="cls-11" x1="1165.14" y1="533.07" x2="1159.93" y2="533.35"/><line class="cls-11" x1="1161.97" y1="525.52" x2="1162.53" y2="528.91"/><line class="cls-11" x1="1156.43" y1="535.84" x2="1156.53" y2="538.92"/><path class="cls-10" d="M1127.35,554.84a3.1,3.1,0,0,1-.77-1.46,1.42,1.42,0,0,1,.54-1.48c.5-.24,1,.19,1.43.62s.86.93,1.39.84a3.06,3.06,0,0,1-.65-2.47,1.17,1.17,0,0,1,.18-.5c.28-.37.77-.21,1.1.08,1,.92,1.34,2.7,1.34,4.3a10.09,10.09,0,0,0,0-1.77,2,2,0,0,1,.53-1.57,1.33,1.33,0,0,1,.81-.24,1.41,1.41,0,0,1,1.3.47,2,2,0,0,1,0,2,5.55,5.55,0,0,1-1.36,1.37,3.38,3.38,0,0,0-1,1.16,1.58,1.58,0,0,0-.07.21h-2.95A8.57,8.57,0,0,1,1127.35,554.84Z"/><path class="cls-10" d="M1179,541a3.06,3.06,0,0,1-.77-1.46,1.42,1.42,0,0,1,.54-1.48c.5-.24,1,.19,1.42.62s.86.93,1.39.84a3.06,3.06,0,0,1-.65-2.47,1.2,1.2,0,0,1,.18-.5c.28-.37.78-.21,1.1.08,1,.92,1.34,2.7,1.35,4.3a10,10,0,0,0,0-1.77,2,2,0,0,1,.53-1.57,1.34,1.34,0,0,1,.81-.24,1.45,1.45,0,0,1,1.32.47,2,2,0,0,1-.05,2,5.48,5.48,0,0,1-1.36,1.36,3.53,3.53,0,0,0-1,1.16,1.26,1.26,0,0,0-.07.21h-3A8.41,8.41,0,0,1,1179,541Z"/><path class="cls-10" d="M1161.79,554.84a3.1,3.1,0,0,1-.77-1.46,1.43,1.43,0,0,1,.54-1.48c.49-.24,1,.19,1.42.62s.86.93,1.39.84a3.07,3.07,0,0,1-.65-2.47,1.22,1.22,0,0,1,.18-.5c.28-.37.77-.21,1.1.08,1,.92,1.34,2.7,1.34,4.3a10.09,10.09,0,0,0,0-1.77,2,2,0,0,1,.53-1.57,1.33,1.33,0,0,1,.81-.24,1.46,1.46,0,0,1,1.32.47,2,2,0,0,1-.05,2,5.49,5.49,0,0,1-1.36,1.37,3.41,3.41,0,0,0-1,1.16,1.21,1.21,0,0,0-.07.21h-2.95A8.48,8.48,0,0,1,1161.79,554.84Z"/><path class="cls-10" d="M1113,526.77s-1.1,1.8.51,4.53,2.95,5,2.41,6.74c0,0-2.44-5.07-4.43-5.14S1110.78,529.82,1113,526.77Z"/><path class="cls-8" d="M1113,526.77a2.55,2.55,0,0,0-.22.56c-1.95,2.84-3,5.5-1.11,5.56s3.81,3.94,4.31,4.92a.81.81,0,0,1-.06.22s-2.44-5.07-4.43-5.14S1110.78,529.82,1113,526.77Z"/><path class="cls-12" d="M1110.9,529.08a.58.58,0,1,0,.25,0c0-.63-.07-.34-.14-.34S1110.9,528.44,1110.9,529.08Z"/><path class="cls-12" d="M1110.2,529.83c.45.3.84.49.87.41s-.3-.39-.75-.69-.27-.09-.3,0S1109.75,529.53,1110.2,529.83Z"/><path class="cls-10" d="M1118.8,526.77s1.11,1.8-.51,4.53-2.95,5-2.41,6.72c0,0,2.44-5.07,4.42-5.14S1121,529.82,1118.8,526.77Z"/><path class="cls-8" d="M1118.8,526.77a2.55,2.55,0,0,1,.22.56c1.95,2.84,3,5.5,1.11,5.56s-3.81,3.94-4.31,4.92a1.91,1.91,0,0,0,.06.22s2.44-5.07,4.42-5.14S1121,529.82,1118.8,526.77Z"/><path class="cls-12" d="M1120.86,529.08a.58.58,0,1,1-.25,0c0-.63.07-.34.14-.34S1120.86,528.44,1120.86,529.08Z"/><path class="cls-12" d="M1121.56,529.83c-.45.3-.84.49-.87.41s.3-.39.75-.69.27-.09.3,0S1122,529.53,1121.56,529.83Z"/><path class="cls-13" d="M1120.51,537.8s-3.09-.12-4-.94-4.76-1.82-5-.49-4.65,6.61-1.16,6.65,8.11-.68,9-1.39S1120.51,537.8,1120.51,537.8Z"/><path class="cls-14" d="M1110.29,542.56c3.49,0,8.11-.68,9-1.39.71-.54,1-2.47,1.08-3.37h.1s-.2,3.12-1.13,3.83-5.55,1.42-9,1.39c-1,0-1.36-.46-1.34-1.12C1109.14,542.3,1109.53,542.55,1110.29,542.56Z"/><path class="cls-15" d="M1422.52,435.89c-1.32-1.4-5.27-10-6.39-12.49l-.29-.66h0c.41-1.92-2.15-4.71-2.9-5.48-1.57-2.31-3.83-5.19-5.69-5.88-2.38-.88-4,.11-5.84-.28a4,4,0,0,1-1.26-.51,6.18,6.18,0,0,1-.76-.56,10.56,10.56,0,0,1-1.71-2,3.15,3.15,0,0,0,1-.32q2.77-1.29,5.45-2.88a1.88,1.88,0,0,0,1-1c.06-.21.07-.45.15-.65a1.48,1.48,0,0,1,1-.77,4.36,4.36,0,0,0,3.08-3.31,5.56,5.56,0,0,0,0-.7,3.15,3.15,0,0,1-.26.52c0-.6,0-1.22,0-1.8a4.14,4.14,0,0,1,.47-1.43c0,.2,0,.39,0,.59.53-1.44,1.81-2.48,2.24-4a5.54,5.54,0,0,0,.17-1.28,4.92,4.92,0,0,1-.29.69c.24-1.76-.38-3.74.34-5.27,0-.1.1-.2.16-.3,0,.2,0,.4,0,.6,0-.1.07-.2.12-.3a9.81,9.81,0,0,0,1.12-2.06,2.94,2.94,0,0,0,0-.91,4.15,4.15,0,0,1-.22.38,6.27,6.27,0,0,0-.13-1.12c-.52-2.78-1.27-5.94-3.35-7.1a5.82,5.82,0,0,1-1.87-1.09c-1.16-1.35-.53-4.23-1.87-5.27-.59-.47-1.49-.52-1.71-1.34-.13-.47,0-1-.09-1.47-.3-1-1.45-.64-2.3-.6a2.39,2.39,0,0,1-2.22-2.69,5.07,5.07,0,0,0-5.11-.3c-.86.43-1.7,1.13-2.62,1-.44-.05-.86-.29-1.3-.39-1.82-.41-3.37,1.55-5.1,2.35s-4,.51-5.45,2.11c-1.26,1.42-1.49,3.92-2.82,5.22-.71.69-1.62.94-2.38,1.57a2.41,2.41,0,0,0-.69,2.87c.72,1.1,2.57.51,2.92,1.87.28,1.09-.8,1.9-1.22,2.92a2.52,2.52,0,0,0,.93,3,1.58,1.58,0,0,0,.32.13h0v0c-1.84,6.81.53,14.28,5.6,17.67.16.37.32.77.51,1.22a36.39,36.39,0,0,1,2.53,9.44c-1.21-.5-3.77,2.41-3.77,2.41a22.92,22.92,0,0,1-3.94.9c-2.73.45-2.51,1.78-2.5,1.79l-.17.19c-1.41,1.55-11,12.28-12.54,12.68l.08.41-.4.37-4.75,4.4h0s-3.64.3-7.22.81-8.65,1.87-5,7.25a2.54,2.54,0,0,0,.32.41l-14.35-1.06a.9.9,0,0,0,.16-.47c0-.41-.37-.81-1-1.12l0-.13c1.81-.06,4.05-.17,5.55-.34.39,0,.72-.1,1-.15,2.24-.45-.18-2.58.9-4.26s0-8,.09-9.3-.71-6.72-1.43-7.85-.8-5.94-.8-5.94-1.7-1.91-2.68-8.41-4.92-9.86-6.16-10.2-3.13-1.68-3.13-2-2.15-.45-3-.9-1.34-1-2.06-1.12h0a5.22,5.22,0,0,0,.63-1.18,2.62,2.62,0,0,1,.78-1.08l.2-.1a.63.63,0,0,1,.21,0,.5.5,0,0,1,.21,0c.27.09.54.37.78.21a.31.31,0,0,0,.09-.09,1,1,0,0,0,.14-.41h0c0-.17.05-.34.07-.51v0c0-.17,0-.35,0-.52h0a10.49,10.49,0,0,1,.38-3.67l0-.05h0a8.82,8.82,0,0,1,2.16-2.4q.23-.24.45-.5l.16-.21.24-.33c.08-.11.12-.2.18-.3l.17-.29.19-.37.12-.24c0-.08.13-.28.18-.43l.07-.2c.06-.16.12-.33.17-.49l0-.15c.06-.19.1-.37.15-.56v-.09a9.24,9.24,0,0,0,.18-1.22,9.38,9.38,0,0,0-1.47-5.84c-.83-1.22-2-2.28-2.08-3.87a7.36,7.36,0,0,1,.39-2.17h0a6.55,6.55,0,0,0,.19-.93h0a3.2,3.2,0,0,0,0-.43,4.75,4.75,0,0,0-1.3-3,7.21,7.21,0,0,0-7.5-2.47,4.87,4.87,0,0,1-2.1.43,6.6,6.6,0,0,1-2.25-1.29c-2.42-1.53-5.7-.41-7.17,2.43-.85,1.65-1.18,3.81-2.44,5-.75.69-1.78,1-2.31,1.87h0a2.09,2.09,0,0,0-.17.33,3,3,0,0,0-.19,1.11,9.41,9.41,0,0,0,.08,1.17,5.89,5.89,0,0,0,1.36,3.26h0l.18.24,0,.06c.13.18.25.36.36.54l0,0,.1.18-.14.2c-3.68,5.76-3,14.14,1.59,18.81v.43c0,.75-.07,1.55-.12,2.36a1.37,1.37,0,0,0-1.22-.53,1.05,1.05,0,0,0-.61.07,1.3,1.3,0,0,1-.35.09,5.73,5.73,0,0,0-1.34-.19,1.34,1.34,0,0,0-1.26.55,11.31,11.31,0,0,1-5.48,2.46.79.79,0,0,1-.32-.1.65.65,0,0,0-.49-.06c-.94-.26-3.57,2-4.16,3.42s-2.68,5.38-2.68,5.38-1.79,2.69-1.52,4.15a4,4,0,0,1-1.7,3.81c-1.07.67-3.22,7.4-3.22,7.4s-2.33,6.16-4.74,7.73c-.95.62-1.25,2-1.26,3.55-.56,0-1,0-1,0s-7.52,2.39-9.9.6S1250,431.4,1250,431.4L1241.47,420l-.34-.46c1.51-1.6-1-2.78-1-4a1.87,1.87,0,0,0-1-1.65l-.11.16a1.58,1.58,0,0,0-.25-.16,2.59,2.59,0,0,1-.7.75c-.18-.14-.29-.56-.25-1.5a9.64,9.64,0,0,0-1.62-5,80.29,80.29,0,0,1,4.62-12.69c.09-.2.18-.41.27-.59,5.29-3,7.65-10.74,5.27-17.35a13.85,13.85,0,0,0-1.7-3.3l-.34-.46.26-.09a1.57,1.57,0,0,1,.34,0c.77,0,1.65.47,2.37.43a1.17,1.17,0,0,0,.67-.16c.79-.49.6-1.79.14-2.45-.57-.81-1.46-1.35-1.87-2.26a8.6,8.6,0,0,1-.43-1.74,5.79,5.79,0,0,0-3-3.91,5.21,5.21,0,0,0-4.76.13c-.7.41-1.32.94-2.05,1.27a6.55,6.55,0,0,1-4.81-.24c-.91-.32-1.82-.69-2.74-.94a20.39,20.39,0,0,0-1.26-5c0-.13-.11-.24-.16-.37,1.56-.67,3.59-.55,4.4-2.32a2.54,2.54,0,0,0,1.48-.24,1.44,1.44,0,0,0,.6-1.54,1.27,1.27,0,0,0-.2-.37h0a3.93,3.93,0,0,0-.65-.61,5.17,5.17,0,0,1-1.65-3.69.17.17,0,0,0,0,.1q0-.26,0-.52c0-.77.2-1.54.17-2.31a3.58,3.58,0,0,0-.18-.94v.06a2.82,2.82,0,0,0-2.57-2.19c-.41,0-.8.16-1.21.18-1.95.07-3.55-2.66-5.44-2.11a4,4,0,0,1-1.2.39c-1,0-1.54-1.36-2.45-1.72-.72-.29-1.51.11-2.27,0a4.91,4.91,0,0,1-2-1.07c-1.36-.93-3.18-1.34-4.37-.1a4.27,4.27,0,0,1-.85.85,2,2,0,0,1-1.23.09,9.21,9.21,0,0,0-3.68.31,1.32,1.32,0,0,0-.84.55,3.66,3.66,0,0,0-.27,1.07c-.36,1.76-2.1,2.36-3.55,2.51a1.74,1.74,0,0,0-1.07.36,2.38,2.38,0,0,0-.28,2.27,12.54,12.54,0,0,1,.71,2.29c.21,2-1.55,3.6-1.84,5.63-.41,2.81,2.08,5.56,1.23,8.22-.37,1.18-1.37,2.08-1.33,3.35s1,2,1.62,3a9.56,9.56,0,0,1,1,3.24c.35,1.76.42,5.07,1.92,5.91h0l.19.1.25.08-.21.39a40.87,40.87,0,0,1-5.57,8.08l-.2.2a1.33,1.33,0,0,0-.79-.44c-1.07-.15-3.82,2.24-3.82,3.44s-2.52,3.14-5.39,6.57-2.86,19.87-1.91,23a78.84,78.84,0,0,1,1.4,7.94,4.55,4.55,0,0,0-1.3,2.37c-1.07,5.68.48,10.16,1.79,10.61s1-2,1-2a11.86,11.86,0,0,1-.85-6.7c.48,3.68.85,6.7.85,6.7s3.46,13.75,4.77,17.93,6,30.34,6,30.34.51.81,1.42,2l1.08,7.45,1.79,4.49h.13l-.27,3.2s.24,13.45-.36,15.47-5.91,38.56-5.91,38.56-1.67,12.85-1.55,16l3.88,1s-.78-2.77.36-7.92,3.34-14.8,3.34-14.8l2.27-12.85.17,9.19s-2,11.43-1.62,12,3.52.81,3.52.81a67.06,67.06,0,0,1,.65-9.49c.57-2.93,6.9-33.31,8.51-41a12.56,12.56,0,0,1,7-1.41c8,.56,12.53,4.23,15,8-5.76,3.8-10.61,6.94-10.61,6.94l.06.41h0l-.05,0-.12.09-.06,0-.12.09-.09.06-.13.1-.08.06-.16.12-.07.05-.53.41-.06,0-.23.17-.07,0-.24.17-.06,0-.28.2,0,0-.32.23h0l-.32.24,0,0-.3.21-.08.06-.24.17-.11.08-.22.15-.11.08-.24.17-.08.06-.32.22h0l-.3.21-.08.05-.23.15-.1.06-.2.13-.11.07-.2.13-.09.06-.23.15,0,0-.26.16-.06,0-.18.11-.08,0-.15.08-.08,0-.13.06-.07,0-.12.06-.06,0-.15.06c-1.53.58-2.63,5.44-1,8.57s1.31,8.57.44,10.65.22,5.79.44,6.72c.17.71,2.18,1.47,5.35,1.29a18.16,18.16,0,0,0,5.1-.48c5-1.16,3.18-3.71,2.63-5.56a23.87,23.87,0,0,1,.11-9.61q.08-.26.14-.52c1.19-1.65,3.08-4.36,4.6-6.82.7-1.14,2.46-2.15,4.6-3,1.71,8.78,5.13,26.16,5.88,28.94,1,3.74,1.55,12.93,1.55,12.93l3.94-.45L1251,549.2l-1.41-19.47c1.86-.41,3.3-.66,3.77-.74,1.92,9.24,3.75,18,4,19.55A67.06,67.06,0,0,1,1258,558s3.1-.22,3.52-.81-1.62-12-1.62-12l.38-20.22c4.45-2.61,9.87-5.76,12.27-7.06a75.84,75.84,0,0,0,9.12-6.65l5.52,56.27,3.22.34,1.72-.49,2.21-.63,5.06-50.73.55.56a16.22,16.22,0,0,0,.21,5,27.15,27.15,0,0,1,.09,9.3c-.45,1.8-2,4.26,2.15,5.38s6.89.11,7.07-.78,1.07-4.49.36-6.49-1-7.3.36-10.31.45-7.73-.8-8.29c-.83-.37-2.05-1-2.78-1.45l-.23-.37a6.72,6.72,0,0,1,1.95-2.11c2.15-1.34,1.7-4.37,1.7-4.37s2.24,0,3.85-3.37c1.13-2.36,2.43-4.71,3.11-6.41.14,1.08.29,2.43.38,3.57.18,2.39,2.38,25.63,3.4,27.58s.18,9.27.18,9.27h3.28l-.24-11.21s-3.7-33-.6-36.32c.54-.59,1.07-1.19,1.57-1.78l6.12,55.93c0,.41,0,.7,0,.92s0,.41,0,.41-2.62,1.65-.71,3.29a4.42,4.42,0,0,0,1.35.71l.13,1.22a11.15,11.15,0,0,1-2.08,0c-.42-.22-.42,6.95-.42,6.95s-2.33,5.83-2.62,7.25-2.62,4.93-2.62,4.93-3.34,3.06,1.55,4.26a22.7,22.7,0,0,0,10.26-.37s3.57-7.77,3.89-7.32,0,4.11,0,4.11l2.09-.67s-.36-4.87.48-7.47c.65-2.08-.78-8.63-1.4-11.24l.39,0a17.77,17.77,0,0,0,.72-3.59,1,1,0,0,1,0-.24,42,42,0,0,1,1.16-5.73c.59-2.39,0-2.09,0-3.59a67.61,67.61,0,0,1,.65-7.68,1.38,1.38,0,0,1,0-.23,2.62,2.62,0,0,0,.87.48c.36,1.24.73,2.66,1,3.85-.65.25-1.09.54-1.16.88a21.12,21.12,0,0,0,.12,5.15s.54,7.92-.48,9.12-3.1,3.36-1.73,5.61a2.57,2.57,0,0,0,.48.56,8.16,8.16,0,0,0,4.72,1.62l-.79,14.64,3.9.45s.54-9.19,1.55-12.93c.22-.81.69-3,1.27-5.79,1.48-2.77,2.31-4.75,2.31-4.75l1,5.23,3.52-1.12s-1.91-4.63-1.67-6.27-1-4-2-5.83c-.13-.23-.26-.53-.41-.86,1.51-7.65,2.85-14.6,2.85-14.6s1-15.53,18.2-16.75a12.55,12.55,0,0,1,7,1.41c1.62,7.71,7.95,38.12,8.52,41a67.06,67.06,0,0,1,.65,9.49s3.1-.22,3.52-.81-1.62-12-1.62-12l.17-9.19,2.27,12.85s2.21,9.64,3.34,14.8.36,7.92.36,7.92l3.88-1c.12-3.14-1.55-16-1.55-16s-5.31-36.54-5.91-38.56-.36-15.47-.36-15.47l-.26-3.13c4.22-3.71,6.59-23.55,6.59-23.55l4.4-30.75a42.47,42.47,0,0,0,1.75-4.93v0l.53.74,2.56,7.85c5.07,8.89,10.14,8.59,10.14,8.59l0-.06a2.89,2.89,0,0,0,2.6-.85l.05-.05C1427.89,450.39,1424.07,437.54,1422.52,435.89ZM1333,454.48l-.94-4.76,1,0Zm-15.28-62.05a3,3,0,0,0-.3.27c-.09-.3-.18-.61-.27-.92A1.91,1.91,0,0,0,1317.72,392.43ZM1287,457.49a11.08,11.08,0,0,0-1.7,4.06l.38.11-2.76,3.09-1.39-15,6.73.37C1287.9,453.85,1287.47,456.75,1287,457.49Zm6.53,31.16s1.39-.41,3.2-1.06l-.57,5.39C1294.55,490.35,1293.55,488.65,1293.55,488.65Zm-3.86-59.21,0-.14v.14Zm-34.44,37.09c-1.51-.85-12.14-4.94-16-6.42a1.19,1.19,0,0,1-.09-.76c.36-1.49-2.38-5.53-3.46-6.57s-2.5-3-1.31-4.19a2.77,2.77,0,0,0,.58-1.36l11.09.6a23.29,23.29,0,0,0,3.24,1.22s1.89-.31,4.36-.81l21.95,1.19,2.08,21.22a34.1,34.1,0,0,0-2.29,2.75,24.76,24.76,0,0,0-1.65,7.45l-11.45-4.46q0-.11.06-.22C1263.44,471.24,1257.1,467.58,1255.25,466.53Zm-20.07-22.76c0-1-.09-1.76-.09-1.76l-.25-3.34c2.16,1.65,4.5,3.48,6.16,4.92Zm51.69,63.16.24-.2a3.37,3.37,0,0,0,1.62-1.4l2.63,2.84a19.36,19.36,0,0,1-4,3.67Zm45.71-23.37-.42,29.06-3.22-26.92C1329.85,485.14,1331.27,484.32,1332.58,483.57ZM1352.66,444s3.46,5.38,6.15,3.59h0c.6.1,5-2.87,7.82-4.83a15.76,15.76,0,0,0,1.37,2.06l1.71-1.1.34-.22c.17,2.32.46,6.17.7,8.65.36,3.72-4.61,8.77-4.65,8.82h0s0,.19,0,.48c-.24.27-.39.41-.39.41l.4-.09c0,1.17,0,3.24-.88,3.68-1.19.6-1.91,1-4.3.15a36.55,36.55,0,0,0-8.85-1.82c-4.14-.3-8.58.26-10.71,3.31-.07.11-.15.23-.21.35l-.11.2a1,1,0,0,0-.21.13,1.35,1.35,0,0,0,0,.25c-1.16,2.6-1.48,7.42-1.4,12.6l-.36.19-.18.1-.13.08-.37.22-.22.14-.29.19-.32.22-.18.14-.41.31-.1.08a5.54,5.54,0,0,0-.46.41l0,0-.17.15.4-33.31,17.65-.41-.27-3.14-2.73-.21A8.92,8.92,0,0,0,1352.66,444Zm-126.6,83,.1-.3a.28.28,0,0,1,0-.08l.09-.27h0l.09.64-.4.28.08-.26Zm62.36-3.44a22.42,22.42,0,0,0,4.66-1.62L1290.51,546Zm44,21.3.73.2v.7l-.76,0Z"/><path class="cls-16" d="M1453.43,532.91c0-.87-2.83-1.62-7-2-1.13-2.35-2.9-4.91-3.08-5.95-.25-1.41-3-1.22-5.27-.52,1.43-2.3,3.5-5,5.33-5.08s1.93-1.84.88-4.3a6.1,6.1,0,0,0,1.15-.64c.72-.49.35-.34.29-.46s.23-.48-.49,0a6.79,6.79,0,0,0-1,.85,9.93,9.93,0,0,0,.1-1.62c0-1-.07-.54-.18-.54s-.23-.48-.23.54q0,.55,0,1.09a34.49,34.49,0,0,0-2.94-4.81h0v0h0l.08.16v0s0,.06,0,.1v0a3.37,3.37,0,0,1,.12.32.21.21,0,0,1,0,0l0,.15a8.09,8.09,0,0,1-1.18,6.44c-1.75,3-3.35,5.71-3.89,8-.54-2.28-2.1-5-3.89-8s-1.52-5.27-1.18-6.44l0-.15v0l.12-.32v0a.27.27,0,0,1,0-.1v0l.08-.16h0v0h0a34.49,34.49,0,0,0-2.94,4.81c0-.31,0-.68,0-1.09,0-1-.11-.54-.23-.54s-.18-.48-.18.54a9.85,9.85,0,0,0,.11,1.62,6.79,6.79,0,0,0-1-.85c-.72-.49-.43-.13-.49,0s-.43,0,.29.46a6.1,6.1,0,0,0,1.15.64c-1.05,2.47-1,4.24.88,4.3,2.2.08,4.75,4,6.12,6.41-1.37,1.17-5.42,1.45-6.28,1.5h-.17a23.89,23.89,0,0,0,.34,2.66,14,14,0,0,0,.39,1.6c-1.72.39-2.74.86-2.74,1.39,0,1.1,4.49,2,10.47,2.23a57.29,57.29,0,0,0,7.9.54,2.53,2.53,0,0,0,.45,0h.06a1.7,1.7,0,0,0,.36-.06l.07,0,.3-.1,0,0,.24-.13h0l.19-.17,0,0a1.07,1.07,0,0,0,.14-.19l0,0C1450.93,534.45,1453.43,533.73,1453.43,532.91Z"/><path class="cls-17" d="M1230.24,536.19s.65,3.8-.11,6.23A23.85,23.85,0,0,0,1230,552c.54,1.87,2.41,4.38-2.62,5.54s-8.44.11-8.64-.81-1.31-4.61-.44-6.69,1.2-7.5-.44-10.61-.55-8,1-8.52,8.14-5.49,8.14-5.49-2.45,5.32.18,6.49A5.69,5.69,0,0,1,1230.24,536.19Z"/><path class="cls-18" d="M1285.57,506.69s-10.12,8.78-14.52,11.16-19,11-19,11-14.76,2.38-17.14,6.25-5.71,8.33-5.71,8.33l-2.62-18.15s29-18.75,29.28-20.09,8.57-5.36-15.71-5.21c-21.28.13-29.12,1.86-30.9-1.82a4.86,4.86,0,0,1-.41-1.9c-.24-6.08,28.57-33,28.57-33s1.41.92,3.09,2.15a27.34,27.34,0,0,1,5,4.4c1.9,2.53,6.54,3.27,6.54,3.27l28.33,11s8.33,3.27,8.57,12.5S1285.57,506.69,1285.57,506.69Z"/><path class="cls-8" d="M1288.9,496.57c-.24-9.24-8.57-12.49-8.57-12.49l-28.33-11s-4.64-.75-6.54-3.27a27.34,27.34,0,0,0-5-4.4c-1.68-1.22-3.09-2.15-3.09-2.15s-28.81,26.93-28.57,33a4.86,4.86,0,0,0,.41,1.9c1.78,3.68,9.62,2,30.9,1.82,24.28-.15,15.95,3.87,15.71,5.21s-29.28,20.09-29.28,20.09l.06.41c-1.47,1.09-6.42,4.69-7.72,5.18-1.53.58-2.62,5.42-1,8.52s1.3,8.52.44,10.61.22,5.76.44,6.69,3.61,2,8.64.81,3.17-3.69,2.62-5.54a23.67,23.67,0,0,1,.11-9.57q.08-.25.14-.52c1.18-1.62,3.08-4.34,4.59-6.79,2.38-3.87,17.14-6.25,17.14-6.25s14.64-8.63,19-11,14.52-11.16,14.52-11.16S1289.14,505.79,1288.9,496.57Zm-61.71,35.29c-2-.87-1.09-4.08-.52-5.63l.83,5.78-.31-.15Z"/><path class="cls-19" d="M1248.78,505.72s8.21,39.28,8.87,42.63a65.47,65.47,0,0,1,.65,9.45s3.1-.22,3.51-.81-1.62-12-1.62-12l.59-31.84-8.69-9.15Z"/><rect class="cls-20" x="1227.38" y="526.87" width="6.43" height="6.92"/><path class="cls-17" d="M1232,536.19s.65,3.8-.11,6.23a23.79,23.79,0,0,0-.11,9.57c.54,1.87,2.4,4.38-2.63,5.54s-8.44.11-8.64-.81-1.31-4.61-.44-6.69,1.2-7.5-.44-10.61-.55-8,1-8.52,8.14-5.49,8.14-5.49-2.45,5.32.18,6.49A5.68,5.68,0,0,1,1232,536.19Z"/><path class="cls-17" d="M1238.19,459.75s15.53,5.88,17.38,6.92,8.15,4.69,7.08,9.6-9.82,5.43-9.82,5.43l-13.33-6.18-5.24-13.24Z"/><path class="cls-21" d="M1243.25,391.61s-.77,1.49-1.8,3.77l-.26.58c-2.84,6.31-7.3,17.68-4.45,21.31,4,5.13-9.2-2.9-9.2-2.9l-.32-.73-5.4-12.22a85.08,85.08,0,0,0,6.79-10.05l.12-.23c1.14-2.13,1.91-4.1,1.74-5.35s1.09-1.15,2.88-.37C1237.13,387.08,1243.25,391.61,1243.25,391.61Z"/><path class="cls-8" d="M1243.25,391.61s-.77,1.49-1.8,3.77l-.26.58a8.48,8.48,0,0,1-5.9.78,10.44,10.44,0,0,1-6.54-5.15l-.12-.22.12-.23c1.14-2.13,1.91-4.1,1.74-5.35s1.09-1.15,2.88-.37C1237.13,387.08,1243.25,391.61,1243.25,391.61Z"/><path class="cls-21" d="M1247.62,383.45c0,7.21-4.68,13.06-10.44,13.06h0a8.23,8.23,0,0,1-1.9-.22c-5.67-1.3-9.42-8.11-8.38-15.2s6.49-11.78,12.16-10.48c5,1.14,8.55,6.54,8.55,12.84Z"/><path class="cls-8" d="M1245,374.81a9.5,9.5,0,0,0-1.62,1.22c-1,.71-2.35.69-3.31,1.39-.79.58-.79,1.78-1.14,2.74-.89,2.5-4.12,3.14-5.57,5.27a4.36,4.36,0,0,0-.32.56c-.79,1.67-.32,3.68.29,5.44a49.32,49.32,0,0,0,1.95,4.87l.4.83c.79,1.62,1.71,3.41,1.22,5.16-.79,2.84-4.67,3.5-5.79,6.22-.32.81-.39,1.72-.74,2.51a5.58,5.58,0,0,1-3.15,2.63l-5.4-12.22a83.81,83.81,0,0,0,6.92-10.28c-3.4-5.82-2.39-14,2.26-18.24,4.36-4,10.43-3.16,14,1.91Z"/><path class="cls-22" d="M1248.43,372c-.56-.81-1.45-1.35-1.87-2.25a8.6,8.6,0,0,1-.43-1.73,5.75,5.75,0,0,0-3-3.89,5.21,5.21,0,0,0-4.74.13c-.7.41-1.32.93-2,1.26a6.58,6.58,0,0,1-4.8-.24,14.52,14.52,0,0,0-4.74-1.24,3.73,3.73,0,0,0-3.74,2.73q-.08.69-.1,1.39a7.12,7.12,0,0,1-3.34,4.87c-1.64,1.14-3.48,1.93-5,3.24s-2.7,3.36-2.29,5.39a11.17,11.17,0,0,0,1.72,3.38c1.65,2.75,2.3,6,2.92,9.22a8.89,8.89,0,0,1,.23,3.38c-.38,2-2,3.4-3.12,5.1a12.73,12.73,0,0,0-1.7,7.3,36.07,36.07,0,0,0,1.33,7.5,10.64,10.64,0,0,0,.91,2.6,10,10,0,0,0,3.45,3.2,3.53,3.53,0,0,0,1.91.79c1.44,0,2.27-1.73,2.58-3.22a15.67,15.67,0,0,0,.3-3.78,3.4,3.4,0,0,1,.1-1.35,2.33,2.33,0,0,1,.83-1c2.05-1.54,5.16-1.81,6.22-4.23.35-.81.41-1.7.74-2.51,1.13-2.72,5-3.37,5.79-6.22.49-1.75-.43-3.54-1.22-5.16A47.51,47.51,0,0,1,1233,391c-.6-1.76-1.09-3.77-.3-5.44,1.23-2.59,4.94-3.11,5.9-5.83.34-1,.34-2.17,1.14-2.74,1-.69,2.3-.68,3.31-1.39.65-.47,1.1-1.12,1.9-1.33,1-.27,2.49.77,3.37.22S1248.89,372.7,1248.43,372Z"/><path class="cls-8" d="M1248.31,372c-.56-.81-1.46-1.35-1.87-2.25a9.05,9.05,0,0,1-.43-1.73,5.78,5.78,0,0,0-2.73-3.73,5.94,5.94,0,0,1,1.42,2.69,8.74,8.74,0,0,0,.42,1.73c.41.9,1.3,1.44,1.87,2.25.46.66.65,2-.14,2.43s-2.33-.49-3.37-.22c-.8.21-1.24.86-1.9,1.32-1,.71-2.35.7-3.31,1.4-.79.57-.79,1.78-1.14,2.74-1,2.71-4.68,3.24-5.91,5.83-.79,1.67-.3,3.69.3,5.44a48.37,48.37,0,0,0,2.35,5.68c.79,1.62,1.71,3.41,1.22,5.16-.79,2.84-4.67,3.5-5.8,6.22-.32.81-.39,1.71-.74,2.51-1.07,2.43-4.17,2.69-6.22,4.23a2.33,2.33,0,0,0-.83,1,3.35,3.35,0,0,0-.1,1.35,15.67,15.67,0,0,1-.3,3.78c-.3,1.49-1.15,3.19-2.58,3.22a3.54,3.54,0,0,1-1.91-.79l-.86-.59a17.4,17.4,0,0,0,2.17,1.62,3.53,3.53,0,0,0,1.91.79c1.43,0,2.27-1.73,2.58-3.22a15.67,15.67,0,0,0,.29-3.78,3.4,3.4,0,0,1,.1-1.35,2.32,2.32,0,0,1,.83-1c2.05-1.54,5.16-1.81,6.23-4.23.35-.81.4-1.7.74-2.51,1.13-2.72,5-3.37,5.79-6.22.49-1.75-.43-3.54-1.22-5.16a48.05,48.05,0,0,1-2.35-5.68c-.6-1.76-1.09-3.77-.3-5.44,1.23-2.59,4.94-3.11,5.9-5.83.34-1,.34-2.17,1.14-2.74,1-.69,2.3-.68,3.31-1.39.65-.47,1.1-1.12,1.9-1.33,1-.27,2.49.77,3.37.22S1248.77,372.7,1248.31,372Z"/><path class="cls-23" d="M1362.88,432.07s1.62,8.52,5.19,13l1.43-3.89-1.79-7.09Z"/><path class="cls-8" d="M1367.7,434.11l-4.82-2s1.62,8.52,5.19,13"/><path class="cls-24" d="M1426,452.38l-.05.05a3,3,0,0,1-4.64-.53l-13.63-19.11-.35-.49,7.14-10.27,1.3,1,.29.66c1.12,2.45,5.05,11,6.37,12.43C1424,437.8,1427.81,450.59,1426,452.38Z"/><path class="cls-25" d="M1292.35,507.2s-3.66,4.69-6.16,5.13-4.54,10.49-1.07,11.27,10.18-2.34,11.16-3.68,4.54-9.26,4.54-9.26Z"/><path class="cls-24" d="M1369.07,441.37l-1.78,1.26c-2.74,1.91-7.76,5.33-8.4,5.22-.89-.15-1.07-10.63-1.07-10.63l4.75-4.38.49-.46,1.43-.67Z"/><path class="cls-8" d="M1369.07,441.37l-1.78,1.26a14.47,14.47,0,0,0-4.72-9.8l.49-.46,1.43-.67Z"/><path class="cls-26" d="M1379.13,429.17l-5.54,12.33-3.83,2.47-1.7,1.1c.48-9.3-5.19-13-5.19-13,1.55-.41,11.11-11.11,12.51-12.68l.17-.19,1.3-.22Z"/><path class="cls-27" d="M1396.57,495.75l-4.7-4.46,15.35-63.68,5.42,2.53-4.11,10.12L1404,471.8S1401.33,494.27,1396.57,495.75Z"/><path class="cls-24" d="M1414.84,420.69l-16.19-.15s-14.17,4.91-13-2.23c.74-4.46-1-10-2.46-13.58-.17-.43-.32-.84-.5-1.22-.62-1.44-1.09-2.32-1.09-2.32s1.68-.35,3.81-.72c1-.18,2.07-.36,3.12-.52h0l1.6-.22c2.08-.26,3.72-.32,3.72.12a11.35,11.35,0,0,0,.85,2.84c.08.21.18.44.27.66a30.62,30.62,0,0,0,2.56,4.91,10.78,10.78,0,0,0,1.8,2.17,5.74,5.74,0,0,0,.76.56,3.93,3.93,0,0,0,1.26.51c1.81.38,3.47-.6,5.84.28C1410.43,412.95,1414.84,420.69,1414.84,420.69Z"/><path class="cls-27" d="M1329.3,470.53s-13.63,9.37-14.46,13.09,2,6.7,2,6.7.48,3.2.65,5.58,2.38,25.52,3.39,27.45.18,9.23.18,9.23h3.29l-.24-11.16s-3.69-32.81-.6-36.16,5.66-7.14,6.55-6.85S1329.3,470.53,1329.3,470.53Z"/><path class="cls-28" d="M1312.53,457.22s-8.93,21.31-9.11,24.21-7.77,15.18-7.77,15.18l9.46,15s1.25-3.79,3.39-5.13,1.69-4.35,1.69-4.35,2.23,0,3.84-3.35,3.57-6.7,3.57-8.14S1329.4,474,1329.4,474l-.89-16.18-2.41-5.13Z"/><path class="cls-8" d="M1289.32,458.44l-.08.09c-1.08,1.22-13.23,14.66-13.23,15s-4.37,9.37,1.07,17.18S1295,511.34,1295,511.34s5.44,4.91,6.16,5.92,11.52,0,5.09-9.15-12.5-19.42-12.5-19.42,10.71-3.24,11.43-5.47-14.11-30.13-14.11-30.13Z"/><path class="cls-28" d="M1289,458.44l-.08.09c-1.08,1.22-13.23,14.66-13.23,15s-4.37,9.36,1.08,17.18,17.95,20.64,17.95,20.64,5.44,4.91,6.16,5.92,11.52,0,5.09-9.15-12.5-19.42-12.5-19.42,10.71-3.24,11.42-5.47,14.82-29.57,14.82-29.57l-28.93-.56Z"/><path class="cls-29" d="M1319.85,398.4l-1.07,12.17s-11,5.47-11.25,5.36-7.32-8-6.16-13.28a58.47,58.47,0,0,0,1-9.26c.12-3,.1-5.25.1-5.25s16-7.14,14.55-2.23a11.64,11.64,0,0,0,.22,5.92A30.72,30.72,0,0,0,1319.85,398.4Z"/><path class="cls-20" d="M1222.18,373.07l0,.07a74.44,74.44,0,0,0-3,10.38l-.1.47a31.51,31.51,0,0,0-.67,7.3c.22,5.32,2.38,6.55,2.38,6.55s-32.67-6.69-27.32-7.81a6.06,6.06,0,0,0,2.78-1.84,40.6,40.6,0,0,0,5.55-8c.65-1.15,1.28-2.32,1.85-3.44l.12-.22c2.13-4.16,3.63-7.67,3.63-7.67S1229.86,351.87,1222.18,373.07Z"/><path class="cls-19" d="M1384.07,503.55s8.21,39.28,8.87,42.63a65.47,65.47,0,0,1,.65,9.45s3.09-.22,3.51-.81-1.62-12-1.62-12l.59-31.84-8.69-9.15Z"/><path class="cls-27" d="M1388.89,491.07l8.22.22.59,7.07s-.24,13.38.36,15.41,5.89,38.39,5.89,38.39,1.67,12.8,1.55,15.92l-3.87,1s.77-2.75-.36-7.88-3.33-14.73-3.33-14.73l-2.8-15.78s-.48-28-17.68-26.77-18.15,16.63-18.15,16.63-5.84,30.13-6.85,33.85-1.55,12.87-1.55,12.87l-3.93-.45,1.3-24.33,3.63-50.07,11.19-1Z"/><path class="cls-19" d="M1215.49,510s-8.21,39.28-8.87,42.63a65.47,65.47,0,0,0-.65,9.45s-3.1-.22-3.51-.81,1.59-12,1.59-12l-.59-31.84,8.71-9.15Z"/><path class="cls-27" d="M1210.67,497.54l-8.21.22-.6,7.07s.24,13.38-.36,15.41-5.88,38.38-5.88,38.38-1.66,12.8-1.55,15.92l3.87,1s-.78-2.75.36-7.88,3.33-14.73,3.33-14.73l2.8-15.77s.48-28,17.68-26.77,18.14,16.65,18.14,16.65,5.84,30.13,6.84,33.85,1.55,12.87,1.55,12.87l3.93-.45-1.3-24.33-3.64-50.07-11.19-1Z"/><path class="cls-8" d="M1317.22,391.82l-.3.41c-3.86,5.12-10.23,5.62-14.58,1.16.12-3,.1-5.25.1-5.25s16-7.14,14.55-2.23A11.66,11.66,0,0,0,1317.22,391.82Z"/><path class="cls-29" d="M1319.85,382.59c0,7.39-4.79,13.38-10.71,13.38s-10.71-6-10.71-13.38,4.79-13.38,10.71-13.38h0c5.88,0,10.67,5.89,10.71,13.24Q1319.85,382.52,1319.85,382.59Z"/><path class="cls-18" d="M1287.35,506.69s-10.12,8.78-14.52,11.16-19,11-19,11-14.76,2.38-17.14,6.25-5.71,8.33-5.71,8.33l-2.62-18.15s29-18.75,29.28-20.09,8.57-5.36-15.71-5.21c-21.28.13-29.12,1.86-30.9-1.82a4.86,4.86,0,0,1-.41-1.9c-.24-6.08,28.57-33,28.57-33s1.41.92,3.09,2.15a27.34,27.34,0,0,1,5,4.4c1.9,2.53,6.55,3.27,6.55,3.27l28.33,11s8.34,3.24,8.58,12.49S1287.35,506.69,1287.35,506.69Z"/><path class="cls-8" d="M1306.64,411s-4.2-11.62-5.63-11.62-3.66,60.13-3.66,60.13l21.87.43.9-31.57-4.46-28S1311.64,411.46,1306.64,411Z"/><path class="cls-8" d="M1306.64,411.93s-4.2-11.62-5.63-11.62-3.66,60.13-3.66,60.13l24.81.47-2.05-31.61-4.46-28S1311.64,412.36,1306.64,411.93Z"/><path class="cls-25" d="M1306.64,411.49s-4.2-11.62-5.63-11.62-3.66,60.13-3.66,60.13l24.81.46-2.05-31.61-4.46-28S1311.64,411.89,1306.64,411.49Z"/><path class="cls-8" d="M1302.56,396.21s-.75-1.37-1.82-.92-1.88-.78-2.95.45-5.36,2.9-6.16,2.34-3.66,1.9-4.29,3.35-2.68,5.36-2.68,5.36-1.78,2.68-1.52,4.13a4,4,0,0,1-1.7,3.79c-1.07.67-3.21,7.37-3.21,7.37s-2.32,6.14-4.73,7.71-.63,8.37-.63,8.37l14.28-.56,3.22-9.15s-1.25,26.77-2.77,29.24a11.1,11.1,0,0,0-1.7,4s5.89,1.56,7.14,2.9,4.54-.34,4.54-.34l3.21-35.6a83.07,83.07,0,0,0,1.16-10.14C1302,415.07,1302.56,396.21,1302.56,396.21Z"/><path class="cls-30" d="M1302.21,396.21s-.75-1.37-1.82-.92-1.88-.78-2.95.45-5.36,2.9-6.16,2.34-3.66,1.9-4.29,3.35-2.68,5.36-2.68,5.36-1.78,2.68-1.52,4.13a4,4,0,0,1-1.7,3.79c-1.07.67-3.21,7.37-3.21,7.37s-2.32,6.14-4.73,7.71-.63,8.36-.63,8.36l14.28-.56,3.24-9.15s-1.25,26.77-2.77,29.24a11.1,11.1,0,0,0-1.7,4s5.89,1.56,7.14,2.9,4.54-.34,4.54-.34l3.21-35.6a83.07,83.07,0,0,0,1.16-10.14C1301.63,415.06,1302.21,396.21,1302.21,396.21Z"/><path class="cls-8" d="M1282.53,415.59s1.07,3.68,4,3.35S1282.53,415.59,1282.53,415.59Z"/><path class="cls-8" d="M1285.39,410a4,4,0,0,1,2.68,2.56C1288.78,414.69,1285.39,410,1285.39,410Z"/><path class="cls-8" d="M1290.92,406.21c0,.45,1.25,8.26,0,11.49a19.86,19.86,0,0,0-1.07,7Z"/><path class="cls-8" d="M1317.27,393.52s.7-1,1.41-.92,1.16.67,2.05,1.12,3,.56,3,.89,1.88,1.68,3.12,2,5.19,3.68,6.16,10.14,2.67,8.36,2.67,8.36l-9.46,5.8s7.32,38.84,8.22,41.65,1,19.31,1,19.31-5.8,3.24-7.32,4.24-.89-9.6-4-15.74-6.7-15.06-6.7-15.06L1312,436.23s-3.48-25.45-.54-30.13S1317.54,395.19,1317.27,393.52Z"/><path class="cls-30" d="M1317.62,393.52s.7-1,1.41-.92,1.16.67,2.05,1.12,3,.56,3,.89,1.88,1.68,3.12,2,5.19,3.68,6.16,10.14,2.68,8.36,2.68,8.36l-9.46,5.8s7.32,38.84,8.22,41.65,1,19.31,1,19.31-5.8,3.24-7.32,4.24-.89-9.6-4-15.74-6.7-15.06-6.7-15.06l-5.44-19.11s-3.49-25.44-.54-30.12S1317.9,395.19,1317.62,393.52Z"/><path class="cls-8" d="M1337,442.37c-.26.05-.6.1-1,.15-2.86.33-8.47.41-8.47.41s-4.2-10.38-7.76-10c0,0,3.3-4.68,4.64-4.13.23.09.37-.11.43-.51.36-2-.88-8.86-.88-8.86l-1.7-9.26,9.82,3a24.28,24.28,0,0,1,3.66,2s.09,4.8.8,5.92,1.52,6.47,1.43,7.81,1,7.59-.09,9.26S1339.22,441.93,1337,442.37Z"/><path class="cls-30" d="M1337.35,442.37c-.26.05-.6.1-1,.15-2.86.33-8.47.41-8.47.41s-4.2-10.38-7.76-10c0,0,3.3-4.68,4.64-4.13.23.09.37-.11.43-.51.36-2-.88-8.86-.88-8.86l-1.7-9.26,9.82,3a24.28,24.28,0,0,1,3.66,2s.09,4.8.8,5.92,1.52,6.47,1.43,7.81,1,7.59-.09,9.26S1339.58,441.93,1337.35,442.37Z"/><path class="cls-8" d="M1327.26,418s8.21,1.12,8.57,3.68S1327.26,418,1327.26,418Z"/><path class="cls-25" d="M1300.3,515.47a18.85,18.85,0,0,0,.09,6,26.91,26.91,0,0,1,.09,9.26c-.45,1.78-1.95,4.24,2.14,5.36s6.87.11,7.05-.78,1.07-4.46.36-6.49-1-7.25.36-10.27.45-7.71-.8-8.26-3.39-1.78-3.39-1.78,2.32,5.24.18,6.36S1300.3,515.47,1300.3,515.47Z"/><path class="cls-8" d="M1319.85,382.59a15.26,15.26,0,0,1-2.92,9.19l0-.06a7,7,0,0,1-.6-2.66,26.35,26.35,0,0,1,.71-3.24,10.39,10.39,0,0,0-.52-4.18c-.27-1-.78-2.19-1.61-2.07a1.48,1.48,0,0,1-.49.07c-.44-.09-.53-.81-.58-1.36-.28-2.68-1.91-4.82-4-5.29a1,1,0,0,0-.7.06c-.31.17-.48.6-.76.84-.91.79-2.06-.72-3.16-.6-.93.1-1.51,1.3-1.89,2.37s-.87,2.29-1.78,2.54a.46.46,0,0,1-.43-.06c-.29-.26-.09-.81.06-1.22a3,3,0,0,0-.32-2.66c3.68-5.78,10.42-6.73,15-2.13a14.85,14.85,0,0,1,4,10.49Z"/><path class="cls-31" d="M1301.1,376.45c-.14.41-.34,1-.05,1.22a.46.46,0,0,0,.43.06c.91-.25,1.4-1.47,1.78-2.54s1-2.27,1.89-2.37c1.1-.11,2.26,1.39,3.16.6.28-.24.45-.66.76-.84a1,1,0,0,1,.7-.06c2.13.47,3.76,2.62,4,5.29,0,.55.14,1.28.58,1.36a1.48,1.48,0,0,0,.49-.07c.83-.12,1.34,1.08,1.6,2.07a10.4,10.4,0,0,1,.52,4.19,27,27,0,0,0-.71,3.24,7.32,7.32,0,0,0,.6,2.66c.31.85.81,1.83,1.54,1.72s.94-.9,1.23-1.57.81-1.39,1.4-1.18c.26.1.54.37.77.21a.75.75,0,0,0,.22-.49c.29-1.56-.12-3.31.48-4.72a8.16,8.16,0,0,1,2.18-2.43,9.2,9.2,0,0,0,1-11l-.13-.2c-.82-1.22-2-2.27-2.07-3.85-.05-1.22.6-2.32.61-3.52a4.58,4.58,0,0,0-1.3-3,7.19,7.19,0,0,0-7.46-2.45,4.72,4.72,0,0,1-2.09.41,6.66,6.66,0,0,1-2.24-1.28c-2.54-1.48-5.55-.45-7.14,2.43-.85,1.62-1.18,3.79-2.44,4.94-.83.76-2,1-2.48,2.19a4.81,4.81,0,0,0-.11,2.27,5.82,5.82,0,0,0,1.36,3.24C1301,374,1301.62,375,1301.1,376.45Z"/><polygon class="cls-32" points="1290.74 545.82 1290.66 567.58 1287.44 567.25 1275.75 448.4 1279.2 448.27 1281.64 448.18 1290.74 545.82"/><polygon class="cls-33" points="1290.66 567.58 1287.44 567.25 1275.75 448.4 1279.2 448.27 1279.05 448.95 1290.66 567.58"/><polygon class="cls-32" points="1306.37 448.62 1294.58 566.47 1292.38 567.09 1290.66 567.58 1290.74 545.82 1301.1 449.07 1301.31 449.05 1306.37 448.62"/><polygon class="cls-33" points="1292.35 567.03 1292.38 567.09 1290.66 567.58 1290.74 545.82 1301.1 449.07 1301.31 449.05 1303.42 449.62 1292.35 567.03"/><polygon class="cls-33" points="1333.33 521.16 1333.06 528.88 1332.35 549.5 1321.28 448.51 1323.81 448.16 1324.58 448.06 1333.33 521.16"/><polygon class="cls-32" points="1333.33 521.16 1333.06 528.88 1323.96 449.07 1323.81 448.16 1324.58 448.06 1333.33 521.16"/><polygon class="cls-33" points="1336.37 484.89 1336.63 534.1 1335.14 534.03 1331.99 533.88 1333.24 447.73 1335.64 448.1 1336.81 448.29 1336.37 484.89"/><polygon class="cls-32" points="1336.37 484.89 1336.63 534.1 1335.14 534.03 1335.64 448.1 1336.81 448.29 1336.37 484.89"/><polygon class="cls-33" points="1234.14 447.39 1234.32 444.05 1249.68 444.16 1295.84 443.26 1331.45 445.72 1354.13 446.28 1354.4 449.4 1296.1 450.74 1234.14 447.39"/><polygon class="cls-32" points="1234.32 444.05 1279.85 446.5 1354.13 446.28 1298.6 442.04 1234.32 444.05"/><path class="cls-8" d="M1222.18,373.07l0,.07a74.44,74.44,0,0,0-3,10.38l-.1.47a11.15,11.15,0,0,1-3.83.68c-3.45,0-5-4.52-7.41-7.14-.95-1-3.38.72-4.07-.6a2.23,2.23,0,0,1-.12-.22l.12-.22c2.13-4.16,3.63-7.67,3.63-7.67S1229.86,351.87,1222.18,373.07Z"/><path class="cls-20" d="M1229,367c0,9.49-6.15,17.18-13.75,17.18s-13.75-7.69-13.75-17.18,6.15-17.18,13.75-17.18c5.22,0,10,3.7,12.32,9.55A20.81,20.81,0,0,1,1229,367Z"/><path class="cls-8" d="M1220.75,397.84s-32.67-6.69-27.32-7.81a6.06,6.06,0,0,0,2.78-1.84,3.15,3.15,0,0,1,.43.95l6.07-.89s7.74-2.08,10.83.3a22.41,22.41,0,0,0,4.82,2.75C1218.59,396.61,1220.75,397.84,1220.75,397.84Z"/><path class="cls-8" d="M1242.23,465.39a1.74,1.74,0,0,1-.59.38c-1.55.6-3.46,9.52-3.46,9.52s-19.83,23.8-27.21,22.88a4.86,4.86,0,0,1-.41-1.9c-.24-6.08,28.57-33,28.57-33S1240.55,464.16,1242.23,465.39Z"/><path class="cls-34" d="M1294.42,440.34c0,2.26-3.16,4.52-7.06,4.52s-7-2.26-7-4.52,3.16-3.65,7.06-3.65S1294.42,438.09,1294.42,440.34Z"/><path class="cls-8" d="M1294.42,440.34c0,2.26-3.16,4.52-7.06,4.52s-7-2.26-7-4.52,3.16-3.65,7.06-3.65S1294.42,438.09,1294.42,440.34Z"/><ellipse class="cls-34" cx="1287.36" cy="440.34" rx="7.06" ry="4.09"/><ellipse class="cls-35" cx="1287.38" cy="440.5" rx="4.21" ry="2.12"/><path class="cls-36" d="M1297.13,435.57c-.14-1.11-1.31-1.84-2.82-1.88a5.08,5.08,0,0,0-1.19.11c-2,.41-3.53,1.87-3.35,3.24.14,1.1,1.3,1.83,2.77,1.88a5.22,5.22,0,0,0,1.24-.1C1295.81,438.42,1297.31,437,1297.13,435.57Zm-3.45,2.54a3.59,3.59,0,0,1-.65.07c-1.17,0-2.12-.5-2.23-1.35-.13-1,1-2,2.41-2.34a3.72,3.72,0,0,1,1-.06c1,.09,1.73.59,1.82,1.34C1296.21,436.78,1295.14,437.83,1293.68,438.12Z"/><path class="cls-36" d="M1290.75,440.14a1.09,1.09,0,0,1-.17.58,3.75,3.75,0,0,1-3.14,1.25,4,4,0,0,1-3-1.1,1.18,1.18,0,0,1-.27-.73c0-1,1.49-1.83,3.32-1.83S1290.75,439.12,1290.75,440.14Z"/><path class="cls-8" d="M1290.75,440.14a1.09,1.09,0,0,1-.17.58,5.34,5.34,0,0,1-2.82.81H1287a5.34,5.34,0,0,1-2.57-.67,1.18,1.18,0,0,1-.27-.73c0-1,1.49-1.83,3.32-1.83S1290.75,439.12,1290.75,440.14Z"/><path class="cls-8" d="M1294.31,433.69a7.21,7.21,0,0,1,0,.75,3.72,3.72,0,0,0-1,.06c-1.46.3-2.53,1.34-2.41,2.34.11.85,1.05,1.39,2.23,1.35a8.27,8.27,0,0,1-.5.74c-1.48-.05-2.63-.78-2.77-1.88-.18-1.39,1.32-2.84,3.35-3.24A5.08,5.08,0,0,1,1294.31,433.69Z"/><path class="cls-36" d="M1280.55,432.24v1.14c0,4.43,2.87,8,6.41,8h.81c3.53,0,6.4-3.6,6.4-8v-1.14Z"/><ellipse class="cls-37" cx="1287.33" cy="431.99" rx="6.84" ry="2.43"/><ellipse class="cls-8" cx="1287.36" cy="431.84" rx="6.49" ry="2.2"/><ellipse class="cls-38" cx="1287.38" cy="431.76" rx="6.34" ry="2.2"/><path class="cls-39" d="M1282.75,432.34a.23.23,0,1,1,.18-.22h0A.2.2,0,0,1,1282.75,432.34Zm0-.36a.15.15,0,1,0,.11.14.13.13,0,0,0-.11-.14Z"/><path class="cls-39" d="M1283,431.88a.2.2,0,0,1-.18-.22.21.21,0,0,1,.18-.23.2.2,0,0,1,.18.22h0A.21.21,0,0,1,1283,431.88Zm0-.37a.13.13,0,0,0-.12.14.13.13,0,0,0,.11.15.13.13,0,0,0,.12-.14h0A.13.13,0,0,0,1283,431.51Z"/><path class="cls-39" d="M1282.75,431.17a.23.23,0,1,1,.18-.22h0A.2.2,0,0,1,1282.75,431.17Zm0-.37a.15.15,0,1,0,.11.14h0A.13.13,0,0,0,1282.75,430.8Z"/><path class="cls-39" d="M1284.06,432.82a.2.2,0,0,1-.18-.22.21.21,0,0,1,.18-.23.2.2,0,0,1,.18.22h0A.21.21,0,0,1,1284.06,432.82Zm0-.37a.12.12,0,0,0-.11.13h0a.14.14,0,0,0,.09.16.12.12,0,0,0,.13-.12.18.18,0,0,0,0,0,.13.13,0,0,0-.11-.14Z"/><path class="cls-39" d="M1289.31,432.38a.23.23,0,1,1,.18-.22A.2.2,0,0,1,1289.31,432.38Zm0-.37a.15.15,0,0,0,0,.28h0a.15.15,0,0,0,0-.28Z"/><path class="cls-39" d="M1290.48,433a.23.23,0,1,1,.18-.22h0A.2.2,0,0,1,1290.48,433Zm0-.37a.15.15,0,1,0,.11.14.14.14,0,0,0-.1-.16h0Z"/><path class="cls-39" d="M1290.52,432a.23.23,0,1,1,.18-.22h0A.2.2,0,0,1,1290.52,432Zm0-.37a.15.15,0,1,0,.11.14h0A.13.13,0,0,0,1290.52,431.65Z"/><path class="cls-39" d="M1291.07,430.52a.23.23,0,1,1,.18-.22h0a.2.2,0,0,1-.17.22Zm0-.37a.13.13,0,0,0-.11.14.14.14,0,0,0,.09.16.12.12,0,0,0,.13-.12.18.18,0,0,0,0,0,.13.13,0,0,0-.11-.15h0Z"/><path class="cls-39" d="M1290.8,432.58a.23.23,0,1,1,.18-.22h0A.2.2,0,0,1,1290.8,432.58Zm0-.36a.15.15,0,1,0,.11.14h0a.14.14,0,0,0-.1-.15h0Z"/><path class="cls-39" d="M1291.45,432.12a.2.2,0,0,1-.18-.22.21.21,0,0,1,.18-.23.2.2,0,0,1,.18.22h0A.21.21,0,0,1,1291.45,432.12Zm0-.37a.13.13,0,0,0-.12.14.13.13,0,0,0,.11.15.13.13,0,0,0,.12-.14h0a.13.13,0,0,0-.11-.13Z"/><path class="cls-39" d="M1291.38,432.65a.2.2,0,0,1-.18-.22.21.21,0,0,1,.18-.23.2.2,0,0,1,.18.22h0a.2.2,0,0,1-.17.22Zm0-.36a.12.12,0,0,0-.13.12.14.14,0,0,0,.09.16h0a.12.12,0,0,0,.13-.12.14.14,0,0,0-.09-.16Z"/><path class="cls-39" d="M1291.18,431.31a.23.23,0,1,1,.18-.22h0A.2.2,0,0,1,1291.18,431.31Zm0-.37a.15.15,0,1,0,.11.14h0a.13.13,0,0,0-.11-.13Z"/><path class="cls-39" d="M1292.16,431a.23.23,0,1,1,.18-.22h0A.2.2,0,0,1,1292.16,431Zm0-.37a.15.15,0,1,0,.11.14h0a.13.13,0,0,0-.11-.14h0Z"/><path class="cls-39" d="M1289.31,430.49a.23.23,0,1,1,.18-.22A.2.2,0,0,1,1289.31,430.49Zm0-.37a.15.15,0,0,0,0,.28h0a.15.15,0,0,0,0-.28Z"/><path class="cls-39" d="M1288.63,430.14a.23.23,0,1,1,.18-.22h0A.2.2,0,0,1,1288.63,430.14Zm0-.36a.15.15,0,1,0,.11.14h0a.14.14,0,0,0-.1-.16h0Z"/><path class="cls-39" d="M1287.15,430.27a.2.2,0,0,1-.18-.22.21.21,0,0,1,.18-.23.2.2,0,0,1,.18.22h0A.21.21,0,0,1,1287.15,430.27Zm0-.37a.13.13,0,0,0-.12.14.13.13,0,0,0,.11.15.13.13,0,0,0,.12-.14h0A.13.13,0,0,0,1287.15,429.9Z"/><path class="cls-39" d="M1288.42,432.46a.2.2,0,0,1-.18-.22.21.21,0,0,1,.18-.23.2.2,0,0,1,.18.22h0A.21.21,0,0,1,1288.42,432.46Zm0-.37a.15.15,0,1,0,.11.14A.13.13,0,0,0,1288.42,432.09Z"/><path class="cls-39" d="M1283.6,432.68a.23.23,0,1,1,.18-.22h0A.2.2,0,0,1,1283.6,432.68Zm0-.37a.15.15,0,1,0,.11.14h0A.13.13,0,0,0,1283.6,432.31Z"/><path class="cls-39" d="M1284.35,432.17a.23.23,0,1,1,.18-.22h0A.2.2,0,0,1,1284.35,432.17Zm0-.37a.15.15,0,1,0,.11.14h0a.14.14,0,0,0-.1-.15h0Z"/><path class="cls-39" d="M1285,432.42a.23.23,0,1,1,.18-.22h0A.2.2,0,0,1,1285,432.42Zm0-.36a.15.15,0,1,0,.11.14.13.13,0,0,0-.11-.14h0Z"/><path class="cls-39" d="M1285.1,431.87a.23.23,0,1,1,.18-.22h0A.2.2,0,0,1,1285.1,431.87Zm0-.36a.15.15,0,1,0,.11.14.13.13,0,0,0-.11-.14Z"/><path class="cls-39" d="M1285.1,431.36a.23.23,0,1,1,.18-.22h0A.2.2,0,0,1,1285.1,431.36Zm0-.36a.15.15,0,1,0,.11.14h0a.13.13,0,0,0-.11-.13Z"/><path class="cls-39" d="M1285.28,433.14a.23.23,0,1,1,.18-.22h0A.2.2,0,0,1,1285.28,433.14Zm0-.37a.15.15,0,1,0,.11.14h0A.13.13,0,0,0,1285.28,432.77Z"/><path class="cls-39" d="M1287.05,433.19a.2.2,0,0,1-.18-.22.21.21,0,0,1,.18-.23.2.2,0,0,1,.18.22h0A.21.21,0,0,1,1287.05,433.19Zm0-.37a.13.13,0,0,0-.12.14.13.13,0,0,0,.11.15.13.13,0,0,0,.12-.14h0a.13.13,0,0,0-.11-.14Z"/><path class="cls-39" d="M1286.83,432.65a.23.23,0,1,1,.18-.22h0A.2.2,0,0,1,1286.83,432.65Zm0-.36a.15.15,0,1,0,.11.14h0A.13.13,0,0,0,1286.83,432.29Z"/><path class="cls-39" d="M1285.94,432.38a.2.2,0,0,1-.18-.22.21.21,0,0,1,.18-.23.2.2,0,0,1,.18.22h0A.21.21,0,0,1,1285.94,432.38Zm0-.37a.15.15,0,1,0,.11.14A.13.13,0,0,0,1285.94,432Z"/><path class="cls-39" d="M1287.84,431.51a.23.23,0,1,1,.18-.22h0A.2.2,0,0,1,1287.84,431.51Zm0-.37a.15.15,0,1,0,.11.14h0A.13.13,0,0,0,1287.84,431.14Z"/><path class="cls-39" d="M1287,432.12a.23.23,0,1,1,.18-.22h0A.2.2,0,0,1,1287,432.12Zm0-.37a.15.15,0,1,0,.11.14h0a.13.13,0,0,0-.11-.13Z"/><path class="cls-39" d="M1288,430.87a.23.23,0,1,1,.18-.22h0A.2.2,0,0,1,1288,430.87Zm0-.37a.15.15,0,1,0,.11.14h0A.13.13,0,0,0,1288,430.5Z"/><path class="cls-39" d="M1287.91,430.26a.23.23,0,1,1,.18-.22h0A.2.2,0,0,1,1287.91,430.26Zm0-.37a.15.15,0,1,0,.11.14h0A.13.13,0,0,0,1287.91,429.9Z"/><path class="cls-39" d="M1287.53,430.88a.23.23,0,1,1,.18-.22h0A.2.2,0,0,1,1287.53,430.88Zm0-.37a.15.15,0,1,0,.11.14h0A.13.13,0,0,0,1287.53,430.52Z"/><path class="cls-39" d="M1286.62,431.93a.23.23,0,1,1,.18-.22h0a.2.2,0,0,1-.18.22Zm0-.36a.12.12,0,0,0-.13.12.14.14,0,0,0,.09.16h0a.12.12,0,0,0,.13-.12.14.14,0,0,0-.09-.16Z"/><path class="cls-39" d="M1285.94,431.77a.2.2,0,0,1-.18-.22.21.21,0,0,1,.18-.23.2.2,0,0,1,.18.22h0a.2.2,0,0,1-.17.22Zm0-.36a.12.12,0,0,0-.13.12.14.14,0,0,0,.09.16h0a.12.12,0,0,0,.13-.12.14.14,0,0,0-.09-.16Z"/><path class="cls-39" d="M1286.83,430.72a.23.23,0,1,1,.18-.22h0A.2.2,0,0,1,1286.83,430.72Zm0-.37a.15.15,0,1,0,.11.14h0A.13.13,0,0,0,1286.83,430.36Z"/><path class="cls-39" d="M1285.52,431a.15.15,0,1,1,.11-.14h0A.13.13,0,0,1,1285.52,431Zm0-.23a.09.09,0,1,0,.07.09A.08.08,0,0,0,1285.52,430.72Z"/><path class="cls-39" d="M1285.86,431.23a.15.15,0,1,1,.11-.14h0A.13.13,0,0,1,1285.86,431.23Zm0-.23a.09.09,0,1,0,.07.09.08.08,0,0,0-.07-.09Z"/><path class="cls-39" d="M1287.55,430.09a.15.15,0,1,1,.11-.14h0A.13.13,0,0,1,1287.55,430.09Zm0-.23a.09.09,0,1,0,.07.09h0A.08.08,0,0,0,1287.55,429.86Z"/><path class="cls-39" d="M1287.8,432.46a.15.15,0,1,1,.11-.14h0A.13.13,0,0,1,1287.8,432.46Zm0-.23a.09.09,0,1,0,.07.09A.08.08,0,0,0,1287.8,432.23Z"/><path class="cls-39" d="M1288.1,432.63a.15.15,0,1,1,.11-.14h0A.13.13,0,0,1,1288.1,432.63Zm0-.23a.09.09,0,1,0,.07.09h0a.08.08,0,0,0-.07-.09Z"/><path class="cls-39" d="M1287.73,432.07a.15.15,0,1,1,.11-.14h0a.13.13,0,0,1-.11.14Zm0-.23a.09.09,0,1,0,.07.09.08.08,0,0,0-.07-.09Z"/><path class="cls-39" d="M1289.95,430.75a.15.15,0,1,1,.11-.14h0A.13.13,0,0,1,1289.95,430.75Zm0-.23a.08.08,0,0,0-.07.09h0a.07.07,0,1,0,.14,0h0a.08.08,0,0,0-.07-.09Z"/><path class="cls-39" d="M1290.09,431.11a.13.13,0,0,1-.12-.14.13.13,0,0,1,.11-.15.13.13,0,0,1,.12.14h0A.13.13,0,0,1,1290.09,431.11Zm0-.23a.09.09,0,1,0,.07.09.08.08,0,0,0-.07-.09Z"/><path class="cls-39" d="M1290,431.45a.13.13,0,0,1-.11-.14.13.13,0,0,1,.11-.14h0a.15.15,0,0,1,0,.28Zm0-.23a.08.08,0,0,0-.07.08h0a.07.07,0,1,0,.07-.09Z"/><path class="cls-39" d="M1289.68,432.48a.15.15,0,1,1,.11-.14h0A.13.13,0,0,1,1289.68,432.48Zm0-.23a.08.08,0,0,0-.07.09h0a.07.07,0,1,0,.14,0h0a.08.08,0,0,0-.07-.09h0Z"/><path class="cls-39" d="M1291.47,431.51a.15.15,0,1,1,.11-.14.13.13,0,0,1-.11.14Zm0-.23a.09.09,0,1,0,.07.09h0a.08.08,0,0,0-.07-.09Z"/><path class="cls-39" d="M1288.81,432.37a.15.15,0,1,1,.11-.14h0A.13.13,0,0,1,1288.81,432.37Zm0-.23a.09.09,0,1,0,.07.09h0A.08.08,0,0,0,1288.81,432.14Z"/><path class="cls-39" d="M1289.75,431.79a.15.15,0,1,1,.11-.14h0A.13.13,0,0,1,1289.75,431.79Zm0-.23a.09.09,0,1,0,.07.09A.08.08,0,0,0,1289.75,431.56Z"/><path class="cls-39" d="M1289.37,432.77a.15.15,0,1,1,.11-.14h0a.13.13,0,0,1-.11.14Zm0-.23a.09.09,0,1,0,.07.09.08.08,0,0,0-.07-.09Z"/><path class="cls-39" d="M1291.85,431.79a.13.13,0,0,1-.11-.14.14.14,0,0,1,.09-.16.12.12,0,0,1,.13.12.18.18,0,0,1,0,0A.13.13,0,0,1,1291.85,431.79Zm0-.24a.08.08,0,0,0-.09.07.1.1,0,0,0,.06.11h0a.08.08,0,0,0,.07-.09.08.08,0,0,0-.07-.09Z"/><path class="cls-39" d="M1290.41,430.27a.13.13,0,0,1-.12-.14.13.13,0,0,1,.11-.15.13.13,0,0,1,.12.14h0A.13.13,0,0,1,1290.41,430.27Zm0-.23a.09.09,0,1,0,.07.09A.08.08,0,0,0,1290.41,430Z"/><path class="cls-39" d="M1286.58,430.09a.15.15,0,1,1,.11-.14h0A.13.13,0,0,1,1286.58,430.09Zm0-.23a.09.09,0,1,0,.07.09h0A.08.08,0,0,0,1286.58,429.86Z"/><path class="cls-39" d="M1283.35,431.28a.15.15,0,1,1,.11-.14h0a.13.13,0,0,1-.11.14Zm0-.23a.09.09,0,1,0,.07.09h0a.08.08,0,0,0-.07-.09Z"/><path class="cls-39" d="M1286.17,430.27a.15.15,0,1,1,.11-.14h0A.13.13,0,0,1,1286.17,430.27Zm0-.23a.09.09,0,1,0,.07.09A.08.08,0,0,0,1286.17,430Z"/><path class="cls-39" d="M1283.65,431.94a.15.15,0,1,1,.11-.14h0A.13.13,0,0,1,1283.65,431.94Zm0-.23a.09.09,0,0,0,0,.18h0a.09.09,0,0,0,0-.18Z"/><path class="cls-39" d="M1284.06,431.08a.13.13,0,0,1-.12-.14.13.13,0,0,1,.11-.15.13.13,0,0,1,.12.14h0A.13.13,0,0,1,1284.06,431.08Zm0-.23a.09.09,0,1,0,.07.09A.08.08,0,0,0,1284.06,430.85Z"/><path class="cls-39" d="M1282,431.67a.15.15,0,1,1,.11-.14h0A.13.13,0,0,1,1282,431.67Zm0-.23a.09.09,0,1,0,.07.09h0a.08.08,0,0,0-.07-.09Z"/><path class="cls-39" d="M1284.87,432.91a.15.15,0,1,1,.11-.14A.13.13,0,0,1,1284.87,432.91Zm0-.23a.09.09,0,1,0,.07.09A.08.08,0,0,0,1284.87,432.68Z"/><path class="cls-39" d="M1285.69,433a.15.15,0,1,1,.11-.14A.13.13,0,0,1,1285.69,433Zm0-.23a.09.09,0,1,0,.07.09A.08.08,0,0,0,1285.69,432.75Z"/><ellipse class="cls-39" cx="1282.36" cy="432.08" rx="0.09" ry="0.11"/><ellipse class="cls-39" cx="1283.02" cy="430.52" rx="0.09" ry="0.11"/><ellipse class="cls-39" cx="1283.91" cy="431.23" rx="0.09" ry="0.11"/><ellipse class="cls-39" cx="1283.33" cy="430.21" rx="0.09" ry="0.11"/><ellipse class="cls-39" cx="1286.61" cy="430.97" rx="0.09" ry="0.11"/><ellipse class="cls-39" cx="1283.77" cy="430.8" rx="0.09" ry="0.11"/><ellipse class="cls-39" cx="1283.44" cy="430.75" rx="0.09" ry="0.11"/><ellipse class="cls-39" cx="1284.09" cy="431.6" rx="0.09" ry="0.11"/><ellipse class="cls-39" cx="1289.02" cy="430.94" rx="0.09" ry="0.11"/><ellipse class="cls-39" cx="1290.34" cy="431.26" rx="0.09" ry="0.11"/><ellipse class="cls-39" cx="1289.97" cy="432.68" rx="0.09" ry="0.11"/><ellipse class="cls-39" cx="1290.48" cy="432.2" rx="0.09" ry="0.11"/><ellipse class="cls-39" cx="1289" cy="432.79" rx="0.09" ry="0.11"/><ellipse class="cls-39" cx="1288.67" cy="430.93" rx="0.09" ry="0.11"/><ellipse class="cls-39" cx="1287.57" cy="432.54" rx="0.09" ry="0.11"/><ellipse class="cls-39" cx="1289.55" cy="431.31" rx="0.09" ry="0.11"/><ellipse class="cls-39" cx="1288.59" cy="432.9" rx="0.09" ry="0.11"/><ellipse class="cls-39" cx="1284.61" cy="432.68" rx="0.09" ry="0.11"/><ellipse class="cls-39" cx="1290.09" cy="431.68" rx="0.09" ry="0.11"/><ellipse class="cls-39" cx="1292.16" cy="431.49" rx="0.09" ry="0.11"/><ellipse class="cls-39" cx="1291.56" cy="430.83" rx="0.06" ry="0.08"/><ellipse class="cls-39" cx="1289.49" cy="430.66" rx="0.06" ry="0.08"/><ellipse class="cls-39" cx="1285.52" cy="431.68" rx="0.06" ry="0.08"/><ellipse class="cls-39" cx="1290.98" cy="431.45" rx="0.06" ry="0.08"/><ellipse class="cls-39" cx="1289.06" cy="430.53" rx="0.06" ry="0.08"/><ellipse class="cls-39" cx="1290.7" cy="430.92" rx="0.06" ry="0.08"/><ellipse class="cls-39" cx="1289.71" cy="430.09" rx="0.06" ry="0.08"/><ellipse class="cls-39" cx="1289" cy="429.95" rx="0.06" ry="0.08"/><ellipse class="cls-39" cx="1285.75" cy="430.35" rx="0.06" ry="0.08"/><ellipse class="cls-39" cx="1286.47" cy="430.45" rx="0.06" ry="0.08"/><ellipse class="cls-39" cx="1284.66" cy="431.26" rx="0.06" ry="0.08"/><ellipse class="cls-39" cx="1288.3" cy="431.31" rx="0.06" ry="0.08"/><ellipse class="cls-39" cx="1288.72" cy="431.43" rx="0.06" ry="0.08"/><ellipse class="cls-39" cx="1286.32" cy="431.57" rx="0.06" ry="0.08"/><ellipse class="cls-39" cx="1287.38" cy="431.71" rx="0.06" ry="0.08"/><ellipse class="cls-39" cx="1286.24" cy="430.7" rx="0.06" ry="0.08"/><ellipse class="cls-39" cx="1288.63" cy="431.71" rx="0.06" ry="0.08"/><ellipse class="cls-39" cx="1288.27" cy="431.79" rx="0.06" ry="0.08"/><ellipse class="cls-39" cx="1282.75" cy="430.53" rx="0.06" ry="0.08"/><ellipse class="cls-39" cx="1284.94" cy="430.83" rx="0.06" ry="0.08"/><ellipse class="cls-39" cx="1284.18" cy="430.21" rx="0.06" ry="0.08"/><ellipse class="cls-39" cx="1283.88" cy="431.71" rx="0.06" ry="0.08"/><ellipse class="cls-39" cx="1284.24" cy="430.71" rx="0.06" ry="0.08"/><ellipse class="cls-39" cx="1282.16" cy="431.05" rx="0.06" ry="0.08"/><ellipse class="cls-39" cx="1291.16" cy="430.71" rx="0.06" ry="0.08"/><ellipse class="cls-39" cx="1291.91" cy="430.58" rx="0.09" ry="0.11"/><ellipse class="cls-39" cx="1292.53" cy="431.76" rx="0.09" ry="0.11"/><ellipse class="cls-39" cx="1292.07" cy="431.17" rx="0.09" ry="0.11"/><ellipse class="cls-39" cx="1292.27" cy="431.94" rx="0.09" ry="0.11"/><ellipse class="cls-39" cx="1292.53" cy="431.34" rx="0.09" ry="0.11"/><ellipse class="cls-39" cx="1291.82" cy="431.23" rx="0.09" ry="0.11"/><ellipse class="cls-39" cx="1292.82" cy="431.23" rx="0.09" ry="0.11"/><ellipse class="cls-39" cx="1284.46" cy="431" rx="0.09" ry="0.11"/><ellipse class="cls-39" cx="1285.72" cy="429.92" rx="0.09" ry="0.11"/><ellipse class="cls-39" cx="1287.26" cy="432.25" rx="0.09" ry="0.11"/><ellipse class="cls-39" cx="1285.32" cy="429.9" rx="0.09" ry="0.11"/><ellipse class="cls-39" cx="1284.78" cy="429.99" rx="0.09" ry="0.11"/><ellipse class="cls-39" cx="1287.16" cy="430.61" rx="0.09" ry="0.11"/><ellipse class="cls-39" cx="1282.39" cy="431.37" rx="0.09" ry="0.11"/><ellipse class="cls-39" cx="1283.18" cy="432.37" rx="0.09" ry="0.11"/><ellipse class="cls-39" cx="1286.17" cy="432.87" rx="0.09" ry="0.11"/><ellipse class="cls-39" cx="1285.48" cy="432.37" rx="0.09" ry="0.11"/><ellipse class="cls-39" cx="1287.55" cy="432.97" rx="0.09" ry="0.11"/><path class="cls-8" d="M1285.18,430.25s-3.55.21-1.88,1.62,6.47.62,6.47.62,2.65-.84.95-1.82-4.28-.36-4.28-.36-2.94.67-.68,1.27c0,0,2.73.31,2.85-.38s-1.53-.2-1.53-.2.87.24.27.37-1.3-.08-1.3-.3.9-.38,1.16-.37,1.62-.27,2.13.49a.33.33,0,0,1,0,.39l-.06,0a5.62,5.62,0,0,1-3.71.36C1282.93,431.49,1285.18,430.25,1285.18,430.25Z"/><path class="cls-40" d="M1202.72,388.69s7.74-2.08,10.83.3a23,23,0,0,0,6.66,3.43s5.71,1.79,7.62,4.32,3.69.89,4.52,4.17a19.94,19.94,0,0,0,3.33,6.4l-1.19,22.17,1,12.8s.48,5.35-.71,6.55.24,3.12,1.3,4.17,3.81,5.06,3.45,6.55,2.86,3.13,2.86,3.13.12,2.53-1.43,3.12-3.44,9.51-3.44,9.51-20.84,25-27.74,22.76-12-10.27-12-10.27-4.64-26-6-30.21-4.76-17.85-4.76-17.85-1.9-15.77-2.86-18.9-1-19.49,1.9-22.92,5.35-5.37,5.35-6.55,2.74-3.57,3.81-3.42,1.43,1.62,1.43,1.62Z"/><path class="cls-20" d="M1288.3,438.69c-3.34,7.3-16,5.8-16,5.8s-4.4-1.19-7.14.75-15.6,4-15.6,4-4.87-1.34-6.07-3.28c-1-1.68-10.9-9-13.45-10.87l-.51-.37h0l-.08-.06,0,0L1240.11,418l1.73,2.31,8.5,11.36s8.34.45,10.71,2.23,9.88-.6,9.88-.6,3.69,0,3.93-1S1291.64,431.4,1288.3,438.69Z"/><path class="cls-8" d="M1227.54,359.41a3.09,3.09,0,0,0-1.62,1.29c-.63,1.06-.55,2.51-.79,3.8-.4,2.1-1.71,4-1.46,6.13.09.75.35,1.59,0,2.2a1.12,1.12,0,0,1-1.5.31h0c-1.32-.67-2-2.38-3-3.72s-2.63-2.33-3.72-1.18c-.91,1-.75,2.73-.67,4.22s-.25,3.4-1.42,3.65c-.47.11-1-.11-1.43,0-1.48.43-1.36,3.62-2.8,4.2a2.4,2.4,0,0,1-1.57-.16,4.19,4.19,0,0,0-1.33-.15c-1.51,0-3.09.61-4.44.13.7-1.22,1.36-2.47,2-3.65-4.16-7.94-2.39-18.59,4-23.79s14.87-3,19,4.95a18.67,18.67,0,0,1,.81,1.76Z"/><path class="cls-41" d="M1207.54,379.72a2.4,2.4,0,0,0,1.57.15c1.44-.58,1.32-3.77,2.79-4.2.47-.14,1,.08,1.43,0,1.17-.26,1.51-2.17,1.42-3.65s-.25-3.24.67-4.21c1.09-1.14,2.78-.15,3.72,1.18s1.66,3.06,3,3.72a1.13,1.13,0,0,0,1.54-.29c.33-.56.09-1.45,0-2.2-.25-2.14,1.06-4,1.46-6.14.24-1.29.16-2.73.79-3.8,1.32-2.24,4.73-1.11,5.84-3.52a2.49,2.49,0,0,0,1.47-.24,1.43,1.43,0,0,0,.6-1.53,2.2,2.2,0,0,0-.84-1,5.23,5.23,0,0,1-1.65-4.09c0-.77.2-1.53.17-2.3a3,3,0,0,0-2.72-3c-.41,0-.8.16-1.21.17-1.93.07-3.55-2.64-5.42-2.1a4.61,4.61,0,0,1-1.2.39c-.95,0-1.53-1.36-2.44-1.72-.72-.28-1.5.11-2.25,0a5,5,0,0,1-2-1.07c-1.36-.92-3.17-1.33-4.36-.1a4.2,4.2,0,0,1-.85.85,2,2,0,0,1-1.23.09,9.24,9.24,0,0,0-3.67.31,1.32,1.32,0,0,0-.84.55,3.51,3.51,0,0,0-.27,1.07c-.36,1.76-2.1,2.35-3.54,2.5a1.69,1.69,0,0,0-1.07.36,2.34,2.34,0,0,0-.28,2.26,12.37,12.37,0,0,1,.71,2.28c.21,2-1.55,3.58-1.84,5.61-.4,2.79,2.08,5.54,1.23,8.18-.37,1.17-1.37,2.08-1.32,3.33s1,2,1.62,2.95a9.44,9.44,0,0,1,1,3.22c.37,1.83.42,5.35,2.12,6S1205.64,379.17,1207.54,379.72Z"/><path class="cls-8" d="M1208.07,439.58c2,3.27,9.17,11,13.93,12.95S1208.07,439.58,1208.07,439.58Z"/><path class="cls-8" d="M1209.15,456c.83.74,4.64,9.67,8.69,10.42S1209.15,456,1209.15,456Z"/><path class="cls-8" d="M1210.1,448.21c.24.45,9.64,10.71,13.09,11.61s.48-3.57-3.81-5.66A65.25,65.25,0,0,1,1210.1,448.21Z"/><path class="cls-8" d="M1210.1,470.08s6.31,2.84,10.59,2.08S1210.1,470.08,1210.1,470.08Z"/><path class="cls-8" d="M1217.48,487.2s6.19-5.65,9.3-5.95S1217.48,487.2,1217.48,487.2Z"/><path class="cls-8" d="M1189.62,396s15,2.08,10.83,3S1189.62,396,1189.62,396Z"/><path class="cls-8" d="M1189.51,405.66s7.14,0,9.76-1.49S1189.51,405.66,1189.51,405.66Z"/><path class="cls-8" d="M1187.24,424.4c1.3-.45,6.78-14.73,8.93-10.86S1187.24,424.4,1187.24,424.4Z"/><path class="cls-8" d="M1208.91,420.69s1.9,2.23,7.86,4.32S1208.91,420.69,1208.91,420.69Z"/><path class="cls-8" d="M1244.14,471.42s3.33,2.23.83,7S1244.14,471.42,1244.14,471.42Z"/><path class="cls-27" d="M1209.25,490.47l0-.63C1209.36,487.74,1209.25,490.47,1209.25,490.47Z"/><path class="cls-27" d="M1211.52,502.82l-9.52-1.19-1.78-4.46-9.89-67.89-.23-1.59,15.11.15.14,2.16,3.87,59.85c0,.3,0,.7-.07,1.22C1208.9,495.23,1211.52,502.82,1211.52,502.82Z"/><path class="cls-8" d="M1395,403.34l-.27.24c-1,.86-2.38-2.22-3.57-1.79-1,.37-1.87,4.32-3,4.32a9.73,9.73,0,0,1-5-1.38c-.17-.43-.32-.84-.5-1.22-.62-1.44-1.09-2.32-1.09-2.32s1.68-.35,3.81-.72c1-.18,2.07-.36,3.12-.52h0l1.6-.22c2.08-.26,3.72-.32,3.72.12a11.35,11.35,0,0,0,.85,2.84C1394.82,402.9,1394.91,403.12,1395,403.34Z"/><path class="cls-24" d="M1399.84,390.63c0,8.06-5.21,14.61-11.66,14.62s-11.69-6.52-11.7-14.58,5.21-14.61,11.66-14.62h0c6.43,0,11.66,6.48,11.68,14.53T1399.84,390.63Z"/><path class="cls-5" d="M1397.7,418.49l-3.48.45s.36-3.91,1.88-5.13c1-.81,2.88-2.08,4-2.84a3.93,3.93,0,0,0,1.26.51C1396,415.77,1397.7,418.49,1397.7,418.49Z"/><path class="cls-24" d="M1358.65,437.35l-.83-.15s-3.63.3-7.2.81-8.63,1.86-4.94,7.22,7.08-1,7.08-1,3.45,5.36,6.13,3.57S1358.65,437.35,1358.65,437.35Z"/><path class="cls-24" d="M1344,522.68s2.27,6.84,2.08,8.78,7.56-1.86,7.56-1.86-1.79-5.21-.83-6.32S1344,522.68,1344,522.68Z"/><rect class="cls-24" x="1333.24" y="541.13" width="6.16" height="9.82"/><path class="cls-42" d="M1345.32,519.93a20.15,20.15,0,0,0-1.37,5.45,67.49,67.49,0,0,0-.65,7.64c0,1.49.59,1.19,0,3.57a41.66,41.66,0,0,0-1.16,5.71,2.28,2.28,0,0,1,0,.25,17.52,17.52,0,0,1-.71,3.57s-9-.74-10.95-2.38.71-3.27.71-3.27v-.41c.19-4.55,2-48.38,2.84-53a6.51,6.51,0,0,1,1.16-2.69,12.59,12.59,0,0,1,4.08-3.44,17.13,17.13,0,0,1,2.5-1.16s.47,3.44,1.09,8.31C1344.25,499.18,1346.4,517.75,1345.32,519.93Z"/><path class="cls-24" d="M1342.84,488.06c-.7,1.59-1.41,2.59-1.92,1.81-.89-1.34-3.72-3.83-5.75-5.52,2.21-3.09,6.58-4.6,6.58-4.6S1342.22,483.19,1342.84,488.06Z"/><path class="cls-42" d="M1396.08,476.07c-.09,1.65-.25,3.65-.52,6.08-.67,6.1-3.71,11.39-8.11,14.14,0,0-21.9,0-25.71-1.34a4.9,4.9,0,0,0-4.8,1.09l-.39.33a9.42,9.42,0,0,0-1.48,1.7s-2.38-12.05-2.38-12.65a29.76,29.76,0,0,1,3.69-9.67c2.39-3.72,16.42-4.32,17.26-4.46.55-.1,5.67-2.88,9-4.75l3-1.65,5.52,2.19.2.08,4.41,1.75S1396.36,470.56,1396.08,476.07Z"/><path class="cls-8" d="M1391.39,467.14c-1.05.55-2.72,1.39-4.65,2.26-4.2,1.91-9.66,4-12.85,3.65a41.61,41.61,0,0,0-12.26,1,21.7,21.7,0,0,0-5.72,4.63c-3,3.27-.36,4.31,1,8.18.54,1.59.41,5.3.08,9.13l-.39.33a9.42,9.42,0,0,0-1.48,1.7s-2.38-12.05-2.38-12.65a29.76,29.76,0,0,1,3.69-9.67c2.39-3.72,16.42-4.32,17.26-4.46.55-.1,5.67-2.88,9-4.75l3-1.65,5.52,2.19Z"/><path class="cls-8" d="M1345.32,519.93a20.15,20.15,0,0,0-1.37,5.45,3,3,0,0,1-.65-.54c-1.09-1.16-1-3.35-.85-4.75.06-.58.13-1,.13-1.22,0-.6.47-6-.48-7.89s-1.19-9.52-1.19-9.52a198,198,0,0,1-1.66-20.57,17.14,17.14,0,0,1,2.5-1.16s.47,3.44,1.09,8.31C1344.25,499.18,1346.4,517.75,1345.32,519.93Z"/><path class="cls-42" d="M1392.22,466.51l-1,.56c-1,.54-2.77,1.42-4.8,2.33-4.2,1.91-9.66,4-12.85,3.65a41.61,41.61,0,0,0-12.26,1,21.69,21.69,0,0,0-5.71,4.62c-3,3.27-.36,4.31,1,8.18.55,1.62.4,5.51,0,9.46-.48,5.41-1.36,10.93-1.36,10.93a6.23,6.23,0,0,0-.12,2.38c.24.89.23,7.73.23,7.73a4.78,4.78,0,0,0-.51,2,3,3,0,0,0,.39,1.62c1,1.62.24,6,.24,6a11.9,11.9,0,0,1-5.48-.6c-3.46-1-4.76.15-6.3-1.48-1.09-1.16-1-3.35-.85-4.75.06-.58.13-1,.13-1.22,0-.6.47-6-.48-7.89s-1.19-9.52-1.19-9.52-3.79-27.26,0-33.88a3.91,3.91,0,0,1,.21-.34c2.13-3,6.55-3.59,10.68-3.29a36.56,36.56,0,0,1,8.84,1.8c2.38.9,3.1.45,4.29-.15.85-.41.91-2.49.88-3.65v-.33a3.08,3.08,0,0,0,0-.48l1.05-.72,4.42-3Z"/><path class="cls-8" d="M1394.74,402.68a31.08,31.08,0,0,0,2.83,5.56,1.45,1.45,0,0,1-1.15,0c-.39-.19-.67-.62-1-.85-1-.57-2.06.24-3-.52a2.64,2.64,0,0,1-.95-2.28v-.41c0-1.3-.11-3.89-1.21-4.53a1.4,1.4,0,0,0-1.34.06,1.52,1.52,0,0,0-.26.17h0c-.74.54-1.27,1.7-2.11,1.62a1.39,1.39,0,0,1-1-1.09,8.81,8.81,0,0,1-.34-1.82,34.61,34.61,0,0,0-1.68-6.87c-.14-.43-.32-.92-.71-1-.59-.06-.74,1.09-.41,1.71s.89,1.1,1,1.83a1.33,1.33,0,0,1-2.12,1.22,4,4,0,0,1-.77-3.37c.17-1.21.58-2.37.65-3.6s-.38-2.64-1.33-3-1.7.31-2.56.32c2.05-7.64,8.68-11.76,14.79-9.19s9.41,10.85,7.35,18.49a14.69,14.69,0,0,1-4.54,7.45Z"/><path class="cls-43" d="M1389.18,399.79c-.88.41-1.43,1.88-2.37,1.77s-1.23-1.7-1.36-2.91a34.61,34.61,0,0,0-1.68-6.87c-.14-.43-.34-.92-.71-1-.59-.06-.74,1.09-.41,1.71s.89,1.1,1,1.83a1.33,1.33,0,0,1-2.11,1.22,4,4,0,0,1-.77-3.37c.17-1.21.58-2.37.65-3.6s-.38-2.64-1.33-3-1.95.5-2.92.3a2.32,2.32,0,0,1-1.35-2.71,2.67,2.67,0,0,1,.11-.4c.42-1,1.5-1.83,1.22-2.91-.35-1.35-2.19-.76-2.92-1.86a2.39,2.39,0,0,1,.69-2.84c.74-.62,1.66-.88,2.37-1.57,1.33-1.29,1.56-3.79,2.82-5.2,1.43-1.62,3.64-1.27,5.43-2.1s3.28-2.75,5.09-2.34a13.4,13.4,0,0,0,1.3.38c.92.11,1.76-.58,2.6-1a5.08,5.08,0,0,1,5.1.3,2.39,2.39,0,0,0,2.21,2.68c.85,0,2-.41,2.3.6.14.46,0,1,.09,1.46.22.81,1.12.87,1.71,1.33,1.33,1.05.71,3.92,1.86,5.27a5.9,5.9,0,0,0,1.87,1.08c2.08,1.15,2.83,4.3,3.35,7.07a4.3,4.3,0,0,1,.09,1.65,9.61,9.61,0,0,1-1.12,2.05c-.8,1.71.06,4-.46,5.85s-2.2,2.94-2.44,4.87c-.08.65,0,1.32-.06,2a4.34,4.34,0,0,1-3.08,3.29,1.46,1.46,0,0,0-1,.77c-.07.2-.09.43-.15.64a1.83,1.83,0,0,1-1,1q-2.67,1.57-5.44,2.87a1.89,1.89,0,0,1-1.6.23c-.39-.19-.67-.63-1-.85-1-.58-2.06.24-3-.52a3,3,0,0,1-1-2.67C1391.73,402.56,1391.55,398.65,1389.18,399.79Z"/><path class="cls-42" d="M1342.14,542.3a2.28,2.28,0,0,1,0,.25,17.52,17.52,0,0,1-.71,3.57s-9-.74-10.95-2.38.71-3.27.71-3.27v-.41C1334.29,541.06,1339.69,542.54,1342.14,542.3Z"/><path class="cls-8" d="M1342.14,542.3a2.28,2.28,0,0,1,0,.25,17.52,17.52,0,0,1-.71,3.57s-9-.74-10.95-2.38.71-3.27.71-3.27v-.41C1334.29,541.06,1339.69,542.54,1342.14,542.3Z"/><path class="cls-44" d="M1340.74,545s-10.48.89-10.89.67-.42,6.92-.42,6.92-2.32,5.8-2.62,7.22-2.62,4.91-2.62,4.91-3.33,3,1.54,4.24a22.79,22.79,0,0,0,10.24-.37s3.57-7.74,3.87-7.3,0,4.09,0,4.09l2.08-.67s-.36-4.83.48-7.44S1340.74,545,1340.74,545Z"/><path class="cls-8" d="M1355.44,526.48a11.9,11.9,0,0,1-5.48-.6c-3.46-1-4.76.15-6.3-1.48-1.09-1.16-1-3.35-.85-4.75,1.51-.41,3.85-1,5.67-1.35a16.54,16.54,0,0,1,6.33.61,3,3,0,0,0,.39,1.62C1356.16,522.16,1355.44,526.48,1355.44,526.48Z"/><path class="cls-42" d="M1355.44,526.93a11.9,11.9,0,0,1-5.48-.6c-3.46-1-4.76.15-6.3-1.48-1.09-1.16-1-3.35-.85-4.75,1.51-.41,3.85-1,5.67-1.35a16.54,16.54,0,0,1,6.33.61,3,3,0,0,0,.39,1.62C1356.16,522.62,1355.44,526.93,1355.44,526.93Z"/><path class="cls-8" d="M1355.44,526.93a11.9,11.9,0,0,1-5.48-.6c-3.46-1-4.76.15-6.3-1.48-1.09-1.16-1-3.35-.85-4.75,1.51-.41,3.85-1,5.67-1.35a16.54,16.54,0,0,1,6.33.61,3,3,0,0,0,.39,1.62C1356.16,522.62,1355.44,526.93,1355.44,526.93Z"/><path class="cls-44" d="M1360.56,548.05l-3.51,1.12-1-5.21s-.88,2.09-2.44,5l-.65,1.18c-1.79,3.19-7.81,2.41-9.88.55a2.45,2.45,0,0,1-.47-.55c-1.37-2.23.71-4.39,1.72-5.58s.48-9.08.48-9.08a21.08,21.08,0,0,1-.12-5.13c.36-1.64,9.35-2.23,9.35-2.23a70.52,70.52,0,0,0,2.86,7.88c1,1.86,2.27,4.17,2,5.8S1360.56,548.05,1360.56,548.05Z"/><path class="cls-24" d="M1355.91,470.75c-1.53,2.43-11.52.6-14.6-3.15a3.91,3.91,0,0,1,.21-.34c2.13-3,6.55-3.59,10.68-3.29C1354.1,465.66,1357.13,468.82,1355.91,470.75Z"/><path class="cls-8" d="M1346.28,472.54s-1.72-3.05-3.27-1.56-2-2.6-2-2.6.83-.74,2.62.37,3.81,3,3.57,3.42S1346.28,472.54,1346.28,472.54Z"/><path class="cls-42" d="M1346.28,472.09s-1.73-3-3.27-1.56-2-2.6-2-2.6.83-.74,2.62.37,3.81,3,3.57,3.42S1346.28,472.09,1346.28,472.09Z"/><path class="cls-8" d="M1378.53,472.54s8.81,5.06,6.84,7.09S1378.53,472.54,1378.53,472.54Z"/><path class="cls-8" d="M1343,507.36s5.59.81,6.84,1.86a5.57,5.57,0,0,0,3.22,1.41C1353.77,510.63,1345.5,504.83,1343,507.36Z"/><path class="cls-8" d="M1349.72,503.27s-2.14,1.86.3,2.6S1349.72,503.27,1349.72,503.27Z"/><path class="cls-8" d="M1337.76,528s3.16,4.91,4.29,3.57S1337.76,528,1337.76,528Z"/><path class="cls-8" d="M1335.74,537.71c.24,0,1-.15,2.56,1.19s1.66-1,1.07-2S1335.74,537.71,1335.74,537.71Z"/><path class="cls-8" d="M1332.17,428.09c.54.22,3.66,1.22,4.29,3.57S1332.17,428.09,1332.17,428.09Z"/><path class="cls-8" d="M1205.36,430l-.26-.08s-9.12-2.56-14.77-.64l-.23-1.59,15.11.15Z"/><path class="cls-27" d="M1197.25,425s22.86.15,30.82,19.79,9.76,57.14,9.76,57.14,1.3,5.36-.6,5.5-2.74-4.91-2.74-4.91.72-3.72.12-5.36-7.85-47.15-7.85-47.15-.83-14.28-21.66-20.53c0,0-24.4-6.84-18.1,10.27,0,0,.36,2.38-1,1.93s-2.86-4.91-1.78-10.54S1197.25,425,1197.25,425Z"/><path class="cls-8" d="M1241.82,420.32l-.06.07c-1.62,1.62-7.62,14.37-11.66,14.72h-.24l-.27-.39h0l-.06-.09L1240.1,418Z"/><path class="cls-8" d="M1230,404.47l5.36,2.84s2.62,3.27,2.5,6.25,1.3.74,1.3.74a1.81,1.81,0,0,1,1,1.62c0,1.18,2.62,2.38,1,4s-7.86,14.88-11.9,14.73a94.61,94.61,0,0,0-7.74-9.67C1217.24,420.54,1213.43,397.62,1230,404.47Z"/><path class="cls-40" d="M1230.34,404.47l5.36,2.84s2.62,3.27,2.5,6.25,1.3.74,1.3.74a1.81,1.81,0,0,1,1,1.62c0,1.18,2.62,2.38,1,4s-7.86,14.88-11.9,14.73a94.61,94.61,0,0,0-7.74-9.67C1217.6,420.54,1213.79,397.62,1230.34,404.47Z"/><path class="cls-8" d="M1379.13,429.17l-5.54,12.33-3.83,2.47c-.09-1.3-.16-2.17-.16-2.17a12.21,12.21,0,0,1,3.93-12.8c5.64-4.83,2.67-8.74,1.85-9.63l.17-.19,1.3-.22Z"/><path class="cls-8" d="M1416.08,423.72c-.88,2.43-8.39,9-8.39,9s0,0,0,0l-.35-.49,7.14-10.27,1.3,1Z"/><path class="cls-8" d="M1396.08,476.07a14.59,14.59,0,0,1-3.14.11,50.92,50.92,0,0,0-6.55-6.79,45.29,45.29,0,0,0-3.69-2.88c-4.7-3.24-10.54-5.8-16.5-4.56l-.4.09.39-.41c.24-.26.62-.69,1-1.2l4.42-3,20.59,9.07-1,.56,4.61,1.83S1396.36,470.56,1396.08,476.07Z"/><path class="cls-26" d="M1389.48,416.52s16,1.93,23.21.89c0,0,3.57,3.42,3.1,5.65s-8.44,9.22-8.44,9.22-.59,17.41-3.81,21.58-6.09,14.88-4.66,18.46-5.59,3-5.59,3-13.33-17.41-27.14-14.13c0,0,5-5.06,4.64-8.78s-.83-10.57-.83-10.57a12.22,12.22,0,0,1,3.93-12.8c6.43-5.5,1.67-9.83,1.67-9.83s-.24-1.34,2.5-1.78a23.16,23.16,0,0,0,3.93-.89s2.62-3,3.81-2.38A41.91,41.91,0,0,1,1389.48,416.52Z"/><path class="cls-8" d="M1407.7,430.14s1.9,4.68-.18,7.14a30.84,30.84,0,0,0-2.24,3.39,110.13,110.13,0,0,0-9.59,20.85c-4.4,12.81-12,34.58-13.11,35.73-1.62,1.62-1.73,5-.12,5.06s2.56-2.68,2.56-2.68,1.61-5.73,2.62-8,11.55-32.51,11.55-32.51,3.93-12.95,8.33-15.92c0,0,3.81-7.89,3.15-11.38S1407.7,430.14,1407.7,430.14Z"/><path class="cls-27" d="M1407.7,429.69s1.9,4.69-.18,7.14a30.83,30.83,0,0,0-2.24,3.39,110.13,110.13,0,0,0-9.59,20.85c-4.4,12.81-12,34.58-13.11,35.73-1.62,1.62-1.73,5-.12,5.06s2.56-2.68,2.56-2.68,1.61-5.73,2.62-8,11.55-32.51,11.55-32.51,3.93-12.95,8.33-15.92c0,0,3.81-7.89,3.15-11.38S1407.7,429.69,1407.7,429.69Z"/><path class="cls-24" d="M1423.9,445.39a16.49,16.49,0,0,1-.55,8s-5.06.3-10.12-8.56l-3-9.3s-3.39-7.22-5.42-6.84-3.57,13-8.39,11.83-2.27-16.37,4.1-17.93l2.46-.78a5,5,0,0,1,5.16,1.37c1.18,1.16,2.78,2.71,4.7,4.46,1.58,1.45,3.07,2.87,4.33,4.09A23.65,23.65,0,0,1,1423.9,445.39Z"/><path class="cls-8" d="M1371.18,444.72s2.41,3.68,6.34,4.46,6.16-.78,9.46.9S1371.18,444.72,1371.18,444.72Z"/><path class="cls-8" d="M1404,437.8s-7.41,7.92-7.14,10S1404,437.8,1404,437.8Z"/><g class="cls-3"><path d="M1383.74,393.93a1.28,1.28,0,0,1-1.77.15,3.64,3.64,0,0,1-.82-2.9c-.07.34-.14.67-.19,1a4,4,0,0,0,.77,3.37,1.33,1.33,0,0,0,2.12-1.22A1.91,1.91,0,0,0,1383.74,393.93Z"/><path d="M1381.59,388.8a9.94,9.94,0,0,0,.26-1.7c.06-1.22-.38-2.64-1.33-3s-1.95.5-2.92.3a2.1,2.1,0,0,1-1.38-1.84,1.92,1.92,0,0,0-.1.22,2.5,2.5,0,0,0,.92,3,1.57,1.57,0,0,0,.32.13c1,.2,2-.64,2.92-.3s1.39,1.76,1.33,3C1381.61,388.67,1381.6,388.73,1381.59,388.8Z"/><path d="M1377.28,379.77a1.78,1.78,0,0,0,.28-1.37c-.35-1.35-2.2-.76-2.92-1.86a1.55,1.55,0,0,1-.2-.49,2,2,0,0,0,0,2C1375.11,379.09,1376.86,378.57,1377.28,379.77Z"/><path d="M1406.38,401.29a1.46,1.46,0,0,0-1,.77c-.08.2-.09.43-.15.64a1.85,1.85,0,0,1-1,1q-2.67,1.58-5.44,2.87a1.9,1.9,0,0,1-1.6.23c-.39-.19-.67-.63-1-.85-1-.57-2.06.24-3-.52a2.93,2.93,0,0,1-1-2.66c0-1.7-.18-5.61-2.55-4.46-.88.41-1.43,1.88-2.38,1.77s-1.23-1.7-1.36-2.91a34.61,34.61,0,0,0-1.68-6.87c-.14-.43-.34-.92-.71-1-.54-.06-.71.91-.48,1.55a.38.38,0,0,1,.24-.06c.36,0,.57.53.7,1a34,34,0,0,1,1.68,6.87c.13,1.22.39,2.8,1.36,2.91s1.49-1.35,2.37-1.77c2.37-1.14,2.55,2.76,2.56,4.46a2.91,2.91,0,0,0,1,2.67c1,.75,2.05-.06,3,.52.38.22.65.66,1,.85a2,2,0,0,0,1.6-.23q2.76-1.29,5.43-2.87a2,2,0,0,0,1-1c.06-.21.07-.44.15-.64a1.45,1.45,0,0,1,1-.77,4.34,4.34,0,0,0,3.07-3.29,4.91,4.91,0,0,0,0-.69A4.85,4.85,0,0,1,1406.38,401.29Z"/><path d="M1412.41,385.32a4.43,4.43,0,0,0-.36,1.79,3,3,0,0,1,.12-.3c.32-.72.94-1.25,1.11-2.05a2.94,2.94,0,0,0,0-.91C1413.06,384.37,1412.66,384.8,1412.41,385.32Z"/><path d="M1409.52,396a5.46,5.46,0,0,0,0,.65c.53-1.44,1.81-2.47,2.23-4a5.33,5.33,0,0,0,.17-1.27C1411.32,393.09,1409.74,394.2,1409.52,396Z"/></g><path class="cls-8" d="M1357.46,540.17a37.58,37.58,0,0,0-3.81,3.65c-1.55,1.79-5.42,3.27-5.42,3.27Z"/><path class="cls-8" d="M1338.42,559s-7.32,8.18-8.51,8S1338.42,559,1338.42,559Z"/><path class="cls-8" d="M1353.59,549l-.65,1.18c-1.79,3.19-7.81,2.41-9.88.55C1344.91,549.91,1350.6,547.72,1353.59,549Z"/><g class="cls-3"><path d="M1323.89,365.6a7.12,7.12,0,0,0,.19-.93A7.12,7.12,0,0,0,1323.89,365.6Z"/><path d="M1301.28,375.48a4.21,4.21,0,0,1,.18-.6c.52-1.46-.15-2.49-.91-3.47a5.86,5.86,0,0,1-1.36-3.24q-.06-.51-.08-1a2.34,2.34,0,0,0-.17.32,4.81,4.81,0,0,0-.11,2.27,5.82,5.82,0,0,0,1.36,3.24A4,4,0,0,1,1301.28,375.48Z"/><path d="M1321.42,388.68c-.59-.21-1.11.51-1.4,1.18s-.62,1.47-1.23,1.57-1.24-.87-1.54-1.72a8,8,0,0,1-.6-2.66q0-.17,0-.33a5.58,5.58,0,0,0,.21,4.55c.31.85.81,1.83,1.54,1.72s.94-.9,1.23-1.57.81-1.39,1.4-1.18c.26.1.54.37.77.21a.75.75,0,0,0,.22-.49,7.26,7.26,0,0,0,.11-1.06C1321.93,389,1321.67,388.78,1321.42,388.68Z"/><path d="M1325.08,381.24a8.36,8.36,0,0,0-2.18,2.43,4.62,4.62,0,0,0-.32,1.51,8.64,8.64,0,0,1,2.16-2.38A8.5,8.5,0,0,0,1327,378,8,8,0,0,1,1325.08,381.24Z"/><path d="M1317,385.18a10.59,10.59,0,0,0,.32-1.38,10.42,10.42,0,0,0-.52-4.18c-.27-1-.78-2.19-1.62-2.07a1.48,1.48,0,0,1-.49.07c-.44-.09-.53-.81-.58-1.36-.28-2.67-1.92-4.8-4-5.27a1,1,0,0,0-.71.06c-.32.17-.48.59-.76.84-.91.78-2.06-.72-3.16-.6-.93.1-1.51,1.3-1.89,2.36s-.87,2.29-1.78,2.54a.45.45,0,0,1-.43-.06.44.44,0,0,1-.14-.33,2.9,2.9,0,0,1-.16.68c-.14.41-.34,1-.05,1.22a.46.46,0,0,0,.43.06c.91-.25,1.4-1.47,1.78-2.54s1-2.27,1.89-2.37c1.1-.11,2.26,1.39,3.16.6.28-.24.45-.66.76-.84a1,1,0,0,1,.7-.06c2.13.46,3.78,2.59,4.07,5.27,0,.55.14,1.28.58,1.36a1.48,1.48,0,0,0,.49-.07c.83-.12,1.34,1.08,1.6,2.07A10.91,10.91,0,0,1,1317,385.18Z"/></g><path class="cls-29" d="M1323,432s-4.54,1.73-6.61,1.73-10.08-.05-10.08-.05-21-8.76-14.69,3.24,16.25,5.3,16.25,5.3l1.78.5c1,.28,20,.06,20.58-.89S1323,432,1323,432Z"/><path class="cls-8" d="M1336,442.52c-2.86.33-8.47.41-8.47.41s-4.2-10.38-7.76-10c0,0,3.3-4.68,4.64-4.13.23.09.37-.11.43-.51,3.5,1.33,10.17,4.6,10.82,10.33C1335.82,440.11,1335.93,441.41,1336,442.52Z"/><path class="cls-30" d="M1336.36,442.52c-2.86.33-8.47.41-8.47.41s-4.2-10.38-7.76-10c0,0,3.3-4.68,4.64-4.13.23.09.37-.11.43-.51,3.5,1.33,10.16,4.6,10.81,10.33C1336.18,440.11,1336.29,441.41,1336.36,442.52Z"/><path class="cls-8" d="M1336.36,442.52c-2.86.33-8.47.41-8.47.41s-4.2-10.38-7.76-10c0,0,3.3-4.68,4.64-4.13.23.09.37-.11.43-.51,3.5,1.33,10.16,4.6,10.81,10.33C1336.18,440.11,1336.29,441.41,1336.36,442.52Z"/><path class="cls-8" d="M1311.28,472.39s8-2.46,9.28-1.12S1311.28,472.39,1311.28,472.39Z"/><path class="cls-8" d="M1288.25,482s3.39,2.43,3.75,4.46S1288.25,482,1288.25,482Z"/><g class="cls-3"><path d="M1231.17,348.8a5.68,5.68,0,0,0,.19,1.62v-.51c0-.77.21-1.53.17-2.3a3.81,3.81,0,0,0-.18-.93C1231.34,347.41,1231.19,348.09,1231.17,348.8Z"/><path d="M1198.19,348.14c.16.52.39,1,.55,1.53a2.84,2.84,0,0,0,0-.37,11,11,0,0,0-.67-2.19A3.58,3.58,0,0,0,1198.19,348.14Z"/><path d="M1233.84,355a1.16,1.16,0,0,0-.2-.37,1.44,1.44,0,0,1-.58.79,2.51,2.51,0,0,1-1.47.24c-1.11,2.41-4.52,1.28-5.84,3.52-.63,1.06-.55,2.51-.79,3.8-.39,2.1-1.71,4-1.46,6.14.09.75.35,1.59,0,2.2a1.09,1.09,0,0,1-1.54.29c-1.32-.67-2-2.38-3-3.72s-2.63-2.33-3.72-1.19c-.91,1-.75,2.73-.65,4.22s-.25,3.4-1.42,3.65c-.47.11-1-.11-1.43,0-1.47.43-1.36,3.62-2.79,4.2a2.4,2.4,0,0,1-1.57-.15c-1.89-.56-4.06.63-5.81,0-1-.37-1.41-1.68-1.67-3.07.25,1.75.61,3.72,1.85,4.19,1.75.66,3.91-.52,5.81,0a2.4,2.4,0,0,0,1.57.15c1.44-.58,1.32-3.77,2.79-4.2.47-.13,1,.08,1.43,0,1.18-.26,1.51-2.17,1.42-3.65s-.25-3.24.67-4.22c1.09-1.14,2.78-.15,3.72,1.19s1.66,3.05,3,3.72a1.13,1.13,0,0,0,1.54-.29c.33-.56.09-1.45,0-2.2-.25-2.14,1.06-4,1.46-6.14.24-1.29.16-2.73.79-3.8,1.32-2.24,4.73-1.11,5.84-3.52a2.48,2.48,0,0,0,1.47-.24A1.44,1.44,0,0,0,1233.84,355Z"/><path d="M1199.45,372.59a9.71,9.71,0,0,0-1-3.22,15.94,15.94,0,0,1-1.43-2.11,2.69,2.69,0,0,0,0,.28c0,1.22,1,2,1.62,2.95a9.25,9.25,0,0,1,1,3.19C1199.57,373.28,1199.52,372.91,1199.45,372.59Z"/><path d="M1198.28,361.63c-.09-1.5-.88-3-1.25-4.6C1197.14,358.58,1197.92,360.12,1198.28,361.63Z"/></g><path class="cls-8" d="M1260.75,500.62s10-.37,7.6,1-9.12,1.22-9.12,1.22Z"/><path class="cls-8" d="M1301.81,527.22s4.64-.89,5.84.07S1301.81,527.22,1301.81,527.22Z"/><path class="cls-10" d="M1440.89,509.41s1.78,2.9-.82,7.3-4.74,8.08-3.87,10.82c0,0,3.92-8.14,7.11-8.25S1444.4,514.3,1440.89,509.41Z"/><path class="cls-8" d="M1440.89,509.41a3.92,3.92,0,0,1,.36.91c3.11,4.57,4.77,8.83,1.78,8.94-2.79.1-6.13,6.32-6.93,7.9q0,.18.09.36s3.92-8.14,7.11-8.25S1444.4,514.3,1440.89,509.41Z"/><path class="cls-12" d="M1444.19,513.1a4.37,4.37,0,0,1-.2,1.85,4.3,4.3,0,0,1-.2-1.85c0-1,.11-.54.23-.54S1444.19,512.07,1444.19,513.1Z"/><path class="cls-12" d="M1445.33,514.33c-.72.49-1.34.79-1.4.66s.49-.62,1.2-1.11.43-.13.49,0S1446,513.84,1445.33,514.33Z"/><path class="cls-10" d="M1431.51,509.41s-1.78,2.9.82,7.3,4.74,8.08,3.87,10.82c0,0-3.92-8.14-7.11-8.25S1428,514.3,1431.51,509.41Z"/><path class="cls-8" d="M1431.51,509.41a4.1,4.1,0,0,0-.36.91c-3.11,4.57-4.77,8.83-1.78,8.94,2.79.1,6.13,6.32,6.93,7.9a3.37,3.37,0,0,1-.09.36s-3.92-8.14-7.11-8.25S1428,514.3,1431.51,509.41Z"/><path class="cls-12" d="M1428.2,513.1a4.37,4.37,0,0,0,.2,1.85,4.27,4.27,0,0,0,.21-1.85c0-1-.12-.54-.23-.54S1428.2,512.07,1428.2,513.1Z"/><path class="cls-12" d="M1427.07,514.33c.72.49,1.34.79,1.4.66s-.48-.62-1.2-1.11-.43-.13-.49,0S1426.36,513.84,1427.07,514.33Z"/><path class="cls-13" d="M1428.77,527.13s5-.19,6.46-1.52,7.64-2.92,8-.79,7.46,10.63,1.86,10.69-13-1.1-14.52-2.23S1428.77,527.13,1428.77,527.13Z"/><path class="cls-14" d="M1445.2,534.78c-5.61.06-13-1.09-14.52-2.23-1.14-.86-1.59-4-1.74-5.41h-.17s.32,5,1.81,6.14,8.92,2.28,14.52,2.23c1.62,0,2.18-.74,2.15-1.8C1447,534.35,1446.41,534.75,1445.2,534.78Z"/><path class="cls-34" d="M1331.85,444.09c0,1.14-2.86,2.48-6.4,2.48s-6.4-1.34-6.4-2.48,2.86-1.65,6.4-1.65S1331.85,442.95,1331.85,444.09Z"/><path class="cls-8" d="M1331.85,444.09c0,1.14-2.86,2.48-6.4,2.48s-6.4-1.34-6.4-2.48,2.86-1.65,6.4-1.65S1331.85,442.95,1331.85,444.09Z"/><ellipse class="cls-34" cx="1325.45" cy="444.09" rx="6.4" ry="2.07"/><ellipse class="cls-8" cx="1325.45" cy="444.09" rx="3.62" ry="1.17"/><path class="cls-36" d="M1330.69,441.61a2.84,2.84,0,0,1-2.31,1.83,2.91,2.91,0,0,1-1.12-.1l.44-.81a1.77,1.77,0,0,0,.85,0,1.74,1.74,0,0,0,1.12-1c.47-1-.12-1.18-.53-1.17h-.25l.35-.64a3.11,3.11,0,0,1,.35-.05C1330.28,439.59,1331.57,439.7,1330.69,441.61Z"/><path class="cls-36" d="M1327.87,444.44a6.52,6.52,0,0,1-4.94,0l0-.31,0-.23,4.82-.08,0,.37Z"/><path class="cls-8" d="M1328.56,442.53a6,6,0,0,1-.18.91,2.91,2.91,0,0,1-1.12-.1l.44-.81A1.77,1.77,0,0,0,1328.56,442.53Z"/><path class="cls-8" d="M1329.6,439.64a.91.91,0,0,1-.14.23l0,0a3.45,3.45,0,0,0-.28.41h-.25l.35-.64Z"/><path class="cls-8" d="M1327.84,444.19c-.85.41-4.06.5-4.87-.06l0-.23,4.82-.08Z"/><path class="cls-36" d="M1329.38,439.88l0,0a3.72,3.72,0,0,0-.81,2c-.15,1.77-.45,2-.49,2-.25.54-4.54.75-5.19,0a3.58,3.58,0,0,1-.81-2.72,1.36,1.36,0,0,0-.42-1.18.84.84,0,0,1,.29-1.3,9,9,0,0,1,3.38-.71,7.66,7.66,0,0,1,3.74.52l.09,0a.91.91,0,0,1,.42.52A.8.8,0,0,1,1329.38,439.88Z"/><ellipse class="cls-8" cx="1325.38" cy="439.7" rx="3.26" ry="0.66"/><ellipse class="cls-45" cx="1325.38" cy="439.78" rx="3.26" ry="0.66"/><path class="cls-46" d="M1326.06,439.37s-2.35.06-2.27.78A6.43,6.43,0,0,1,1326.06,439.37Z"/><path class="cls-46" d="M1326.73,439.55s-1.4,0-1.17.6c0,0,.32,0,.28-.2s.9-.31.9-.31Z"/><path class="cls-37" d="M1321.75,439.37s-.09,1.22,3.57,1.16,3.64-.88,3.67-1.16h-.2s0,1-3.42,1-3.47-1-3.47-1Z"/><path class="cls-8" d="M1329.53,439.16l-2.21,1a.24.24,0,0,1-.26,0l0,0a.21.21,0,0,1,.06-.34l2-1.1A.91.91,0,0,1,1329.53,439.16Z"/><path class="cls-34" d="M1327.09,439.69l5.72-3.11a1,1,0,0,1,.43-.12c.29,0,.7,0,.56.43a.76.76,0,0,1-.43.45l-6.05,2.77a.23.23,0,0,1-.26,0l0,0A.21.21,0,0,1,1327.09,439.69Z"/><path class="cls-8" d="M1327.09,439.69l5.72-3.11a1,1,0,0,1,.43-.12c.29,0,.7,0,.56.43a.76.76,0,0,1-.43.45l-6.05,2.77a.23.23,0,0,1-.26,0l0,0A.21.21,0,0,1,1327.09,439.69Z"/><path class="cls-34" d="M1327.09,439.65l5.72-3.11a1,1,0,0,1,.43-.12c.29,0,.7,0,.56.43a.78.78,0,0,1-.43.45l-6.05,2.77a.23.23,0,0,1-.26,0l0,0A.21.21,0,0,1,1327.09,439.65Z"/><path class="cls-8" d="M1326.78,439.74s.61-.11.53,0,.26.32.26.32a2.11,2.11,0,0,1-.72,0C1326.75,440,1326.78,439.74,1326.78,439.74Z"/><path class="cls-45" d="M1326.73,439.76s.61-.11.53,0,.26.32.26.32a2.12,2.12,0,0,1-.73,0C1326.71,440.06,1326.73,439.76,1326.73,439.76Z"/><path class="cls-47" d="M1325.77,434.31a1.88,1.88,0,0,0-.55.88,2.52,2.52,0,0,0,0,.9,4.55,4.55,0,0,0,.12.61c0,.11.12.24.19.16,0-.28-.07-.56-.06-.84a1.78,1.78,0,0,1,.3-.84,4.22,4.22,0,0,0,.42-.73c0-.12.22-1.24,0-1a4.87,4.87,0,0,0-.15.5A1.91,1.91,0,0,1,1325.77,434.31Z"/><path class="cls-47" d="M1325.87,436.15c0,.1.12.18.17.28a.58.58,0,0,1,0,.19,1.23,1.23,0,0,1-.17.92.67.67,0,0,0,.42-.47,1.58,1.58,0,0,0,.06-.32c0-.1,0-.21,0-.31s.06-.56-.17-.63a.28.28,0,0,0-.34.24A.43.43,0,0,0,1325.87,436.15Z"/><path class="cls-8" d="M1322.07,441a1.44,1.44,0,0,0,1.05.41,2.32,2.32,0,0,1-1.11-.11Z"/><polygon class="cls-27" points="1247.64 500.15 1259.64 500.11 1255.71 507.94 1247.97 512.85 1247.64 500.15"/><path class="cls-48" d="M743.9,1770.67l-499.36-890c-24.23-43.19-71.88-53.64-106.43-23.35L0,978.4v687.45l284.69,507.4c24.23,43.19,71.88,53.64,106.43,23.35l334.09-292.89C759.76,1873.42,768.13,1813.86,743.9,1770.67Z"/></g></g></svg>