<svg xmlns="http://www.w3.org/2000/svg" xmlns:xlink="http://www.w3.org/1999/xlink" viewBox="0 0 456.32 324.84"><defs><style>.cls-1,.cls-3,.cls-4,.cls-45,.cls-5{fill:#fff;}.cls-1{opacity:0.3;}.cls-1,.cls-13,.cls-34,.cls-38,.cls-45,.cls-5,.cls-7{isolation:isolate;}.cls-2,.cls-7{opacity:0.1;}.cls-3{stroke:#535461;stroke-width:2px;}.cls-10,.cls-3{stroke-miterlimit:10;}.cls-5{opacity:0.25;}.cls-6{fill:#dea3a2;}.cls-10,.cls-8{fill:none;}.cls-9{fill:#2c8f00;}.cls-10{stroke:#565987;}.cls-11{fill:#ffd037;}.cls-12{fill:#a8a8a8;}.cls-13,.cls-45{opacity:0.2;}.cls-14{fill:url(#linear-gradient);}.cls-15{fill:url(#linear-gradient-2);}.cls-16{fill:#575a88;}.cls-17{fill:#aac9f5;}.cls-18{fill:#d5838e;}.cls-19{fill:#ffccd0;}.cls-20{fill:#cd828d;}.cls-21{fill:#663d5c;}.cls-22{fill:#f26383;}.cls-23{fill:#ffc1c7;}.cls-24{fill:#ffd6db;}.cls-25{fill:#48ccaa;}.cls-26{fill:#e4aab4;}.cls-27{fill:#bdd2e8;}.cls-28{fill:#cf6f80;}.cls-29{fill:#575a89;}.cls-30{fill:#512e4e;}.cls-31{fill:#ffceb4;}.cls-32{fill:#f8bda5;}.cls-33{fill:#e8eaf2;}.cls-34{opacity:0.05;}.cls-35{fill:#f1cec8;}.cls-36{fill:#f6e2df;}.cls-37{fill:#fdf9f9;}.cls-38,.cls-44{fill:#42312e;}.cls-38{opacity:0.3;}.cls-39{fill:#ff748e;}.cls-40{fill:#ffedba;}.cls-41{fill:#575988;}.cls-42{fill:#b97482;}.cls-43{fill:#d3878a;}.cls-46{fill:#f2dcdc;}</style><linearGradient id="linear-gradient" x1="286.9" y1="1897.63" x2="286.9" y2="2134.87" gradientTransform="matrix(1, 0, 0, -1, -37.44, 2222.47)" gradientUnits="userSpaceOnUse"><stop offset="0" stop-color="gray" stop-opacity="0.25"/><stop offset="0.54" stop-color="gray" stop-opacity="0.12"/><stop offset="1" stop-color="gray" stop-opacity="0.1"/></linearGradient><linearGradient id="linear-gradient-2" x1="455.87" y1="1937.86" x2="455.87" y2="1964.08" xlink:href="#linear-gradient"/></defs><title>Asset 2</title><g id="Layer_2" data-name="Layer 2"><g id="Layer_1-2" data-name="Layer 1"><path class="cls-1" d="M10.73,171.91c7.13,29.29,22.22,54.61,46.07,66.87,49.56,25.5,161.32,12.35,244.74-2.75a193,193,0,0,0,108.62-59.69Z"/><path class="cls-1" d="M448.15,34.07H402.39a3.8,3.8,0,1,1-.25-7.6h8.16a3.8,3.8,0,1,1-.25-7.6h-5.4a3.8,3.8,0,1,1-.25-7.6h24.14a64.88,64.88,0,0,0-18.66-4.94c-65.14-8-88.39-2.72-96.6,2.75a93.14,93.14,0,0,1-33.48,14.11c-40.17,8-115.32,17.56-183.46-3.07-33.85-10.25-59,7.07-74.09,36H456.09a65.71,65.71,0,0,0-5.38-23A4,4,0,0,1,448.15,34.07Z"/><path class="cls-1" d="M285,126.45l-.6,0-6.23-.35-59.68-3.37-6.45-.37L117,117l-26.63-1.5-4.22-.24L82.44,115,6.85,110.79a186.13,186.13,0,0,0,1.78,51.1l63.59,2.23,5,.18.89,0,30.17,1.06,1.62.06,3.48.12,30.42,1.07,4.17.15,14.54.52h.27l2.14.08,7.28.26h0l6.39.22,12.17.43h.26l1.09,0,1.15,0h.25l19.39.68,5.43.19h.23l2.62.09h.68l2.3.09,7,.25h0l2.64.09,3.39.12h.13L242,170l13.47.51,3.7.13h.41l17.92.63,10.4.37,13,.5,2.08.07,3.35.12,12.19.43,92,3.24a181,181,0,0,0,27.92-40.93ZM112.11,154.84a4,4,0,0,1-2.64-1h0a4,4,0,0,1-.84-1,3.69,3.69,0,0,1-.48-1.81,3.65,3.65,0,0,1,.65-2.08h0a4.25,4.25,0,0,1,.44-.53,4,4,0,0,1,2.86-1.18H120a3.8,3.8,0,1,1-.25-7.6H114a3.8,3.8,0,0,1,.37-7.59h45.77a3.8,3.8,0,1,1,.25,7.6h5.4a3.8,3.8,0,1,1,.25,7.6h-8.16a3.8,3.8,0,1,1,.25,7.6h-.25Z"/><path class="cls-1" d="M456.12,56.4,140.43,63.78l-34.7.81L17.42,66.66A162.11,162.11,0,0,0,6.91,110.2H448.43a174.63,174.63,0,0,0,6.37-27.76A126.35,126.35,0,0,0,456.12,56.4ZM96,90H88.06a3.89,3.89,0,0,1,4,3.8V94A3.78,3.78,0,0,1,90.26,97a4.06,4.06,0,0,1-2.19.64H42.3a3.8,3.8,0,0,1-.25-7.6h8.16A3.8,3.8,0,0,1,50,82.4h-5.4a3.8,3.8,0,0,1-.25-7.6h46a3.8,3.8,0,1,1,.25,7.6H96a4.06,4.06,0,0,1,1.88.46,3.8,3.8,0,0,1,2.08,3.34A3.9,3.9,0,0,1,96,90Z"/><g class="cls-2"><path class="cls-3" d="M245.37,236.51s11.59-27.43,33.2-37.61a45.88,45.88,0,0,0,21.18-19.76,73.79,73.79,0,0,0,5.31-12.82"/><path class="cls-4" d="M318.64,159.82c-2.25,2.73-13.92,6.7-13.92,6.7s1.41-11.82,3.65-14.54a6.74,6.74,0,0,1,9.21-1,6.14,6.14,0,0,1,1.27,8.59Z"/><path class="cls-4" d="M314.63,181.4c-3.43,1.11-15.47-1.65-15.47-1.65s7.86-9.19,11.29-10.3a6.63,6.63,0,0,1,8.31,4,6.25,6.25,0,0,1-3.93,7.92Z"/><path class="cls-4" d="M292.93,206.9c-3.54-.71-12.49-8.92-12.49-8.92s11.62-4.12,15.16-3.41a6.32,6.32,0,0,1,5.09,7.45A6.56,6.56,0,0,1,292.93,206.9Z"/><path class="cls-4" d="M272,222.63c-3.62-.12-13.88-6.77-13.88-6.77s10.72-5.95,14.34-5.82a6.31,6.31,0,1,1-.46,12.59Z"/><path class="cls-4" d="M288,172c.46,3.45,8.3,12.66,8.3,12.66s5.16-10.81,4.7-14.27a6.5,6.5,0,0,0-7.34-5.44A6.36,6.36,0,0,0,288,172Z"/><path class="cls-4" d="M263.71,190.74c1.52,3.16,11.86,9.69,11.86,9.69s1.56-11.8,0-15a6.66,6.66,0,0,0-8.7-3.08,6.2,6.2,0,0,0-3.32,8.12Z"/><path class="cls-4" d="M242.73,212c.94,3.36,10,11.48,10,11.48s3.61-11.38,2.67-14.74a6.6,6.6,0,0,0-8-4.46,6.28,6.28,0,0,0-4.68,7.54Z"/><path class="cls-5" d="M318.64,159.82c-2.25,2.73-13.92,6.7-13.92,6.7s1.41-11.82,3.65-14.54a6.74,6.74,0,0,1,9.21-1,6.14,6.14,0,0,1,1.27,8.59Z"/><path class="cls-5" d="M314.63,181.4c-3.43,1.11-15.47-1.65-15.47-1.65s7.86-9.19,11.29-10.3a6.63,6.63,0,0,1,8.31,4,6.25,6.25,0,0,1-3.93,7.92Z"/><path class="cls-5" d="M292.93,206.9c-3.54-.71-12.49-8.92-12.49-8.92s11.62-4.12,15.16-3.41a6.32,6.32,0,0,1,5.09,7.45A6.56,6.56,0,0,1,292.93,206.9Z"/><path class="cls-5" d="M272,222.63c-3.62-.12-13.88-6.77-13.88-6.77s10.72-5.95,14.34-5.82a6.31,6.31,0,1,1-.46,12.59Z"/><path class="cls-5" d="M288,172c.46,3.45,8.3,12.66,8.3,12.66s5.16-10.81,4.7-14.27a6.5,6.5,0,0,0-7.34-5.44A6.36,6.36,0,0,0,288,172Z"/><path class="cls-5" d="M263.71,190.74c1.52,3.16,11.86,9.69,11.86,9.69s1.56-11.8,0-15a6.66,6.66,0,0,0-8.7-3.08,6.2,6.2,0,0,0-3.32,8.12Z"/><path class="cls-5" d="M242.73,212c.94,3.36,10,11.48,10,11.48s3.61-11.38,2.67-14.74a6.6,6.6,0,0,0-8-4.46,6.28,6.28,0,0,0-4.68,7.54Z"/></g><g class="cls-2"><path class="cls-3" d="M254,195s1.46-29.57,18.35-46.07a44.22,44.22,0,0,0,13.16-25.4,72.73,72.73,0,0,0,.58-13.79"/><path class="cls-4" d="M296.7,99.27c-1.19,3.29-10.82,10.76-10.82,10.76s-2.75-11.6-1.57-14.89a6.63,6.63,0,0,1,8.34-3.89,6.25,6.25,0,0,1,4.11,7.82Z"/><path class="cls-4" d="M300.35,120.9c-2.84,2.14-15.16,3.37-15.16,3.37s4.25-11.17,7.1-13.32a6.73,6.73,0,0,1,9.2,1.1,6.14,6.14,0,0,1-.87,8.64Z"/><path class="cls-4" d="M288.69,151.89c-3.59.46-14.86-4.46-14.86-4.46s9.54-7.58,13.12-8a6.5,6.5,0,0,1,7.37,5.41A6.38,6.38,0,0,1,288.69,151.89Z"/><path class="cls-4" d="M274.36,173.39c-3.46,1-15.41-2-15.41-2s8.07-9,11.52-10.06a6.61,6.61,0,0,1,8.21,4.13,6.26,6.26,0,0,1-4.12,7.84Z"/><path class="cls-4" d="M272,120.58c1.62,3.11,12.2,9.3,12.2,9.3s1.14-11.85-.49-15a6.68,6.68,0,0,0-8.8-2.8,6.19,6.19,0,0,0-3,8.21Z"/><path class="cls-4" d="M255.55,146c2.52,2.5,14.53,5.36,14.53,5.36s-2.6-11.63-5.12-14.13a6.75,6.75,0,0,0-9.27-.14,6.13,6.13,0,0,0-.39,8.66Z"/><path class="cls-4" d="M243.11,172.73c2,2.87,13.38,7.64,13.38,7.64s-.52-11.89-2.56-14.76a6.72,6.72,0,0,0-9.11-1.64,6.15,6.15,0,0,0-1.89,8.49Z"/></g><ellipse class="cls-1" cx="96.39" cy="291.64" rx="10.32" ry="1.42"/><ellipse class="cls-1" cx="56.87" cy="295.65" rx="10.32" ry="1.42"/><ellipse class="cls-1" cx="10.32" cy="290.22" rx="10.32" ry="1.42"/><ellipse class="cls-1" cx="72.68" cy="307.06" rx="7.33" ry="1.01"/><ellipse class="cls-1" cx="31.67" cy="306.05" rx="7.33" ry="1.01"/><ellipse class="cls-1" cx="418.49" cy="281.67" rx="16.57" ry="2.28"/><path class="cls-6" d="M271.27,50.77,259.61,53s20.35-1.92,26.44-1.6,19.82,8,19.82,8,6.49,2.06,14.16,9.28a59.48,59.48,0,0,1,5.24,5.61c6.12,7.42,12.27,18.3,16.08,34,.41,1.62.76,3.27,1.1,5,.68,3.46,1.25,7.13,1.69,11,.2,1.8.38,3.65.52,5.56s.25,3.68.33,5.59.13,3.67.15,5.57c0,2.55,0,5.16-.06,7.86q-.07,2.7-.22,5.5v.22a181.82,181.82,0,0,1-4.46,32.59c-.23.94-.46,1.88-.7,2.79a110,110,0,0,1-4.06,12.37q-.41,1.07-.85,2.08-1,2.38-2.06,4.54-.88,1.78-1.78,3.41c-.12.22-.24.44-.37.66q-.44.78-.9,1.53c-10.5,17.56-23.39,21.84-28.52,22.88-.71.14-1.27.23-1.66.27h0c-.38,0-.59.05-.59.05-1.22,4.62,1.1,6.49,3.89,7.16a11.81,11.81,0,0,0,1.37.24h0a20.1,20.1,0,0,0,5.47-.22s12.52.56,25.67.87l3,.07h0l1.1,0c6.8.13,13.44.18,18.28,0h0c2.3-.07,4.19-.18,5.49-.35,9.94-1.29,7.05-7.71,4-12.67-2.62-4.27-1.32-11.88,3-24.43q1-3.05,2.32-6.49c4.71-12.76,4.44-31.84,3.33-48-.15-2.13-.3-4.21-.47-6.21-.2-2.46-.41-4.81-.61-7a121.75,121.75,0,0,0-6.87-29c-.44-1.22-.89-2.43-1.33-3.55a86.18,86.18,0,0,0-4.41-9.7c-.36-.64-.69-1.22-1-1.7l-.28-.45c-.54-.87-1.1-1.87-1.68-3-.85-1.59-1.73-3.38-2.6-5.24-2.21-4.72-4.36-9.89-5.78-13.38-1-2.56-1.68-4.24-1.68-4.24a6.42,6.42,0,0,1,.71-2c5.39-9.85,36.64-15.51,36.64-15.51L402,54.33l31.14,2.24-34-5.13-5.27-.81s1.53-.16,3.79-.53h0c4.49-.73,11.87-2.26,15.92-4.92,3.24-2.13,20.36-3,35.72-3.42V37.84l-2.87,2-33,.49,16-20.51L408.34,41.48c-3.33.67-9.73,2.17-17.09,4-5.07,1.24-10.59,2.62-15.87,3.93-13,3.24-24.56,6.21-24.56,6.21a57.09,57.09,0,0,1,22.5-41.66L391.44.21h-4.7c-13.38,8-33.55,23.95-33.55,23.95A181.55,181.55,0,0,1,356.37.23h-6.16q-.11,1.16-.28,2.31c-2.43,16.48-3.62,35.9-3.62,35.9-2.08,14.11-7.71,2.08-7.71,2.08.5-16-6-31-11.12-40.31h-6.83c3.16,6.43,2.1,11.13,2.1,11.13C312.29,3.54,304,.91,298.28.21a24.19,24.19,0,0,0-6.34,0,11.25,11.25,0,0,0-2.36.55c21.15,1,36.22,17,36.22,17,1.68.41,5.91,13.51,7.71,30.14.26,2.43.48,5,.62,7.53.48,8.58-.6,12.07-2,13.26a2.53,2.53,0,0,1-3.07,0,6.2,6.2,0,0,1-1.19-.92C324.58,62.23,312.06,56,300.7,51.16c-2.41-1-4.76-2-7-2.84a26,26,0,0,1-15.58-17.49c-3.72-13.59-10.69-13.07-10.69-13.07,8.18,6.25,7.71,25.15,7.71,25.15l-27.08-5.72c12.87,3.46,34,11.49,34,11.49l-10.77,2.07Z"/><path class="cls-6" d="M241,35.71l7.06,1.49A49.53,49.53,0,0,0,241,35.71Z"/><path class="cls-7" d="M322.17,229.1a21,21,0,0,1,14.12-1.76c8.16,1.76,20.66.81,21.8.64Z"/><path class="cls-7" d="M348.28,133.13s2,31.33-1.55,37.5Z"/><path class="cls-7" d="M355.61,170.63s-2.54,29.34-4.31,35.08S355.61,170.63,355.61,170.63Z"/><path class="cls-7" d="M358.1,98.49c1.8.68,9.52,16.33,8,21S358.1,98.49,358.1,98.49Z"/><path class="cls-7" d="M338.51,82.23c.84.38,4.43,9.4,3.71,12.07S338.51,82.23,338.51,82.23Z"/><path class="cls-7" d="M371.95,134.86c-.89,9.1-1.37,15.05-.81,22.34a85.67,85.67,0,0,1-.24,17Z"/><path class="cls-7" d="M275.26,28.91a7.27,7.27,0,0,1,1.5,4.61c.05,1.65-.16,3.3-.05,4.94s.94,3.76,2.66,4Z"/><path class="cls-8" d="M361.45,20.18a18.9,18.9,0,0,0-3.6,2.48,6.44,6.44,0,0,0-2.09,3.75c-.08.62,0,1.25-.17,1.86a5.86,5.86,0,0,1-1.22,2.25,30.6,30.6,0,0,1-3,3.36"/><path class="cls-7" d="M351,62a22.31,22.31,0,0,1,2.9-2,12.21,12.21,0,0,1,3-1.31,34.3,34.3,0,0,1,4.92-.53,7,7,0,0,0,4.49-1.85Z"/><path class="cls-7" d="M416.15,41.78a13.14,13.14,0,0,0-5.71,1c-.88.46-1.65,1.11-2.52,1.59a7.67,7.67,0,0,1-3.68,1Z"/><path class="cls-7" d="M389.11,49.83a1.09,1.09,0,0,1,1.4.33c.34.4.54.92.9,1.31a4.05,4.05,0,0,0,2.92.9Z"/><path class="cls-7" d="M378,8.41l-1.87,1a34,34,0,0,0-5.52,3.37Z"/><path class="cls-7" d="M356.55,26.73c-1.22-.29-2.3,1-2.51,2.27s0,2.56-.32,3.78a7,7,0,0,1-1.85,2.77Z"/><path class="cls-7" d="M335.7,29c-1.12,3.35,1.26,7,.56,10.46-.21,1.05-.7,2-.95,3.08a9.35,9.35,0,0,0,2.27,7.86Z"/><path class="cls-9" d="M56.64,295.33s14.47-47.43-2.26-66.43c-12.52-14.2-26.73-12.51-33.09-10.76a11.76,11.76,0,0,0-7.59,6.31c-2.22,4.8-1.82,12.59,13.88,21.69,26.3,15.22,27.93,36.1,27.93,36.1Z"/><path class="cls-10" d="M23.55,224.87s42.65,13.34,33.09,70.46"/><path class="cls-10" d="M48.47,229.66s-5.87,4-4,9.9"/><path class="cls-10" d="M27.83,233.18s3.59-3.65,8-1.62"/><path class="cls-10" d="M44.69,251.55s6.31-3.2,7.94.81"/><path class="cls-10" d="M60.29,258.22s-4.73-.38-4.82,1.89"/><path class="cls-9" d="M57.23,295.71S40.28,261.24,35.63,262c-2.21.36-3.24,2.53-3.69,4.72a13.88,13.88,0,0,0,.92,8.39C35.26,280.62,41.72,291.09,57.23,295.71Z"/><path class="cls-10" d="M35.75,268.53S53.54,294.32,57,295.46"/><line class="cls-10" x1="34.12" y1="272.56" x2="38.27" y2="272.56"/><line class="cls-10" x1="39.09" y1="281.99" x2="45.6" y2="282.27"/><line class="cls-10" x1="43.05" y1="274.45" x2="42.35" y2="277.83"/><line class="cls-10" x1="49.97" y1="284.76" x2="49.85" y2="287.84"/><path class="cls-9" d="M56.72,295.71S73.67,261.24,78.33,262c2.21.36,3.24,2.53,3.69,4.72a13.88,13.88,0,0,1-.92,8.39C78.69,280.62,72.23,291.09,56.72,295.71Z"/><path class="cls-10" d="M78.2,268.53S60.41,294.32,57,295.47"/><line class="cls-10" x1="79.84" y1="272.56" x2="75.68" y2="272.56"/><line class="cls-10" x1="74.87" y1="281.99" x2="68.36" y2="282.27"/><line class="cls-10" x1="70.91" y1="274.45" x2="71.61" y2="277.83"/><line class="cls-10" x1="63.98" y1="284.76" x2="64.11" y2="287.84"/><path class="cls-9" d="M27.63,303.76a3,3,0,0,1-1-1.46,1.29,1.29,0,0,1,.67-1.48,1.91,1.91,0,0,1,1.78.62,2.41,2.41,0,0,0,1.73.84,2.64,2.64,0,0,1-.81-2.47,1,1,0,0,1,.23-.5c.34-.37,1-.21,1.38.08,1.31.92,1.67,2.7,1.68,4.3a8.08,8.08,0,0,0,0-1.77,1.82,1.82,0,0,1,.67-1.57,2,2,0,0,1,1-.24,2,2,0,0,1,1.62.47,1.64,1.64,0,0,1-.06,2,6.43,6.43,0,0,1-1.7,1.37,3.7,3.7,0,0,0-1.22,1.16,1.39,1.39,0,0,0-.09.21H29.89A10.38,10.38,0,0,1,27.63,303.76Z"/><path class="cls-9" d="M92.2,289.88a2.93,2.93,0,0,1-1-1.46,1.29,1.29,0,0,1,.67-1.48,1.88,1.88,0,0,1,1.78.62,2.38,2.38,0,0,0,1.74.84,2.64,2.64,0,0,1-.81-2.47,1.06,1.06,0,0,1,.23-.5c.34-.37,1-.21,1.38.08,1.31.92,1.68,2.7,1.68,4.3a8,8,0,0,0,0-1.77,1.82,1.82,0,0,1,.67-1.57,2,2,0,0,1,1-.24,2.09,2.09,0,0,1,1.65.47,1.65,1.65,0,0,1-.06,2,6.36,6.36,0,0,1-1.7,1.36,3.87,3.87,0,0,0-1.22,1.16,1.1,1.1,0,0,0-.09.21H94.48A10.2,10.2,0,0,1,92.2,289.88Z"/><path class="cls-9" d="M70.68,303.76a3,3,0,0,1-1-1.46,1.3,1.3,0,0,1,.68-1.48c.62-.24,1.28.19,1.78.62a2.41,2.41,0,0,0,1.73.84,2.65,2.65,0,0,1-.81-2.47,1.07,1.07,0,0,1,.23-.5c.34-.37,1-.21,1.38.08,1.31.92,1.67,2.7,1.68,4.3a8.08,8.08,0,0,0,0-1.77,1.82,1.82,0,0,1,.67-1.57,2,2,0,0,1,1-.24,2.11,2.11,0,0,1,1.65.47,1.65,1.65,0,0,1-.06,2A6.37,6.37,0,0,1,78,304a3.74,3.74,0,0,0-1.22,1.16,1.06,1.06,0,0,0-.09.21H73A10.31,10.31,0,0,1,70.68,303.76Z"/><path class="cls-9" d="M9.64,275.7s-1.38,1.8.64,4.53,3.69,5,3,6.74c0,0-3-5.07-5.53-5.14S6.92,278.74,9.64,275.7Z"/><path class="cls-7" d="M9.64,275.7a2.28,2.28,0,0,0-.28.56c-2.43,2.84-3.71,5.5-1.38,5.56,2.17.06,4.77,3.94,5.39,4.92a.69.69,0,0,1-.07.22s-3-5.07-5.53-5.14S6.92,278.74,9.64,275.7Z"/><path class="cls-11" d="M7.08,278c0,.63.07,1.15.16,1.15s.16-.52.16-1.15-.09-.34-.17-.34S7.08,277.36,7.08,278Z"/><path class="cls-11" d="M6.19,278.76c.56.3,1,.49,1.09.41s-.38-.39-.94-.69-.34-.09-.38,0S5.64,278.45,6.19,278.76Z"/><path class="cls-9" d="M16.95,275.7s1.38,1.8-.64,4.53-3.68,5-3,6.72c0,0,3-5.07,5.53-5.14S19.69,278.74,16.95,275.7Z"/><path class="cls-7" d="M16.95,275.7a2.28,2.28,0,0,1,.28.56c2.43,2.84,3.71,5.5,1.38,5.56-2.17.06-4.77,3.94-5.39,4.92a1.62,1.62,0,0,0,.08.22s3-5.07,5.53-5.14S19.69,278.74,16.95,275.7Z"/><path class="cls-11" d="M19.52,278c0,.63-.07,1.15-.16,1.15s-.16-.52-.16-1.15.09-.34.17-.34S19.52,277.36,19.52,278Z"/><path class="cls-11" d="M20.4,278.76c-.56.3-1,.49-1.09.41s.37-.39.93-.69.34-.09.38,0S21,278.45,20.4,278.76Z"/><path class="cls-12" d="M19.08,286.73s-3.87-.12-5-.94S8.1,284,7.82,285.29,2,291.91,6.37,291.94s10.14-.68,11.3-1.39S19.08,286.73,19.08,286.73Z"/><path class="cls-13" d="M6.31,291.48c4.36,0,10.14-.68,11.3-1.39.88-.54,1.24-2.47,1.35-3.37h.13s-.25,3.12-1.41,3.83-6.94,1.42-11.3,1.39c-1.26,0-1.7-.46-1.67-1.12C4.87,291.22,5.35,291.47,6.31,291.48Z"/><path class="cls-14" d="M396.6,184.81c-1.65-1.4-6.59-10-8-12.49l-.37-.66h0c.51-1.92-2.69-4.71-3.63-5.48-2-2.31-4.79-5.19-7.11-5.88-3-.88-5.06.11-7.3-.28a5.7,5.7,0,0,1-1.58-.51,7.87,7.87,0,0,1-.94-.56,11.55,11.55,0,0,1-2.14-2,4.66,4.66,0,0,0,1.22-.32q3.47-1.29,6.81-2.88a2.15,2.15,0,0,0,1.2-1c.08-.21.09-.45.19-.65a1.83,1.83,0,0,1,1.22-.77c1.71-.52,3.57-1.54,3.85-3.31a4.46,4.46,0,0,0,0-.7,3,3,0,0,1-.32.52c.06-.6,0-1.22.06-1.8a3.6,3.6,0,0,1,.59-1.43,4.77,4.77,0,0,0,0,.59c.67-1.44,2.27-2.48,2.79-4a4.51,4.51,0,0,0,.21-1.28,4.46,4.46,0,0,1-.37.69c.3-1.76-.47-3.74.43-5.27.06-.1.13-.2.2-.3a4.87,4.87,0,0,0-.05.6c0-.1.09-.2.15-.3.43-.72,1.18-1.25,1.4-2.06a2.36,2.36,0,0,0,0-.91,4.06,4.06,0,0,1-.28.38,5.08,5.08,0,0,0-.17-1.12c-.64-2.78-1.59-5.94-4.19-7.1a7.86,7.86,0,0,1-2.34-1.09c-1.45-1.35-.67-4.23-2.33-5.27-.73-.47-1.86-.52-2.14-1.34-.16-.47.06-1-.12-1.47-.37-1-1.82-.64-2.88-.6A2.62,2.62,0,0,1,368,112a7.71,7.71,0,0,0-6.39-.3c-1.07.43-2.12,1.13-3.27,1-.56-.05-1.07-.29-1.62-.39-2.27-.41-4.21,1.55-6.38,2.35s-5,.51-6.81,2.11c-1.57,1.42-1.86,3.92-3.53,5.22-.89.69-2,.94-3,1.57s-1.58,2-.86,2.87c.9,1.1,3.21.51,3.65,1.87.35,1.09-1,1.9-1.52,2.92a2.27,2.27,0,0,0,1.56,3.12h0v0a14.69,14.69,0,0,0,7,17.67c.2.37.41.77.63,1.22a30.86,30.86,0,0,1,3.16,9.44c-1.52-.5-4.71,2.41-4.71,2.41a34.85,34.85,0,0,1-4.92.9c-3.41.45-3.14,1.78-3.13,1.79l-.21.19c-1.76,1.55-13.76,12.28-15.68,12.68l.1.41-.49.37-5.94,4.4h0s-4.55.3-9,.81-10.81,1.87-6.19,7.25a2.74,2.74,0,0,0,.41.41l-17.93-1.06a.79.79,0,0,0,.2-.47c0-.41-.46-.81-1.26-1.12l0-.13c2.26-.06,5.07-.17,6.94-.34.49,0,.9-.1,1.22-.15,2.8-.45-.22-2.58,1.12-4.26s0-8,.11-9.3-.89-6.72-1.79-7.85-1-5.94-1-5.94-2.13-1.91-3.35-8.41-6.15-9.86-7.71-10.2-3.91-1.68-3.91-2-2.68-.45-3.8-.9a12.21,12.21,0,0,0-2.57-1.12h0a5,5,0,0,0,.79-1.18,2.73,2.73,0,0,1,1-1.08l.25-.1a1,1,0,0,1,.26,0,.76.76,0,0,1,.27,0c.33.09.67.37,1,.21a.35.35,0,0,0,.11-.09.9.9,0,0,0,.17-.41h0c0-.17.06-.34.09-.51v0c0-.17,0-.35,0-.52h0c.06-1.27-.12-2.58.47-3.67l0-.05h0c.59-1.05,1.76-1.62,2.7-2.4q.29-.24.56-.5l.2-.21.3-.33c.1-.11.15-.2.23-.3l.21-.29.24-.37L276,129c0-.08.16-.28.23-.43l.09-.2c.08-.16.15-.33.21-.49l.05-.15c.07-.19.13-.37.18-.56V127a7.54,7.54,0,0,0,.23-1.22,8,8,0,0,0-1.84-5.84c-1-1.22-2.52-2.28-2.6-3.87a6.06,6.06,0,0,1,.49-2.17h0a5.42,5.42,0,0,0,.24-.93h0a2.58,2.58,0,0,0,0-.43,4.34,4.34,0,0,0-1.62-3,10.42,10.42,0,0,0-9.37-2.47,7.41,7.41,0,0,1-2.62.43,9,9,0,0,1-2.81-1.29,7.19,7.19,0,0,0-9,2.43c-1.06,1.65-1.47,3.81-3.05,5-.93.69-2.22,1-2.89,1.87h0a2,2,0,0,0-.21.33,2.48,2.48,0,0,0-.24,1.11,7.56,7.56,0,0,0,.1,1.17,5.36,5.36,0,0,0,1.7,3.26h0l.23.24.05.06c.16.18.32.36.45.54l0,0,.13.18-.17.2a13.47,13.47,0,0,0,2,18.81v.43c0,.75-.09,1.55-.15,2.36a1.93,1.93,0,0,0-1.53-.53,1.62,1.62,0,0,0-.76.07,2,2,0,0,1-.44.09,8.85,8.85,0,0,0-1.68-.19,1.88,1.88,0,0,0-1.58.55c-1.11,1-5,2.35-6.85,2.46a1.17,1.17,0,0,1-.41-.1,1,1,0,0,0-.62-.06c-1.18-.26-4.46,2-5.2,3.42s-3.35,5.38-3.35,5.38-2.24,2.69-1.9,4.15a3.78,3.78,0,0,1-2.13,3.81c-1.34.67-4,7.4-4,7.4s-2.91,6.16-5.93,7.73c-1.18.62-1.56,2-1.58,3.55-.7,0-1.22,0-1.22,0s-9.4,2.39-12.38.6-13.42-2.24-13.42-2.24l-10.66-11.39-.43-.46c1.88-1.6-1.29-2.78-1.29-4a1.91,1.91,0,0,0-1.19-1.65l-.14.16a2.08,2.08,0,0,0-.31-.16,3,3,0,0,1-.88.75c-.22-.14-.36-.56-.31-1.5.09-1.82-1.09-3.75-2-5a70.76,70.76,0,0,1,5.78-12.69c.11-.2.22-.41.33-.59a13.12,13.12,0,0,0,4.46-20.65l-.43-.46.33-.09a2.43,2.43,0,0,1,.43,0c1,0,2.07.47,3,.43a1.76,1.76,0,0,0,.83-.16c1-.49.75-1.79.17-2.45-.71-.81-1.83-1.35-2.34-2.26a7.22,7.22,0,0,1-.53-1.74,6.2,6.2,0,0,0-3.78-3.91,8,8,0,0,0-5.95.13c-.88.41-1.65.94-2.57,1.27a10.09,10.09,0,0,1-6-.24c-1.14-.32-2.28-.69-3.43-.94a17.18,17.18,0,0,0-1.58-5c-.06-.13-.13-.24-.2-.37,1.95-.67,4.49-.55,5.5-2.32a3.88,3.88,0,0,0,1.85-.24,1.32,1.32,0,0,0,.75-1.54,1.22,1.22,0,0,0-.25-.37h0a4.65,4.65,0,0,0-.81-.61,4.79,4.79,0,0,1-2.06-3.69.14.14,0,0,0,0,.1,4.37,4.37,0,0,1,0-.52,22.24,22.24,0,0,0,.21-2.31,3,3,0,0,0-.22-.94V95A3.41,3.41,0,0,0,154,92.82c-.51,0-1,.16-1.51.18-2.43.07-4.44-2.66-6.8-2.11a5.85,5.85,0,0,1-1.5.39c-1.19,0-1.92-1.36-3.06-1.72-.9-.29-1.88.11-2.84,0a6.73,6.73,0,0,1-2.47-1.07c-1.7-.93-4-1.34-5.46-.1a5,5,0,0,1-1.06.85,3.08,3.08,0,0,1-1.54.09,14.29,14.29,0,0,0-4.6.31,1.74,1.74,0,0,0-1.05.55,3.08,3.08,0,0,0-.33,1.07c-.45,1.76-2.63,2.36-4.44,2.51a2.56,2.56,0,0,0-1.34.36,2,2,0,0,0-.34,2.27,10.79,10.79,0,0,1,.88,2.29c.26,2-1.94,3.6-2.3,5.63-.51,2.81,2.6,5.56,1.54,8.22-.47,1.18-1.72,2.08-1.66,3.35s1.28,2,2,3a8.29,8.29,0,0,1,1.3,3.24c.44,1.76.52,5.07,2.4,5.91h0l.24.1.32.08-.26.39a42.07,42.07,0,0,1-7,8.08l-.25.2a1.81,1.81,0,0,0-1-.44c-1.34-.15-4.77,2.24-4.77,3.44S104,143,100.4,146.41s-3.58,19.87-2.38,23a64.78,64.78,0,0,1,1.76,7.94,4.4,4.4,0,0,0-1.62,2.37c-1.34,5.68.6,10.16,2.23,10.61s1.23-2,1.23-2c-1.31-2.84-1.56-5-1.07-6.7.6,3.68,1.07,6.7,1.07,6.7s4.33,13.75,6,17.93S115,236.67,115,236.67a26,26,0,0,0,1.78,2l1.35,7.45,2.23,4.49h.17l-.34,3.2s.3,13.45-.45,15.47-7.38,38.56-7.38,38.56-2.09,12.85-1.94,16l4.85,1s-1-2.77.45-7.92,4.17-14.8,4.17-14.8l2.84-12.85.21,9.19s-2.53,11.43-2,12,4.4.81,4.4.81a53.86,53.86,0,0,1,.81-9.49c.71-2.93,8.63-33.31,10.64-41a19.08,19.08,0,0,1,8.74-1.41c10,.56,15.67,4.23,18.81,8-7.2,3.8-13.26,6.94-13.26,6.94l.07.41h0l-.06,0-.15.09-.08,0-.15.09-.11.06-.17.1-.11.06-.2.12-.09.05-.67.41-.07,0L149,276l-.09,0-.3.17-.08,0-.34.2,0,0-.41.23h0l-.41.24,0,0-.37.21-.1.06-.3.17-.14.08-.28.15-.14.08-.3.17-.11.06-.41.22h0l-.38.21-.11.05-.29.15-.12.06-.25.13-.13.07-.25.13-.11.06-.29.15,0,0-.32.16-.07,0-.23.11-.1,0-.18.08-.1,0-.16.06-.09,0-.15.06-.07,0-.18.06c-1.92.58-3.29,5.44-1.22,8.57s1.64,8.57.55,10.65.27,5.79.55,6.72c.21.71,2.72,1.47,6.69,1.29a28.2,28.2,0,0,0,6.38-.48c6.31-1.16,4-3.71,3.29-5.56s-.81-7.18.14-9.61q.1-.26.17-.52c1.48-1.65,3.85-4.36,5.75-6.82.87-1.14,3.07-2.15,5.75-3,2.14,8.78,6.41,26.16,7.35,28.94,1.27,3.74,1.94,12.93,1.94,12.93l4.92-.45-1.62-24.44-1.76-19.47c2.33-.41,4.13-.66,4.71-.74,2.4,9.24,4.68,18,5.05,19.55A53.86,53.86,0,0,1,191,307s3.88-.22,4.4-.81-2-12-2-12l.47-20.22c5.57-2.61,12.34-5.76,15.33-7.06a97.11,97.11,0,0,0,11.4-6.65l6.89,56.27,4,.34,2.15-.49,2.77-.63,6.33-50.73.69.56a13,13,0,0,0,.26,5,21.81,21.81,0,0,1,.11,9.3c-.56,1.8-2.46,4.26,2.68,5.38s8.61.11,8.84-.78,1.34-4.49.45-6.49-1.22-7.3.45-10.31.56-7.73-1-8.29c-1-.37-2.56-1-3.48-1.45l-.29-.37a7.6,7.6,0,0,1,2.43-2.11A4.16,4.16,0,0,0,256,251s2.8,0,4.81-3.37c1.41-2.36,3-4.71,3.89-6.41.17,1.08.37,2.43.47,3.57.22,2.39,3,25.63,4.25,27.58s.22,9.27.22,9.27h4.1l-.3-11.21s-4.62-33-.75-36.32c.68-.59,1.34-1.19,2-1.78l7.65,55.93c0,.41,0,.7,0,.92s0,.41,0,.41-3.28,1.65-.89,3.29a6.11,6.11,0,0,0,1.69.71l.17,1.22a17.41,17.41,0,0,1-2.6,0c-.52-.22-.52,6.95-.52,6.95s-2.91,5.83-3.28,7.25-3.28,4.93-3.28,4.93-4.18,3.06,1.94,4.26a35.23,35.23,0,0,0,12.82-.37s4.46-7.77,4.87-7.32,0,4.11,0,4.11l2.61-.67s-.45-4.87.6-7.47c.81-2.08-1-8.63-1.76-11.24l.49,0a14.79,14.79,0,0,0,.9-3.59.82.82,0,0,1,0-.24,34.71,34.71,0,0,1,1.46-5.73c.74-2.39,0-2.09,0-3.59a54.44,54.44,0,0,1,.81-7.68,1.13,1.13,0,0,1,0-.23,3.58,3.58,0,0,0,1.09.48c.45,1.24.92,2.66,1.22,3.85-.81.25-1.36.54-1.45.88-.45,1.65.15,5.15.15,5.15s.67,7.92-.6,9.12-3.88,3.36-2.16,5.61a2.84,2.84,0,0,0,.6.56,11.9,11.9,0,0,0,5.91,1.62l-1,14.64,4.88.45s.67-9.19,1.94-12.93c.28-.81.86-3,1.59-5.79,1.85-2.77,2.88-4.75,2.88-4.75l1.27,5.23,4.4-1.12s-2.38-4.63-2.09-6.27-1.27-4-2.53-5.83c-.16-.23-.33-.53-.51-.86,1.89-7.65,3.57-14.6,3.57-14.6s1.19-15.53,22.74-16.75a19.06,19.06,0,0,1,8.74,1.41c2,7.71,9.93,38.12,10.65,41a53.86,53.86,0,0,1,.81,9.49s3.88-.22,4.4-.81-2-12-2-12l.21-9.19,2.84,12.85s2.76,9.64,4.17,14.8.45,7.92.45,7.92l4.85-1c.15-3.14-1.94-16-1.94-16s-6.64-36.54-7.38-38.56-.45-15.47-.45-15.47l-.33-3.13c5.27-3.71,8.23-23.55,8.23-23.55l5.5-30.75a37.25,37.25,0,0,0,2.19-4.93v0l.66.74,3.2,7.85c6.34,8.89,12.67,8.59,12.67,8.59l0-.06a4.2,4.2,0,0,0,3.24-.85l.06-.05C403.31,199.31,398.54,186.46,396.6,184.81ZM284.69,203.4l-1.18-4.76,1.27,0ZM265.6,141.35a3.68,3.68,0,0,0-.38.27c-.12-.3-.23-.61-.34-.92A2.13,2.13,0,0,0,265.6,141.35Zm-38.38,65.06a9.86,9.86,0,0,0-2.13,4.06l.48.11-3.45,3.09-1.74-15,8.42.37C228.32,202.77,227.78,205.68,227.22,206.41Zm8.16,31.16s1.74-.41,4-1.06l-.72,5.39C236.64,239.28,235.38,237.58,235.38,237.58Zm-4.83-59.21.06-.14v.14Zm-43,37.09c-1.88-.85-15.18-4.94-20-6.42a1,1,0,0,1-.12-.76c.45-1.49-3-5.53-4.32-6.57s-3.13-3-1.64-4.19a2.53,2.53,0,0,0,.73-1.36l13.86.6a34,34,0,0,0,4.06,1.22s2.36-.31,5.46-.81l27.43,1.19,2.6,21.22a37.07,37.07,0,0,0-2.87,2.75,20.8,20.8,0,0,0-2.06,7.45l-14.31-4.46a2.07,2.07,0,0,0,.08-.22C197.74,220.16,189.82,216.5,187.51,215.46ZM162.42,192.7c0-1-.11-1.76-.11-1.76L162,187.6c2.7,1.65,5.62,3.48,7.71,4.92ZM227,255.86l.3-.2a4.09,4.09,0,0,0,2-1.4l3.29,2.84a23.11,23.11,0,0,1-5,3.67Zm57.14-23.37-.53,29.06-4-26.92C280.76,234.07,282.54,233.24,284.17,232.5ZM309.28,193s4.32,5.38,7.68,3.59h0c.75.1,6.25-2.87,9.77-4.83a16,16,0,0,0,1.71,2.06l2.13-1.1.43-.22c.21,2.32.58,6.17.87,8.65.45,3.72-5.76,8.77-5.82,8.82h0s0,.19,0,.48c-.3.27-.49.41-.49.41l.5-.09c0,1.17,0,3.24-1.1,3.68-1.49.6-2.38,1-5.37.15a55.79,55.79,0,0,0-11.06-1.82c-5.18-.3-10.72.26-13.38,3.31-.09.11-.18.23-.27.35l-.13.2a1.32,1.32,0,0,0-.27.13,1.1,1.1,0,0,0,0,.25c-1.44,2.6-1.85,7.42-1.76,12.6l-.45.19-.22.1-.17.08-.46.22-.28.14-.36.19-.41.22-.23.14-.51.31-.12.08a6.71,6.71,0,0,0-.58.41l0,0-.21.15.5-33.31,22.06-.41L311,195l-3.41-.21A9.38,9.38,0,0,0,309.28,193ZM151,276l.12-.3s0,0,0-.08l.12-.27h0l.12.64-.49.28.1-.26ZM229,272.51a33,33,0,0,0,5.83-1.62L231.58,295Zm54.94,21.3.91.2v.7l-.95,0Z"/><path class="cls-15" d="M435.23,281.84c0-.87-3.53-1.62-8.73-2-1.41-2.35-3.63-4.91-3.85-5.95-.31-1.41-3.74-1.22-6.59-.52,1.79-2.3,4.38-5,6.66-5.08s2.41-1.84,1.1-4.3a8.32,8.32,0,0,0,1.44-.64c.9-.49.43-.34.37-.46s.29-.48-.61,0a8.42,8.42,0,0,0-1.31.85,8,8,0,0,0,.13-1.62c0-1-.09-.54-.23-.54s-.28-.48-.28.54a10.72,10.72,0,0,0,0,1.09,34.18,34.18,0,0,0-3.67-4.81h0v0h0l.1.16v0s0,.06.05.1v0a3,3,0,0,1,.15.32.17.17,0,0,1,0,0l.06.15c.43,1.18.72,3.47-1.47,6.44s-4.19,5.71-4.87,8c-.67-2.28-2.62-5-4.87-8s-1.9-5.27-1.47-6.44l.06-.15v0l.15-.32v0s0-.07.05-.1v0l.1-.16h0v0h0a34.18,34.18,0,0,0-3.67,4.81c0-.31,0-.68,0-1.09,0-1-.14-.54-.28-.54s-.23-.48-.23.54a7.92,7.92,0,0,0,.13,1.62,8.42,8.42,0,0,0-1.31-.85c-.9-.49-.54-.13-.61,0s-.54,0,.37.46a8.32,8.32,0,0,0,1.44.64c-1.31,2.47-1.3,4.24,1.1,4.3,2.75.08,5.94,4,7.65,6.41-1.71,1.17-6.77,1.45-7.85,1.5h-.21a19.38,19.38,0,0,0,.43,2.66,11.72,11.72,0,0,0,.49,1.6c-2.15.39-3.43.86-3.43,1.39,0,1.1,5.61,2,13.09,2.23a89.26,89.26,0,0,0,9.88.54,4,4,0,0,0,.56,0h.08a2.61,2.61,0,0,0,.45-.06l.09,0,.38-.1.06,0,.3-.13h0L427,284l0,0a1.11,1.11,0,0,0,.17-.19l0,0C432.11,283.37,435.23,282.66,435.23,281.84Z"/><path class="cls-16" d="M156.25,285.11s.81,3.8-.14,6.23-.81,7.71-.14,9.57,3,4.38-3.28,5.54-10.54.11-10.8-.81-1.64-4.61-.55-6.69,1.5-7.5-.55-10.61-.69-8,1.22-8.52,10.18-5.49,10.18-5.49-3.06,5.32.22,6.49A6,6,0,0,1,156.25,285.11Z"/><path class="cls-17" d="M225.4,255.61s-12.65,8.78-18.15,11.16-23.81,11-23.81,11S165,280.16,162,284s-7.14,8.33-7.14,8.33l-3.27-18.15s36.3-18.75,36.6-20.09,10.72-5.36-19.64-5.21c-26.6.13-36.4,1.86-38.62-1.82a4.06,4.06,0,0,1-.51-1.9c-.3-6.08,35.71-33,35.71-33s1.76.92,3.86,2.15a33,33,0,0,1,6.26,4.4c2.38,2.53,8.18,3.27,8.18,3.27l35.41,11s10.42,3.27,10.71,12.5S225.4,255.61,225.4,255.61Z"/><path class="cls-7" d="M229.57,245.5c-.3-9.24-10.71-12.49-10.71-12.49l-35.41-11s-5.8-.75-8.18-3.27a33,33,0,0,0-6.26-4.4c-2.1-1.22-3.86-2.15-3.86-2.15s-36,26.93-35.71,33a4.06,4.06,0,0,0,.51,1.9c2.22,3.68,12,2,38.62,1.82,30.35-.15,19.93,3.87,19.64,5.21s-36.6,20.09-36.6,20.09l.07.41c-1.84,1.09-8,4.69-9.65,5.18-1.91.58-3.28,5.42-1.22,8.52s1.62,8.52.55,10.61.27,5.76.55,6.69,4.51,2,10.8.81,4-3.69,3.28-5.54-.81-7.15.14-9.57a5.18,5.18,0,0,0,.17-.52c1.48-1.62,3.84-4.34,5.73-6.79,3-3.87,21.42-6.25,21.42-6.25s18.3-8.63,23.81-11,18.15-11.16,18.15-11.16S229.87,254.72,229.57,245.5Zm-77.14,35.29c-2.46-.87-1.36-4.08-.65-5.63l1,5.78-.39-.15Z"/><path class="cls-18" d="M179.43,254.65s10.27,39.28,11.08,42.63a52.58,52.58,0,0,1,.81,9.45s3.87-.22,4.39-.81-2-12-2-12l.74-31.84-10.86-9.15Z"/><rect class="cls-19" x="152.67" y="275.79" width="8.03" height="6.92"/><path class="cls-16" d="M158.48,285.11s.81,3.8-.14,6.23-.81,7.71-.13,9.57,3,4.38-3.29,5.54-10.54.11-10.8-.81-1.64-4.61-.55-6.69,1.5-7.5-.55-10.61-.68-8,1.22-8.52,10.17-5.49,10.17-5.49-3.06,5.32.22,6.49A6,6,0,0,1,158.48,285.11Z"/><path class="cls-16" d="M166.18,208.67s19.41,5.88,21.72,6.92,10.19,4.69,8.85,9.6-12.28,5.43-12.28,5.43l-16.67-6.18-6.55-13.24Z"/><path class="cls-20" d="M172.51,140.54s-1,1.49-2.26,3.77l-.33.58c-3.55,6.31-9.12,17.68-5.56,21.31,5,5.13-11.49-2.9-11.49-2.9l-.41-.73-6.74-12.22a87.32,87.32,0,0,0,8.49-10.05l.15-.23c1.42-2.13,2.38-4.1,2.18-5.35s1.36-1.15,3.6-.37C164.86,136,172.51,140.54,172.51,140.54Z"/><path class="cls-7" d="M172.51,140.54s-1,1.49-2.26,3.77l-.33.58a13,13,0,0,1-15.55-4.36l-.15-.22.15-.23c1.42-2.13,2.38-4.1,2.18-5.35s1.36-1.15,3.6-.37C164.86,136,172.51,140.54,172.51,140.54Z"/><path class="cls-20" d="M178,132.37a13.06,13.06,0,0,1-13.06,13.06h0a12.75,12.75,0,0,1-2.37-.22A13.05,13.05,0,1,1,178,132.37Z"/><path class="cls-7" d="M174.7,123.73a12,12,0,0,0-2,1.22c-1.26.71-2.94.69-4.14,1.39-1,.58-1,1.78-1.42,2.74-1.12,2.5-5.15,3.14-7,5.27a4.25,4.25,0,0,0-.41.56c-1,1.67-.41,3.68.37,5.44a44.15,44.15,0,0,0,2.43,4.87l.5.83c1,1.62,2.13,3.41,1.52,5.16-1,2.84-5.83,3.5-7.24,6.22-.41.81-.48,1.72-.92,2.51-.74,1.35-2.27,2-3.93,2.63l-6.74-12.22a85.91,85.91,0,0,0,8.65-10.28,13.05,13.05,0,0,1,20.33-16.33Z"/><path class="cls-21" d="M179,121c-.71-.81-1.82-1.35-2.33-2.25a7.22,7.22,0,0,1-.53-1.73,6.16,6.16,0,0,0-3.77-3.89,8,8,0,0,0-5.93.13c-.88.41-1.65.93-2.56,1.26a10.14,10.14,0,0,1-6-.24,21.86,21.86,0,0,0-5.93-1.24c-2,0-4.27,1-4.67,2.73a12.17,12.17,0,0,0-.13,1.39c-.24,2.06-2.13,3.72-4.17,4.87s-4.36,1.93-6.25,3.24-3.37,3.36-2.86,5.39A10.54,10.54,0,0,0,136,134c2.06,2.75,2.88,6,3.65,9.22a7.17,7.17,0,0,1,.28,3.38c-.48,2-2.55,3.4-3.91,5.1a10.75,10.75,0,0,0-2.13,7.3,29.64,29.64,0,0,0,1.66,7.5,9.33,9.33,0,0,0,1.14,2.6,11.88,11.88,0,0,0,4.32,3.2,5.06,5.06,0,0,0,2.38.79c1.8,0,2.84-1.73,3.22-3.22a12.63,12.63,0,0,0,.37-3.78,2.75,2.75,0,0,1,.13-1.35,2.55,2.55,0,0,1,1-1c2.57-1.54,6.45-1.81,7.78-4.23.44-.81.51-1.7.92-2.51,1.41-2.72,6.25-3.37,7.24-6.22.61-1.75-.54-3.54-1.52-5.16a42.82,42.82,0,0,1-2.94-5.68c-.75-1.76-1.36-3.77-.37-5.44,1.53-2.59,6.17-3.11,7.38-5.83.43-1,.43-2.17,1.42-2.74,1.22-.69,2.88-.68,4.14-1.39a7.92,7.92,0,0,1,2.38-1.33c1.3-.27,3.11.77,4.21.22A1.6,1.6,0,0,0,179,121Z"/><path class="cls-7" d="M178.84,121c-.71-.81-1.82-1.35-2.34-2.25A7.6,7.6,0,0,1,176,117a6.08,6.08,0,0,0-3.41-3.73,5.68,5.68,0,0,1,1.78,2.69,7.34,7.34,0,0,0,.53,1.73c.52.9,1.62,1.44,2.34,2.25.58.66.81,2-.17,2.43s-2.91-.49-4.21-.22a8,8,0,0,0-2.38,1.32c-1.26.71-2.94.7-4.14,1.4-1,.57-1,1.78-1.42,2.74-1.22,2.71-5.84,3.24-7.38,5.83-1,1.67-.38,3.69.37,5.44a43.58,43.58,0,0,0,2.94,5.68c1,1.62,2.13,3.41,1.53,5.16-1,2.84-5.84,3.5-7.25,6.22-.41.81-.48,1.71-.92,2.51-1.33,2.43-5.22,2.69-7.78,4.23a2.55,2.55,0,0,0-1,1,2.71,2.71,0,0,0-.13,1.35,12.63,12.63,0,0,1-.37,3.78c-.38,1.49-1.43,3.19-3.22,3.22a5.08,5.08,0,0,1-2.39-.79l-1.08-.59a22.1,22.1,0,0,0,2.72,1.62,5.06,5.06,0,0,0,2.39.79c1.79,0,2.84-1.73,3.22-3.22a12.62,12.62,0,0,0,.37-3.78,2.75,2.75,0,0,1,.13-1.35,2.54,2.54,0,0,1,1-1c2.57-1.54,6.45-1.81,7.78-4.23.44-.81.5-1.7.92-2.51,1.41-2.72,6.25-3.37,7.24-6.22.61-1.75-.53-3.54-1.52-5.16a43.31,43.31,0,0,1-2.94-5.68c-.75-1.76-1.36-3.77-.37-5.44,1.54-2.59,6.17-3.11,7.38-5.83.43-1,.43-2.17,1.42-2.74,1.22-.69,2.88-.68,4.14-1.39a7.92,7.92,0,0,1,2.38-1.33c1.3-.27,3.11.77,4.21.22S179.41,121.62,178.84,121Z"/><path class="cls-22" d="M322,181s2,8.52,6.49,13l1.79-3.89L328.09,183Z"/><path class="cls-7" d="M328.07,183l-6-2s2,8.52,6.49,13"/><path class="cls-23" d="M401,201.31l-.06.05a4.25,4.25,0,0,1-5.8-.53l-17-19.11-.44-.49,8.92-10.27,1.62,1,.37.66c1.4,2.45,6.31,11,8,12.43C398.45,186.72,403.21,199.52,401,201.31Z"/><path class="cls-24" d="M233.88,256.13s-4.57,4.69-7.71,5.13-5.68,10.49-1.34,11.27,12.72-2.34,13.95-3.68,5.68-9.26,5.68-9.26Z"/><path class="cls-23" d="M329.78,190.29l-2.22,1.26c-3.43,1.91-9.7,5.33-10.5,5.22-1.12-.15-1.34-10.63-1.34-10.63l5.93-4.38.61-.46,1.79-.67Z"/><path class="cls-7" d="M329.78,190.29l-2.22,1.26a13.62,13.62,0,0,0-5.91-9.8l.61-.46,1.79-.67Z"/><path class="cls-25" d="M342.36,178.09l-6.92,12.33-4.79,2.47-2.13,1.1A13.68,13.68,0,0,0,322,181c1.93-.41,13.88-11.11,15.63-12.68l.21-.19,1.62-.22Z"/><path class="cls-26" d="M364.15,244.67l-5.88-4.46,19.19-63.68,6.77,2.53-5.13,10.12-5.65,31.54S370.11,243.19,364.15,244.67Z"/><path class="cls-23" d="M387,169.61l-20.23-.15s-17.71,4.91-16.22-2.23c.93-4.46-1.28-10-3.07-13.58-.21-.43-.41-.84-.63-1.22-.77-1.44-1.36-2.32-1.36-2.32s2.1-.35,4.76-.72c1.22-.18,2.59-.36,3.9-.52h0l2-.22c2.6-.26,4.65-.32,4.65.12a9.68,9.68,0,0,0,1.06,2.84c.1.21.22.44.33.66a29.07,29.07,0,0,0,3.2,4.91,11.76,11.76,0,0,0,2.25,2.17,7.32,7.32,0,0,0,.94.56,5.68,5.68,0,0,0,1.57.51c2.26.38,4.34-.6,7.3.28C381.49,161.87,387,169.61,387,169.61Z"/><path class="cls-26" d="M280.07,219.45s-17,9.37-18.08,13.09,2.53,6.7,2.53,6.7.6,3.2.81,5.58,3,25.52,4.24,27.45.22,9.23.22,9.23h4.11l-.3-11.16s-4.62-32.81-.75-36.16,7.07-7.14,8.18-6.85S280.07,219.45,280.07,219.45Z"/><path class="cls-27" d="M259.11,206.14s-11.16,21.31-11.38,24.21S238,245.53,238,245.53l11.83,15s1.56-3.79,4.24-5.13A4.14,4.14,0,0,0,256.2,251s2.79,0,4.8-3.35,4.46-6.7,4.46-8.14,14.73-16.63,14.73-16.63l-1.12-16.18-3-5.13Z"/><path class="cls-7" d="M230.09,207.36l-.1.09c-1.35,1.22-16.53,14.66-16.53,15s-5.47,9.37,1.34,17.18,22.43,20.64,22.43,20.64,6.81,4.91,7.71,5.92,14.4,0,6.36-9.15-15.62-19.42-15.62-19.42,13.38-3.24,14.28-5.47S232.33,202,232.33,202Z"/><path class="cls-27" d="M229.65,207.36l-.1.09c-1.35,1.22-16.53,14.66-16.53,15s-5.47,9.36,1.35,17.18,22.43,20.64,22.43,20.64,6.81,4.91,7.71,5.92,14.4,0,6.36-9.15-15.62-19.42-15.62-19.42,13.38-3.24,14.28-5.47,18.53-29.57,18.53-29.57L231.9,202Z"/><path class="cls-28" d="M268.26,147.33l-1.34,12.17s-13.73,5.47-14.06,5.36-9.15-8-7.71-13.28a47.25,47.25,0,0,0,1.22-9.26c.15-3,.13-5.25.13-5.25s20-7.14,18.19-2.23a9.41,9.41,0,0,0,.28,5.92A27.53,27.53,0,0,0,268.26,147.33Z"/><path class="cls-19" d="M146.17,122l0,.07a63.55,63.55,0,0,0-3.77,10.38l-.12.47a25.43,25.43,0,0,0-.84,7.3c.27,5.32,3,6.55,3,6.55s-40.84-6.69-34.15-7.81a8,8,0,0,0,3.48-1.84,41.83,41.83,0,0,0,6.94-8c.81-1.15,1.59-2.32,2.31-3.44l.15-.22c2.67-4.16,4.53-7.67,4.53-7.67S155.77,100.79,146.17,122Z"/><path class="cls-18" d="M348.53,252.48s10.27,39.28,11.08,42.63a52.58,52.58,0,0,1,.81,9.45s3.87-.22,4.39-.81-2-12-2-12l.74-31.84-10.86-9.15Z"/><path class="cls-26" d="M354.55,240l10.27.22.74,7.07s-.3,13.38.45,15.41,7.37,38.39,7.37,38.39,2.08,12.8,1.93,15.92l-4.83,1s1-2.75-.45-7.88-4.17-14.73-4.17-14.73l-3.5-15.78s-.6-28-22.1-26.77-22.69,16.63-22.69,16.63-7.3,30.13-8.56,33.85-1.93,12.87-1.93,12.87l-4.91-.45,1.62-24.33,4.54-50.07,14-1Z"/><path class="cls-18" d="M137.81,259s-10.27,39.28-11.08,42.63a52.58,52.58,0,0,0-.81,9.45s-3.87-.22-4.39-.81,2-12,2-12l-.74-31.84,10.88-9.15Z"/><path class="cls-26" d="M131.79,246.46l-10.27.22-.75,7.07s.3,13.38-.45,15.41S113,307.54,113,307.54s-2.08,12.8-1.93,15.92l4.84,1s-1-2.75.45-7.88,4.17-14.73,4.17-14.73l3.5-15.77s.6-28,22.1-26.77S168.76,276,168.76,276s7.3,30.13,8.55,33.85,1.93,12.87,1.93,12.87l4.91-.45-1.62-24.33L178,247.87l-14-1Z"/><path class="cls-7" d="M265,140.74l-.37.41a13.38,13.38,0,0,1-18.23,1.16c.15-3,.13-5.25.13-5.25s20-7.14,18.19-2.23A9.42,9.42,0,0,0,265,140.74Z"/><path class="cls-28" d="M268.26,131.52a13.38,13.38,0,1,1-13.38-13.38h0a13.31,13.31,0,0,1,13.38,13.24S268.26,131.47,268.26,131.52Z"/><path class="cls-17" d="M227.63,255.61s-12.65,8.78-18.15,11.16-23.8,11-23.8,11-18.45,2.38-21.43,6.25-7.14,8.33-7.14,8.33l-3.27-18.15s36.3-18.75,36.6-20.09,10.72-5.36-19.64-5.21c-26.6.13-36.4,1.86-38.62-1.82a4.06,4.06,0,0,1-.51-1.9c-.3-6.08,35.71-33,35.71-33s1.76.92,3.86,2.15a33,33,0,0,1,6.26,4.4c2.38,2.53,8.18,3.27,8.18,3.27l35.41,11s10.42,3.24,10.72,12.49S227.63,255.61,227.63,255.61Z"/><path class="cls-7" d="M251.74,160s-5.24-11.62-7-11.62-4.57,60.13-4.57,60.13l27.34.43,1.12-31.57-5.58-28S258,160.39,251.74,160Z"/><path class="cls-7" d="M251.74,160.85s-5.24-11.62-7-11.62-4.57,60.13-4.57,60.13l31,.47-2.56-31.61-5.58-28S258,161.28,251.74,160.85Z"/><path class="cls-24" d="M251.74,160.41s-5.24-11.62-7-11.62-4.57,60.13-4.57,60.13l31,.46-2.56-31.61-5.58-28S258,160.82,251.74,160.41Z"/><path class="cls-7" d="M246.65,145.13a2.17,2.17,0,0,0-2.28-.92c-1.34.45-2.34-.78-3.68.45S234,147.55,233,147s-4.57,1.9-5.36,3.35-3.35,5.36-3.35,5.36-2.23,2.68-1.9,4.13a3.76,3.76,0,0,1-2.12,3.79c-1.34.67-4,7.37-4,7.37s-2.9,6.14-5.91,7.71-.78,8.37-.78,8.37l17.85-.56,4-9.15s-1.56,26.77-3.46,29.24a9.9,9.9,0,0,0-2.12,4s7.37,1.56,8.92,2.9,5.68-.34,5.68-.34l4-35.6a67.29,67.29,0,0,0,1.45-10.14C245.9,164,246.65,145.13,246.65,145.13Z"/><path class="cls-29" d="M246.21,145.13a2.17,2.17,0,0,0-2.28-.92c-1.34.45-2.34-.78-3.68.45s-6.7,2.9-7.71,2.34-4.57,1.9-5.36,3.35-3.35,5.36-3.35,5.36-2.23,2.68-1.9,4.13a3.76,3.76,0,0,1-2.12,3.79c-1.34.67-4,7.37-4,7.37s-2.9,6.14-5.91,7.71-.79,8.36-.79,8.36l17.85-.56,4.06-9.15s-1.56,26.77-3.46,29.24a9.9,9.9,0,0,0-2.12,4s7.37,1.56,8.92,2.9,5.68-.34,5.68-.34l4-35.6a67.29,67.29,0,0,0,1.45-10.14C245.49,164,246.21,145.13,246.21,145.13Z"/><path class="cls-7" d="M221.61,164.51s1.34,3.68,5,3.35S221.61,164.51,221.61,164.51Z"/><path class="cls-7" d="M225.18,158.93a4.83,4.83,0,0,1,3.35,2.56C229.43,163.62,225.18,158.93,225.18,158.93Z"/><path class="cls-7" d="M232.1,155.14c0,.45,1.56,8.26,0,11.49a16.19,16.19,0,0,0-1.34,7Z"/><path class="cls-7" d="M265,142.44s.87-1,1.76-.92a11.82,11.82,0,0,1,2.57,1.12c1.12.45,3.8.56,3.8.89s2.34,1.68,3.91,2,6.49,3.68,7.71,10.14,3.34,8.36,3.34,8.36l-11.83,5.8s9.15,38.84,10.27,41.65,1.22,19.31,1.22,19.31-7.25,3.24-9.15,4.24-1.12-9.6-5-15.74-8.37-15.06-8.37-15.06l-6.8-19.11s-4.35-25.45-.67-30.13S265.37,144.12,265,142.44Z"/><path class="cls-29" d="M265.47,142.44s.87-1,1.76-.92a11.82,11.82,0,0,1,2.57,1.12c1.12.45,3.8.56,3.8.89s2.34,1.68,3.91,2,6.49,3.68,7.71,10.14,3.35,8.36,3.35,8.36l-11.83,5.8s9.15,38.84,10.27,41.65,1.22,19.31,1.22,19.31-7.25,3.24-9.15,4.24-1.12-9.6-5-15.74-8.37-15.06-8.37-15.06l-6.8-19.11s-4.36-25.44-.67-30.12S265.82,144.12,265.47,142.44Z"/><path class="cls-7" d="M289.68,191.3c-.33.05-.75.1-1.24.15-3.57.33-10.59.41-10.59.41s-5.24-10.38-9.71-10c0,0,4.13-4.68,5.8-4.13.28.09.46-.11.54-.51.45-2-1.1-8.86-1.1-8.86L271.27,159l12.28,3a33.21,33.21,0,0,1,4.57,2s.11,4.8,1,5.92,1.9,6.47,1.79,7.81,1.22,7.59-.11,9.26S292.47,190.85,289.68,191.3Z"/><path class="cls-29" d="M290.13,191.3c-.33.05-.75.1-1.22.15-3.57.33-10.59.41-10.59.41s-5.24-10.38-9.71-10c0,0,4.13-4.68,5.8-4.13.28.09.46-.11.54-.51.45-2-1.1-8.86-1.1-8.86L271.74,159,284,162a33.21,33.21,0,0,1,4.57,2s.11,4.8,1,5.92,1.9,6.47,1.79,7.81,1.22,7.59-.11,9.26S292.92,190.85,290.13,191.3Z"/><path class="cls-7" d="M277.52,167s10.27,1.12,10.71,3.68S277.52,167,277.52,167Z"/><path class="cls-24" d="M243.82,264.39s-.67,3.68.11,6a21.62,21.62,0,0,1,.11,9.26c-.56,1.78-2.43,4.24,2.68,5.36s8.59.11,8.81-.78,1.34-4.46.45-6.49-1.22-7.25.45-10.27.56-7.71-1-8.26-4.24-1.78-4.24-1.78,2.9,5.24.22,6.36S243.82,264.39,243.82,264.39Z"/><path class="cls-7" d="M268.26,131.52a13.31,13.31,0,0,1-3.65,9.19l0-.06a5.82,5.82,0,0,1-.75-2.66c0-1.12.68-2.14.89-3.24a8.47,8.47,0,0,0-.64-4.18c-.33-1-1-2.19-2-2.07a2.28,2.28,0,0,1-.61.07c-.56-.09-.67-.81-.73-1.36a6.18,6.18,0,0,0-5-5.29,1.55,1.55,0,0,0-.88.06c-.39.17-.6.6-.95.84-1.13.79-2.58-.72-4-.6-1.17.1-1.88,1.3-2.36,2.37s-1.09,2.29-2.23,2.54a.7.7,0,0,1-.54-.06c-.36-.26-.11-.81.07-1.22a2.46,2.46,0,0,0-.41-2.66,13.38,13.38,0,0,1,23.85,8.36Z"/><path class="cls-30" d="M244.82,125.37c-.18.41-.43,1-.06,1.22a.69.69,0,0,0,.54.06c1.14-.25,1.75-1.47,2.23-2.54s1.22-2.27,2.36-2.37c1.38-.11,2.82,1.39,4,.6.35-.24.56-.66.95-.84a1.58,1.58,0,0,1,.88-.06,6.18,6.18,0,0,1,5,5.29c.06.55.17,1.28.72,1.36a2.29,2.29,0,0,0,.62-.07c1-.12,1.68,1.08,2,2.07a8.48,8.48,0,0,1,.65,4.19c-.21,1.11-.86,2.12-.89,3.24a6.12,6.12,0,0,0,.75,2.66c.39.85,1,1.83,1.93,1.72.75-.1,1.17-.9,1.53-1.57s1-1.39,1.75-1.18c.33.1.67.37,1,.21a.7.7,0,0,0,.28-.49c.36-1.56-.15-3.31.6-4.72.58-1.09,1.77-1.67,2.73-2.43a7.82,7.82,0,0,0,1.23-11l-.17-.2c-1-1.22-2.51-2.27-2.59-3.85-.06-1.22.75-2.32.76-3.52a4.2,4.2,0,0,0-1.62-3,10.38,10.38,0,0,0-9.32-2.45,7.2,7.2,0,0,1-2.62.41,9,9,0,0,1-2.8-1.28,7.16,7.16,0,0,0-8.92,2.43c-1.06,1.62-1.47,3.79-3,4.94-1,.76-2.52,1-3.09,2.19a3.89,3.89,0,0,0-.14,2.27,5.3,5.3,0,0,0,1.7,3.24C244.64,122.88,245.47,123.91,244.82,125.37Z"/><polygon class="cls-31" points="231.88 294.75 231.77 316.5 227.75 316.17 213.13 197.32 217.45 197.19 220.5 197.1 231.88 294.75"/><polygon class="cls-32" points="231.77 316.5 227.75 316.17 213.13 197.32 217.45 197.19 217.26 197.88 231.77 316.5"/><polygon class="cls-31" points="251.41 197.55 236.67 315.39 233.92 316.01 231.77 316.5 231.88 294.75 244.82 197.99 245.08 197.97 251.41 197.55"/><polygon class="cls-32" points="233.89 315.95 233.92 316.01 231.77 316.5 231.88 294.75 244.82 197.99 245.08 197.97 247.72 198.55 233.89 315.95"/><polygon class="cls-32" points="285.11 270.08 284.77 277.81 283.88 298.43 270.05 197.43 273.2 197.09 274.17 196.99 285.11 270.08"/><polygon class="cls-31" points="285.11 270.08 284.77 277.81 273.39 197.99 273.2 197.09 274.17 196.99 285.11 270.08"/><polygon class="cls-32" points="288.9 233.81 289.24 283.02 287.37 282.96 283.43 282.8 285 196.65 288 197.03 289.46 197.21 288.9 233.81"/><polygon class="cls-31" points="288.9 233.81 289.24 283.02 287.37 282.96 288 197.03 289.46 197.21 288.9 233.81"/><polygon class="cls-32" points="161.13 196.32 161.35 192.97 180.54 193.08 238.24 192.19 282.76 194.64 311.11 195.2 311.45 198.32 238.57 199.67 161.13 196.32"/><polygon class="cls-31" points="161.35 192.97 218.26 195.43 311.11 195.2 241.7 190.96 161.35 192.97"/><path class="cls-7" d="M146.17,122l0,.07a63.55,63.55,0,0,0-3.77,10.38l-.12.47a17.09,17.09,0,0,1-4.78.68c-4.31,0-6.25-4.52-9.26-7.14-1.18-1-4.23.72-5.09-.6a2.11,2.11,0,0,1-.15-.22l.15-.22c2.67-4.16,4.53-7.67,4.53-7.67S155.77,100.79,146.17,122Z"/><path class="cls-19" d="M154.65,116a17.18,17.18,0,1,1-1.79-7.63A17.18,17.18,0,0,1,154.65,116Z"/><path class="cls-7" d="M144.39,146.77s-40.84-6.69-34.15-7.81a8,8,0,0,0,3.48-1.84,2.9,2.9,0,0,1,.54.95l7.59-.89s9.67-2.08,13.54.3a30.47,30.47,0,0,0,6,2.75C141.68,145.54,144.39,146.77,144.39,146.77Z"/><path class="cls-7" d="M171.23,214.31a2.29,2.29,0,0,1-.73.38c-1.93.6-4.32,9.52-4.32,9.52s-24.79,23.8-34,22.88a4.06,4.06,0,0,1-.51-1.9c-.3-6.08,35.71-33,35.71-33S169.13,213.08,171.23,214.31Z"/><path class="cls-33" d="M236.47,189.27c0,2.26-4,4.52-8.83,4.52s-8.81-2.26-8.81-4.52,4-3.65,8.82-3.65S236.47,187,236.47,189.27Z"/><path class="cls-7" d="M236.47,189.27c0,2.26-4,4.52-8.83,4.52s-8.81-2.26-8.81-4.52,4-3.65,8.82-3.65S236.47,187,236.47,189.27Z"/><ellipse class="cls-33" cx="227.65" cy="189.27" rx="8.82" ry="4.09"/><ellipse class="cls-34" cx="227.67" cy="189.42" rx="5.26" ry="2.12"/><path class="cls-35" d="M239.86,184.5c-.18-1.11-1.64-1.84-3.52-1.88a7.89,7.89,0,0,0-1.49.11c-2.54.41-4.42,1.87-4.19,3.24.17,1.1,1.62,1.83,3.46,1.88a8.11,8.11,0,0,0,1.55-.1C238.2,187.35,240.08,185.89,239.86,184.5ZM235.55,187a5.57,5.57,0,0,1-.81.07c-1.47,0-2.65-.5-2.79-1.35-.16-1,1.19-2,3-2.34a5.79,5.79,0,0,1,1.31-.06c1.22.09,2.16.59,2.28,1.34C238.71,185.7,237.37,186.75,235.55,187Z"/><path class="cls-35" d="M231.88,189.06a.94.94,0,0,1-.21.58c-.55.73-2.1,1.25-3.93,1.25a5.74,5.74,0,0,1-3.81-1.1,1.05,1.05,0,0,1-.34-.73c0-1,1.86-1.83,4.15-1.83S231.88,188,231.88,189.06Z"/><path class="cls-7" d="M231.88,189.06a.94.94,0,0,1-.21.58,8,8,0,0,1-3.53.81h-1a8,8,0,0,1-3.22-.67,1.05,1.05,0,0,1-.34-.73c0-1,1.86-1.83,4.15-1.83S231.88,188,231.88,189.06Z"/><path class="cls-7" d="M236.34,182.62a5.79,5.79,0,0,1-.06.75,5.79,5.79,0,0,0-1.31.06c-1.82.3-3.17,1.34-3,2.34.14.85,1.32,1.39,2.79,1.35a8.44,8.44,0,0,1-.63.74c-1.85-.05-3.29-.78-3.46-1.88-.22-1.39,1.65-2.84,4.19-3.24A7.89,7.89,0,0,1,236.34,182.62Z"/><path class="cls-35" d="M219.13,181.17v1.14a8,8,0,0,0,8,8h1a8,8,0,0,0,8-8v-1.14Z"/><ellipse class="cls-36" cx="227.61" cy="180.92" rx="8.55" ry="2.43"/><ellipse class="cls-7" cx="227.65" cy="180.76" rx="8.11" ry="2.2"/><ellipse class="cls-37" cx="227.67" cy="180.68" rx="7.92" ry="2.2"/><path class="cls-38" d="M221.88,181.27a.22.22,0,1,1,.22-.22h0A.22.22,0,0,1,221.88,181.27Zm0-.36a.14.14,0,1,0,.14.14.14.14,0,0,0-.14-.14Z"/><path class="cls-38" d="M222.14,180.8a.22.22,0,1,1,.22-.23h0A.22.22,0,0,1,222.14,180.8Zm0-.37a.14.14,0,1,0,.14.15h0A.14.14,0,0,0,222.14,180.43Z"/><path class="cls-38" d="M221.88,180.09a.22.22,0,1,1,.22-.22h0A.22.22,0,0,1,221.88,180.09Zm0-.37a.14.14,0,1,0,.14.14h0A.14.14,0,0,0,221.88,179.72Z"/><path class="cls-38" d="M223.52,181.74a.22.22,0,1,1,.22-.23h0A.22.22,0,0,1,223.52,181.74Zm0-.37a.14.14,0,0,0-.14.13h0a.14.14,0,1,0,.28,0,.14.14,0,0,0-.13-.14Z"/><path class="cls-38" d="M230.08,181.31a.22.22,0,1,1,.22-.22A.22.22,0,0,1,230.08,181.31Zm0-.37a.14.14,0,1,0,0,.28h0a.14.14,0,0,0,0-.28Z"/><path class="cls-38" d="M231.54,181.88a.22.22,0,1,1,.22-.22h0A.22.22,0,0,1,231.54,181.88Zm0-.37a.14.14,0,1,0,.14.14.14.14,0,0,0-.14-.14h0Z"/><path class="cls-38" d="M231.59,180.94a.22.22,0,1,1,.22-.22h0A.22.22,0,0,1,231.59,180.94Zm0-.37a.14.14,0,1,0,.14.14h0A.14.14,0,0,0,231.59,180.58Z"/><path class="cls-38" d="M232.28,179.44a.22.22,0,1,1,.22-.22h0a.22.22,0,0,1-.21.22Zm0-.37a.17.17,0,1,0,.14.14.14.14,0,0,0-.14-.14h0Z"/><path class="cls-38" d="M231.95,181.5a.22.22,0,1,1,.22-.22h0A.22.22,0,0,1,231.95,181.5Zm0-.36a.14.14,0,1,0,.14.14h0a.14.14,0,0,0-.13-.15h0Z"/><path class="cls-38" d="M232.76,181a.22.22,0,1,1,.22-.23h0A.22.22,0,0,1,232.76,181Zm0-.37a.14.14,0,1,0,.14.15h0a.14.14,0,0,0-.14-.13Z"/><path class="cls-38" d="M232.68,181.57a.22.22,0,1,1,.22-.23h0a.22.22,0,0,1-.21.22Zm0-.36a.14.14,0,0,0,0,.28h0a.14.14,0,0,0,0-.28Z"/><path class="cls-38" d="M232.42,180.23a.22.22,0,1,1,.22-.22h0A.22.22,0,0,1,232.42,180.23Zm0-.37a.14.14,0,1,0,.14.14h0a.14.14,0,0,0-.14-.13Z"/><path class="cls-38" d="M233.64,179.95a.22.22,0,1,1,.22-.22h0A.22.22,0,0,1,233.64,179.95Zm0-.37a.14.14,0,1,0,.14.14h0a.14.14,0,0,0-.14-.14h0Z"/><path class="cls-38" d="M230.08,179.41a.22.22,0,1,1,.22-.22A.22.22,0,0,1,230.08,179.41Zm0-.37a.14.14,0,1,0,0,.28h0a.14.14,0,0,0,0-.28Z"/><path class="cls-38" d="M229.24,179.07a.22.22,0,1,1,.22-.22h0A.22.22,0,0,1,229.24,179.07Zm0-.36a.14.14,0,1,0,.14.14h0a.14.14,0,0,0-.12-.16h0Z"/><path class="cls-38" d="M227.38,179.19a.22.22,0,1,1,.22-.23h0A.22.22,0,0,1,227.38,179.19Zm0-.37a.14.14,0,1,0,.14.15h0A.14.14,0,0,0,227.38,178.82Z"/><path class="cls-38" d="M229,181.38a.22.22,0,1,1,.22-.23h0A.22.22,0,0,1,229,181.38Zm0-.37a.14.14,0,1,0,.14.14A.14.14,0,0,0,229,181Z"/><path class="cls-38" d="M222.94,181.6a.22.22,0,1,1,.22-.22h0A.22.22,0,0,1,222.94,181.6Zm0-.37a.14.14,0,1,0,.14.14h0A.14.14,0,0,0,222.94,181.24Z"/><path class="cls-38" d="M223.88,181.1a.22.22,0,1,1,.22-.22h0A.22.22,0,0,1,223.88,181.1Zm0-.37a.14.14,0,1,0,.14.14h0a.14.14,0,0,0-.13-.15h0Z"/><path class="cls-38" d="M224.68,181.35a.22.22,0,1,1,.22-.22h0A.22.22,0,0,1,224.68,181.35Zm0-.36a.14.14,0,1,0,.14.14.14.14,0,0,0-.14-.14h0Z"/><path class="cls-38" d="M224.82,180.79a.22.22,0,1,1,.22-.22h0A.22.22,0,0,1,224.82,180.79Zm0-.36a.14.14,0,1,0,.14.14.14.14,0,0,0-.14-.14Z"/><path class="cls-38" d="M224.82,180.28a.22.22,0,1,1,.22-.22h0A.22.22,0,0,1,224.82,180.28Zm0-.36a.14.14,0,1,0,.14.14h0a.14.14,0,0,0-.14-.13Z"/><path class="cls-38" d="M225,182.06a.22.22,0,1,1,.22-.22h0A.22.22,0,0,1,225,182.06Zm0-.37a.14.14,0,1,0,.14.14h0A.14.14,0,0,0,225,181.7Z"/><path class="cls-38" d="M227.26,182.11a.22.22,0,1,1,.22-.23h0A.22.22,0,0,1,227.26,182.11Zm0-.37a.14.14,0,1,0,.14.15h0a.14.14,0,0,0-.14-.14Z"/><path class="cls-38" d="M227,181.57a.22.22,0,1,1,.22-.22h0A.22.22,0,0,1,227,181.57Zm0-.36a.14.14,0,1,0,.14.14h0A.14.14,0,0,0,227,181.21Z"/><path class="cls-38" d="M225.87,181.31a.22.22,0,1,1,.22-.23h0A.22.22,0,0,1,225.87,181.31Zm0-.37a.14.14,0,1,0,.14.14A.14.14,0,0,0,225.87,180.94Z"/><path class="cls-38" d="M228.25,180.43a.22.22,0,1,1,.22-.22h0A.22.22,0,0,1,228.25,180.43Zm0-.37a.14.14,0,1,0,.14.14h0A.14.14,0,0,0,228.25,180.07Z"/><path class="cls-38" d="M227.24,181a.22.22,0,1,1,.22-.22h0A.22.22,0,0,1,227.24,181Zm0-.37a.14.14,0,1,0,.14.14h0a.14.14,0,0,0-.14-.13Z"/><path class="cls-38" d="M228.42,179.79a.22.22,0,1,1,.22-.22h0A.22.22,0,0,1,228.42,179.79Zm0-.37a.14.14,0,1,0,.14.14h0A.14.14,0,0,0,228.42,179.42Z"/><path class="cls-38" d="M228.33,179.19a.22.22,0,1,1,.22-.22h0A.22.22,0,0,1,228.33,179.19Zm0-.37a.14.14,0,1,0,.14.14h0A.14.14,0,0,0,228.33,178.82Z"/><path class="cls-38" d="M227.86,179.81a.22.22,0,1,1,.22-.22h0A.22.22,0,0,1,227.86,179.81Zm0-.37a.14.14,0,1,0,.14.14h0A.14.14,0,0,0,227.86,179.44Z"/><path class="cls-38" d="M226.72,180.85a.22.22,0,1,1,.22-.22h0a.22.22,0,0,1-.22.22Zm0-.36a.14.14,0,0,0,0,.28h0a.14.14,0,0,0,0-.28Z"/><path class="cls-38" d="M225.87,180.69a.22.22,0,1,1,.22-.23h0a.22.22,0,0,1-.21.22Zm0-.36a.14.14,0,1,0,0,.28h0a.14.14,0,1,0,0-.28Z"/><path class="cls-38" d="M227,179.65a.22.22,0,1,1,.22-.22h0A.22.22,0,0,1,227,179.65Zm0-.37a.14.14,0,1,0,.14.14h0A.14.14,0,0,0,227,179.28Z"/><path class="cls-38" d="M225.35,179.88a.14.14,0,1,1,.14-.14h0A.14.14,0,0,1,225.35,179.88Zm0-.23a.09.09,0,1,0,.09.09A.09.09,0,0,0,225.35,179.65Z"/><path class="cls-38" d="M225.78,180.15a.14.14,0,1,1,.14-.14h0A.14.14,0,0,1,225.78,180.15Zm0-.23a.09.09,0,1,0,.09.09.09.09,0,0,0-.09-.09Z"/><path class="cls-38" d="M227.89,179a.14.14,0,1,1,.14-.14h0A.14.14,0,0,1,227.89,179Zm0-.23a.09.09,0,1,0,.09.09h0A.09.09,0,0,0,227.89,178.78Z"/><path class="cls-38" d="M228.19,181.39a.14.14,0,1,1,.14-.14h0A.14.14,0,0,1,228.19,181.39Zm0-.23a.09.09,0,1,0,.09.09A.09.09,0,0,0,228.19,181.16Z"/><path class="cls-38" d="M228.57,181.55a.14.14,0,1,1,.14-.14h0A.14.14,0,0,1,228.57,181.55Zm0-.23a.09.09,0,1,0,.09.09h0a.09.09,0,0,0-.09-.09Z"/><path class="cls-38" d="M228.11,181a.14.14,0,1,1,.14-.14h0a.14.14,0,0,1-.14.14Zm0-.23a.09.09,0,1,0,.09.09.09.09,0,0,0-.09-.09Z"/><path class="cls-38" d="M230.88,179.68a.14.14,0,1,1,.14-.14h0A.14.14,0,0,1,230.88,179.68Zm0-.23a.09.09,0,0,0-.09.09h0a.09.09,0,1,0,.18,0h0a.09.09,0,0,0-.09-.09Z"/><path class="cls-38" d="M231.06,180a.14.14,0,1,1,.14-.15h0A.14.14,0,0,1,231.06,180Zm0-.23a.09.09,0,1,0,.09.09.09.09,0,0,0-.09-.09Z"/><path class="cls-38" d="M230.91,180.37a.14.14,0,0,1-.14-.14.14.14,0,0,1,.13-.14h0a.14.14,0,0,1,0,.28Zm0-.23a.09.09,0,0,0-.09.08h0a.09.09,0,1,0,.09-.09Z"/><path class="cls-38" d="M230.55,181.41a.14.14,0,1,1,.14-.14h0A.14.14,0,0,1,230.55,181.41Zm0-.23a.09.09,0,0,0-.09.09h0a.09.09,0,1,0,.18,0h0a.09.09,0,0,0-.09-.09h0Z"/><path class="cls-38" d="M232.79,180.44a.14.14,0,1,1,.14-.14.14.14,0,0,1-.14.14Zm0-.23a.09.09,0,1,0,.09.09h0a.09.09,0,0,0-.09-.09Z"/><path class="cls-38" d="M229.46,181.3a.14.14,0,1,1,.14-.14h0A.14.14,0,0,1,229.46,181.3Zm0-.23a.09.09,0,1,0,.09.09h0A.09.09,0,0,0,229.46,181.07Z"/><path class="cls-38" d="M230.63,180.72a.14.14,0,1,1,.14-.14h0A.14.14,0,0,1,230.63,180.72Zm0-.23a.09.09,0,1,0,.09.09A.09.09,0,0,0,230.63,180.49Z"/><path class="cls-38" d="M230.16,181.7a.14.14,0,1,1,.14-.14h0a.14.14,0,0,1-.14.14Zm0-.23a.09.09,0,1,0,.09.09.09.09,0,0,0-.09-.09Z"/><path class="cls-38" d="M233.26,180.71a.17.17,0,1,1,.14-.14A.14.14,0,0,1,233.26,180.71Zm0-.24a.09.09,0,0,0,0,.18h0a.09.09,0,0,0,0-.18Z"/><path class="cls-38" d="M231.45,179.19a.14.14,0,1,1,.14-.15h0A.14.14,0,0,1,231.45,179.19Zm0-.23a.09.09,0,1,0,.09.09A.09.09,0,0,0,231.45,179Z"/><path class="cls-38" d="M226.67,179a.14.14,0,1,1,.14-.14h0A.14.14,0,0,1,226.67,179Zm0-.23a.09.09,0,1,0,.09.09h0A.09.09,0,0,0,226.67,178.78Z"/><path class="cls-38" d="M222.64,180.21a.14.14,0,1,1,.14-.14h0a.14.14,0,0,1-.14.14Zm0-.23a.09.09,0,1,0,.09.09h0a.09.09,0,0,0-.09-.09Z"/><path class="cls-38" d="M226.15,179.19a.14.14,0,1,1,.14-.14h0A.14.14,0,0,1,226.15,179.19Zm0-.23a.09.09,0,1,0,.09.09A.09.09,0,0,0,226.15,179Z"/><path class="cls-38" d="M223,180.86a.14.14,0,1,1,.14-.14h0A.14.14,0,0,1,223,180.86Zm0-.23a.09.09,0,1,0,0,.18h0a.09.09,0,0,0,0-.18Z"/><path class="cls-38" d="M223.52,180a.14.14,0,1,1,.14-.15h0A.14.14,0,0,1,223.52,180Zm0-.23a.09.09,0,1,0,.09.09A.09.09,0,0,0,223.52,179.78Z"/><path class="cls-38" d="M221,180.59a.14.14,0,1,1,.14-.14h0A.14.14,0,0,1,221,180.59Zm0-.23a.09.09,0,1,0,.09.09h0a.09.09,0,0,0-.09-.09Z"/><path class="cls-38" d="M224.54,181.84a.14.14,0,1,1,.14-.14A.14.14,0,0,1,224.54,181.84Zm0-.23a.09.09,0,1,0,.09.09A.09.09,0,0,0,224.54,181.61Z"/><path class="cls-38" d="M225.56,181.91a.14.14,0,1,1,.14-.14A.14.14,0,0,1,225.56,181.91Zm0-.23a.09.09,0,1,0,.09.09A.09.09,0,0,0,225.56,181.68Z"/><circle class="cls-38" cx="221.4" cy="181.01" r="0.11"/><circle class="cls-38" cx="222.22" cy="179.44" r="0.11"/><circle class="cls-38" cx="223.34" cy="180.15" r="0.11"/><circle class="cls-38" cx="222.61" cy="179.14" r="0.11"/><circle class="cls-38" cx="226.71" cy="179.9" r="0.11"/><circle class="cls-38" cx="223.16" cy="179.72" r="0.11"/><circle class="cls-38" cx="222.75" cy="179.68" r="0.11"/><circle class="cls-38" cx="223.56" cy="180.52" r="0.11"/><circle class="cls-38" cx="229.73" cy="179.87" r="0.11"/><circle class="cls-38" cx="231.37" cy="180.19" r="0.11"/><circle class="cls-38" cx="230.91" cy="181.6" r="0.11"/><circle class="cls-38" cx="231.54" cy="181.13" r="0.11"/><circle class="cls-38" cx="229.69" cy="181.71" r="0.11"/><circle class="cls-38" cx="229.28" cy="179.85" r="0.11"/><circle class="cls-38" cx="227.91" cy="181.46" r="0.11"/><circle class="cls-38" cx="230.39" cy="180.23" r="0.11"/><circle class="cls-38" cx="229.18" cy="181.82" r="0.11"/><circle class="cls-38" cx="224.21" cy="181.6" r="0.11"/><circle class="cls-38" cx="231.06" cy="180.6" r="0.11"/><circle class="cls-38" cx="233.64" cy="180.41" r="0.11"/><circle class="cls-38" cx="232.9" cy="179.76" r="0.08"/><circle class="cls-38" cx="230.31" cy="179.58" r="0.08"/><circle class="cls-38" cx="225.35" cy="180.6" r="0.08"/><circle class="cls-38" cx="232.17" cy="180.37" r="0.08"/><circle class="cls-38" cx="229.78" cy="179.46" r="0.08"/><circle class="cls-38" cx="231.82" cy="179.84" r="0.08"/><circle class="cls-38" cx="230.58" cy="179.01" r="0.08"/><circle class="cls-38" cx="229.69" cy="178.87" r="0.08"/><circle class="cls-38" cx="225.64" cy="179.27" r="0.08"/><circle class="cls-38" cx="226.53" cy="179.38" r="0.08"/><circle class="cls-38" cx="224.28" cy="180.19" r="0.08"/><circle class="cls-38" cx="228.82" cy="180.23" r="0.08"/><circle class="cls-38" cx="229.34" cy="180.35" r="0.08"/><circle class="cls-38" cx="226.35" cy="180.5" r="0.08"/><circle class="cls-38" cx="227.67" cy="180.64" r="0.08"/><circle class="cls-38" cx="226.25" cy="179.63" r="0.08"/><circle class="cls-38" cx="229.24" cy="180.64" r="0.08"/><circle class="cls-38" cx="228.79" cy="180.72" r="0.08"/><circle class="cls-38" cx="221.88" cy="179.46" r="0.08"/><circle class="cls-38" cx="224.62" cy="179.76" r="0.08"/><circle class="cls-38" cx="223.67" cy="179.14" r="0.08"/><circle class="cls-38" cx="223.29" cy="180.63" r="0.08"/><circle class="cls-38" cx="223.74" cy="179.64" r="0.08"/><circle class="cls-38" cx="221.14" cy="179.98" r="0.08"/><circle class="cls-38" cx="232.4" cy="179.64" r="0.08"/><circle class="cls-38" cx="233.33" cy="179.5" r="0.11"/><circle class="cls-38" cx="234.11" cy="180.68" r="0.11"/><circle class="cls-38" cx="233.53" cy="180.09" r="0.11"/><circle class="cls-38" cx="233.78" cy="180.86" r="0.11"/><circle class="cls-38" cx="234.11" cy="180.26" r="0.11"/><circle class="cls-38" cx="233.22" cy="180.15" r="0.11"/><circle class="cls-38" cx="234.47" cy="180.15" r="0.11"/><circle class="cls-38" cx="224.02" cy="179.92" r="0.11"/><circle class="cls-38" cx="225.59" cy="178.84" r="0.11"/><circle class="cls-38" cx="227.52" cy="181.18" r="0.11"/><circle class="cls-38" cx="225.09" cy="178.82" r="0.11"/><circle class="cls-38" cx="224.42" cy="178.92" r="0.11"/><circle class="cls-38" cx="227.4" cy="179.53" r="0.11"/><circle class="cls-38" cx="221.44" cy="180.3" r="0.11"/><circle class="cls-38" cx="222.42" cy="181.3" r="0.11"/><circle class="cls-38" cx="226.16" cy="181.79" r="0.11"/><circle class="cls-38" cx="225.3" cy="181.3" r="0.11"/><circle class="cls-38" cx="227.89" cy="181.9" r="0.11"/><path class="cls-7" d="M224.92,179.17s-4.43.21-2.34,1.62,8.08.62,8.08.62,3.31-.84,1.18-1.82-5.35-.36-5.35-.36-3.67.67-.85,1.27c0,0,3.41.31,3.56-.38s-1.91-.2-1.91-.2,1.09.24.34.37S226,180.2,226,180s1.12-.38,1.44-.37,2-.27,2.66.49a.28.28,0,0,1,0,.39l-.08,0a8.62,8.62,0,0,1-4.64.36C222.11,180.41,224.92,179.17,224.92,179.17Z"/><path class="cls-39" d="M121.84,137.62s9.67-2.08,13.54.3a31.84,31.84,0,0,0,8.33,3.43s7.14,1.79,9.52,4.32,4.61.89,5.65,4.17a19.19,19.19,0,0,0,4.17,6.4l-1.49,22.17,1.19,12.8s.6,5.35-.89,6.55.3,3.12,1.62,4.17,4.76,5.06,4.32,6.55,3.57,3.13,3.57,3.13.15,2.53-1.78,3.12-4.3,9.51-4.3,9.51-26,25-34.67,22.76-15-10.27-15-10.27-5.8-26-7.44-30.21-6-17.85-6-17.85-2.38-15.77-3.57-18.9-1.19-19.49,2.38-22.92,6.69-5.37,6.69-6.55,3.42-3.57,4.76-3.42a2.36,2.36,0,0,1,1.78,1.62Z"/><path class="cls-19" d="M228.83,187.61c-4.17,7.3-19.94,5.8-19.94,5.8s-5.5-1.19-8.92.75-19.5,4-19.5,4-6.08-1.34-7.59-3.28c-1.29-1.68-13.63-9-16.81-10.87l-.63-.37h0l-.1-.06,0,0,13.22-16.63,2.16,2.31,10.63,11.36s10.42.45,13.38,2.23,12.35-.6,12.35-.6,4.61,0,4.91-1S233,180.32,228.83,187.61Z"/><path class="cls-7" d="M152.87,108.34a3.84,3.84,0,0,0-2,1.29c-.78,1.06-.68,2.51-1,3.8-.49,2.1-2.14,4-1.83,6.13.11.75.44,1.59,0,2.2a1.63,1.63,0,0,1-1.88.31h0c-1.65-.67-2.56-2.38-3.73-3.72s-3.29-2.33-4.65-1.18c-1.14,1-.94,2.73-.83,4.22s-.31,3.4-1.78,3.65c-.59.11-1.22-.11-1.79,0-1.85.43-1.7,3.62-3.5,4.2a3.7,3.7,0,0,1-2-.16,6.49,6.49,0,0,0-1.66-.15c-1.89,0-3.87.61-5.54.13.87-1.22,1.7-2.47,2.45-3.65a17.18,17.18,0,1,1,29.75-17.08Z"/><path class="cls-40" d="M127.87,128.65a3.7,3.7,0,0,0,2,.15c1.8-.58,1.65-3.77,3.49-4.2.58-.14,1.22.08,1.79,0,1.47-.26,1.89-2.17,1.78-3.65s-.31-3.24.83-4.21c1.36-1.14,3.48-.15,4.65,1.18s2.08,3.06,3.72,3.72a1.65,1.65,0,0,0,1.93-.29c.42-.56.12-1.45,0-2.2-.31-2.14,1.33-4,1.83-6.14.3-1.29.2-2.73,1-3.8,1.65-2.24,5.91-1.11,7.3-3.52a3.81,3.81,0,0,0,1.84-.24,1.31,1.31,0,0,0,.75-1.53c-.17-.45-.65-.69-1.05-1a4.77,4.77,0,0,1-2.07-4.09,22.11,22.11,0,0,0,.21-2.3,3.38,3.38,0,0,0-3.39-3c-.51,0-1,.16-1.51.17-2.41.07-4.43-2.64-6.78-2.1a6.83,6.83,0,0,1-1.5.39c-1.18,0-1.92-1.36-3-1.72-.9-.28-1.88.11-2.81,0a6.89,6.89,0,0,1-2.46-1.07c-1.7-.92-4-1.33-5.45-.1a4.87,4.87,0,0,1-1.06.85,3,3,0,0,1-1.54.09,14.33,14.33,0,0,0-4.59.31,1.72,1.72,0,0,0-1.05.55,3,3,0,0,0-.33,1.07c-.45,1.76-2.62,2.35-4.43,2.5a2.48,2.48,0,0,0-1.34.36,2,2,0,0,0-.34,2.26,10.65,10.65,0,0,1,.88,2.28c.26,2-1.93,3.58-2.3,5.61-.5,2.79,2.6,5.54,1.54,8.18-.47,1.17-1.71,2.08-1.65,3.33s1.28,2,2,2.95a8.19,8.19,0,0,1,1.3,3.22c.46,1.83.52,5.35,2.65,6S125.5,128.09,127.87,128.65Z"/><path class="cls-7" d="M128.54,188.51c2.53,3.27,11.46,11,17.41,12.95S128.54,188.51,128.54,188.51Z"/><path class="cls-7" d="M129.88,204.87c1,.74,5.8,9.67,10.86,10.42S129.88,204.87,129.88,204.87Z"/><path class="cls-7" d="M131.07,197.14c.3.45,12,10.71,16.37,11.61s.6-3.57-4.76-5.66A85.88,85.88,0,0,1,131.07,197.14Z"/><path class="cls-7" d="M131.07,219s7.88,2.84,13.24,2.08S131.07,219,131.07,219Z"/><path class="cls-7" d="M140.29,236.12s7.74-5.65,11.62-5.95S140.29,236.12,140.29,236.12Z"/><path class="cls-7" d="M105.47,144.91s18.75,2.08,13.54,3S105.47,144.91,105.47,144.91Z"/><path class="cls-7" d="M105.33,154.58s8.92,0,12.2-1.49S105.33,154.58,105.33,154.58Z"/><path class="cls-7" d="M102.5,173.33c1.62-.45,8.48-14.73,11.16-10.86S102.5,173.33,102.5,173.33Z"/><path class="cls-7" d="M129.58,169.61s2.38,2.23,9.82,4.32S129.58,169.61,129.58,169.61Z"/><path class="cls-7" d="M173.62,220.35s4.17,2.23,1,7S173.62,220.35,173.62,220.35Z"/><path class="cls-26" d="M130,239.39l-.05-.63C130.14,236.66,130,239.39,130,239.39Z"/><path class="cls-26" d="M132.85,251.74l-11.9-1.19-2.23-4.46L106.36,178.2l-.29-1.59,18.89.15.17,2.16L130,238.76c0,.3-.05.7-.09,1.22C129.58,244.15,132.85,251.74,132.85,251.74Z"/><path class="cls-7" d="M362.2,152.27l-.33.24c-1.27.86-3-2.22-4.46-1.79-1.28.37-2.33,4.32-3.72,4.32a14.52,14.52,0,0,1-6.19-1.38c-.21-.43-.41-.84-.63-1.22-.77-1.44-1.36-2.32-1.36-2.32s2.1-.35,4.76-.72c1.22-.18,2.59-.36,3.9-.52h0l2-.22c2.6-.26,4.65-.32,4.65.12a9.68,9.68,0,0,0,1.06,2.84C362,151.82,362.09,152,362.2,152.27Z"/><path class="cls-23" d="M368.25,139.55A14.6,14.6,0,1,1,353.63,125h0a14.56,14.56,0,0,1,14.6,14.53S368.25,139.53,368.25,139.55Z"/><path class="cls-4" d="M365.57,167.42l-4.35.45s.45-3.91,2.34-5.13c1.26-.81,3.61-2.08,5-2.84a5.68,5.68,0,0,0,1.57.51C363.48,164.69,365.57,167.42,365.57,167.42Z"/><path class="cls-23" d="M316.76,186.27l-1-.15s-4.54.3-9,.81-10.79,1.86-6.18,7.22,8.85-1,8.85-1,4.32,5.36,7.66,3.57S316.76,186.27,316.76,186.27Z"/><path class="cls-23" d="M298.39,271.61s2.84,6.84,2.6,8.78,9.45-1.86,9.45-1.86-2.23-5.21-1-6.32S298.39,271.61,298.39,271.61Z"/><rect class="cls-23" x="285" y="290.06" width="7.7" height="9.82"/><path class="cls-41" d="M300.1,268.85a17,17,0,0,0-1.71,5.45,54.35,54.35,0,0,0-.81,7.64c0,1.49.74,1.19,0,3.57a34.48,34.48,0,0,0-1.45,5.71,1.85,1.85,0,0,1,0,.25,14.58,14.58,0,0,1-.89,3.57s-11.31-.74-13.68-2.38.89-3.27.89-3.27V289c.24-4.55,2.56-48.38,3.55-53a5.93,5.93,0,0,1,1.45-2.69,15.43,15.43,0,0,1,5.1-3.44,24.25,24.25,0,0,1,3.12-1.16s.59,3.44,1.37,8.31C298.76,248.1,301.44,266.67,300.1,268.85Z"/><path class="cls-23" d="M297,237c-.87,1.59-1.76,2.59-2.41,1.81-1.11-1.34-4.65-3.83-7.18-5.52,2.76-3.09,8.22-4.6,8.22-4.6S296.22,232.12,297,237Z"/><path class="cls-41" d="M363.54,225c-.11,1.65-.31,3.65-.65,6.08a18.63,18.63,0,0,1-10.14,14.14s-27.38,0-32.14-1.34a7.26,7.26,0,0,0-6,1.09l-.48.33a10.44,10.44,0,0,0-1.85,1.7s-3-12.05-3-12.65a26.26,26.26,0,0,1,4.61-9.67c3-3.72,20.53-4.32,21.58-4.46.69-.1,7.09-2.88,11.31-4.75l3.72-1.65,6.89,2.19.26.08,5.51,1.75S363.89,219.49,363.54,225Z"/><path class="cls-7" d="M357.68,216.07c-1.31.55-3.39,1.39-5.81,2.26-5.25,1.91-12.07,4-16.06,3.65a64.52,64.52,0,0,0-15.33,1,26.91,26.91,0,0,0-7.15,4.63c-3.72,3.27-.45,4.31,1.19,8.18.67,1.59.52,5.3.1,9.13l-.48.33a10.44,10.44,0,0,0-1.85,1.7s-3-12.05-3-12.65a26.26,26.26,0,0,1,4.61-9.67c3-3.72,20.53-4.32,21.58-4.46.69-.1,7.09-2.88,11.31-4.75l3.72-1.65,6.89,2.19Z"/><path class="cls-7" d="M300.1,268.85a17,17,0,0,0-1.71,5.45,3.74,3.74,0,0,1-.81-.54c-1.37-1.16-1.25-3.35-1.06-4.75.08-.58.17-1,.17-1.22,0-.6.59-6-.6-7.89s-1.48-9.52-1.48-9.52a159.45,159.45,0,0,1-2.08-20.57,24.25,24.25,0,0,1,3.12-1.16s.59,3.44,1.37,8.31C298.76,248.1,301.44,266.67,300.1,268.85Z"/><path class="cls-41" d="M358.72,215.44l-1.3.56c-1.3.54-3.46,1.42-6,2.33-5.25,1.91-12.08,4-16.06,3.65A64.52,64.52,0,0,0,320,223a26.91,26.91,0,0,0-7.14,4.62c-3.72,3.27-.45,4.31,1.19,8.18.69,1.62.5,5.51.06,9.46-.6,5.41-1.7,10.93-1.7,10.93a5,5,0,0,0-.15,2.38c.3.89.29,7.73.29,7.73a4.06,4.06,0,0,0-.64,2,2.56,2.56,0,0,0,.49,1.62c1.19,1.62.3,6,.3,6a18.45,18.45,0,0,1-6.85-.6c-4.32-1-5.95.15-7.88-1.48-1.37-1.16-1.25-3.35-1.06-4.75.08-.58.17-1,.17-1.22,0-.6.59-6-.6-7.89s-1.48-9.52-1.48-9.52-4.74-27.26,0-33.88a3.89,3.89,0,0,1,.27-.34c2.66-3,8.19-3.59,13.36-3.29a55.82,55.82,0,0,1,11,1.8c3,.9,3.87.45,5.36-.15,1.06-.41,1.14-2.49,1.1-3.65v-.33a2.48,2.48,0,0,0,0-.48l1.32-.72,5.52-3Z"/><path class="cls-7" d="M361.87,151.61a29.32,29.32,0,0,0,3.54,5.56,2.24,2.24,0,0,1-1.44,0c-.49-.19-.84-.62-1.31-.85-1.22-.57-2.57.24-3.79-.52a2.42,2.42,0,0,1-1.18-2.28v-.41c0-1.3-.14-3.89-1.52-4.53a2.13,2.13,0,0,0-1.68.06,2,2,0,0,0-.32.17h0c-.92.54-1.59,1.7-2.63,1.62a1.57,1.57,0,0,1-1.27-1.09,7.26,7.26,0,0,1-.43-1.82,29.06,29.06,0,0,0-2.1-6.87c-.17-.43-.41-.92-.88-1-.74-.06-.92,1.09-.52,1.71s1.11,1.1,1.22,1.83c.17,1.22-1.65,1.93-2.64,1.22a3.39,3.39,0,0,1-1-3.37,34.68,34.68,0,0,0,.81-3.6,2.81,2.81,0,0,0-1.66-3c-1-.31-2.13.31-3.2.32a14.6,14.6,0,1,1,22,16.75Z"/><path class="cls-42" d="M354.92,148.72c-1.1.41-1.79,1.88-3,1.77s-1.54-1.7-1.7-2.91a29.06,29.06,0,0,0-2.1-6.87c-.17-.43-.43-.92-.88-1-.74-.06-.92,1.09-.52,1.71s1.11,1.1,1.22,1.83c.17,1.22-1.65,1.93-2.64,1.22a3.39,3.39,0,0,1-1-3.37,36,36,0,0,0,.81-3.6,2.83,2.83,0,0,0-1.66-3c-1.18-.35-2.43.5-3.65.3a2.26,2.26,0,0,1-1.56-3.11c.52-1,1.87-1.83,1.52-2.91-.44-1.35-2.74-.76-3.65-1.86-.71-.86-.06-2.22.86-2.84s2.08-.88,3-1.57c1.66-1.29,1.95-3.79,3.52-5.2,1.79-1.62,4.55-1.27,6.79-2.1s4.1-2.75,6.36-2.34c.55.1,1.06.33,1.62.38,1.15.11,2.19-.58,3.24-1a7.73,7.73,0,0,1,6.38.3,2.62,2.62,0,0,0,2.76,2.68c1.06,0,2.5-.41,2.87.6.17.46,0,1,.12,1.46.28.81,1.4.87,2.13,1.33,1.66,1.05.89,3.92,2.33,5.27a8,8,0,0,0,2.33,1.08c2.6,1.15,3.54,4.3,4.19,7.07a3.47,3.47,0,0,1,.11,1.65c-.21.81-1,1.33-1.4,2.05-1,1.71.07,4-.57,5.85s-2.75,2.94-3,4.87c-.1.65,0,1.32-.07,2-.28,1.76-2.14,2.77-3.84,3.29a1.82,1.82,0,0,0-1.24.77c-.09.2-.11.43-.19.64a2.1,2.1,0,0,1-1.22,1q-3.33,1.57-6.8,2.87a2.88,2.88,0,0,1-2,.23c-.49-.19-.84-.63-1.31-.85-1.22-.58-2.57.24-3.79-.52a2.66,2.66,0,0,1-1.22-2.67C358.11,151.49,357.89,147.57,354.92,148.72Z"/><path class="cls-41" d="M296.12,291.23a1.85,1.85,0,0,1,0,.25,14.58,14.58,0,0,1-.89,3.57s-11.31-.74-13.68-2.38.89-3.27.89-3.27V289C286.31,290,293.05,291.47,296.12,291.23Z"/><path class="cls-7" d="M296.12,291.23a1.85,1.85,0,0,1,0,.25,14.58,14.58,0,0,1-.89,3.57s-11.31-.74-13.68-2.38.89-3.27.89-3.27V289C286.31,290,293.05,291.47,296.12,291.23Z"/><path class="cls-43" d="M294.37,293.93s-13.1.89-13.62.67-.52,6.92-.52,6.92-2.9,5.8-3.27,7.22-3.27,4.91-3.27,4.91-4.16,3,1.93,4.24a35.37,35.37,0,0,0,12.8-.37s4.46-7.74,4.83-7.3,0,4.09,0,4.09l2.6-.67s-.45-4.83.6-7.44S294.37,293.93,294.37,293.93Z"/><path class="cls-7" d="M312.75,275.4a18.45,18.45,0,0,1-6.85-.6c-4.32-1-5.95.15-7.88-1.48-1.37-1.16-1.25-3.35-1.06-4.75,1.89-.41,4.82-1,7.09-1.35a25.63,25.63,0,0,1,7.91.61,2.54,2.54,0,0,0,.49,1.62C313.64,271.08,312.75,275.4,312.75,275.4Z"/><path class="cls-41" d="M312.75,275.85a18.45,18.45,0,0,1-6.85-.6c-4.32-1-5.95.15-7.88-1.48-1.37-1.16-1.25-3.35-1.06-4.75,1.89-.41,4.82-1,7.09-1.35a25.63,25.63,0,0,1,7.91.61,2.56,2.56,0,0,0,.49,1.62C313.64,271.54,312.75,275.85,312.75,275.85Z"/><path class="cls-7" d="M312.75,275.85a18.45,18.45,0,0,1-6.85-.6c-4.32-1-5.95.15-7.88-1.48-1.37-1.16-1.25-3.35-1.06-4.75,1.89-.41,4.82-1,7.09-1.35a25.63,25.63,0,0,1,7.91.61,2.56,2.56,0,0,0,.49,1.62C313.64,271.54,312.75,275.85,312.75,275.85Z"/><path class="cls-43" d="M319.14,297l-4.39,1.12-1.27-5.21s-1.1,2.09-3.05,5l-.81,1.18c-2.24,3.19-9.77,2.41-12.35.55a2.7,2.7,0,0,1-.59-.55c-1.72-2.23.89-4.39,2.15-5.58s.6-9.08.6-9.08-.6-3.5-.15-5.13S311,277,311,277s2.3,6,3.57,7.88,2.84,4.17,2.53,5.8S319.14,297,319.14,297Z"/><path class="cls-23" d="M313.33,219.68c-1.92,2.43-14.4.6-18.25-3.15a3.89,3.89,0,0,1,.27-.34c2.66-3,8.19-3.59,13.36-3.29C311.07,214.59,314.86,217.74,313.33,219.68Z"/><path class="cls-7" d="M301.29,221.46s-2.15-3.05-4.09-1.56-2.53-2.6-2.53-2.6,1-.74,3.27.37,4.76,3,4.46,3.42S301.29,221.46,301.29,221.46Z"/><path class="cls-41" d="M301.29,221s-2.16-3-4.09-1.56-2.53-2.6-2.53-2.6,1-.74,3.27.37,4.76,3,4.46,3.42S301.29,221,301.29,221Z"/><path class="cls-7" d="M341.61,221.46s11,5.06,8.55,7.09S341.61,221.46,341.61,221.46Z"/><path class="cls-7" d="M297.2,256.28s7,.81,8.55,1.86a7.9,7.9,0,0,0,4,1.41C310.66,259.55,300.32,253.75,297.2,256.28Z"/><path class="cls-7" d="M305.6,252.19s-2.68,1.86.37,2.6S305.6,252.19,305.6,252.19Z"/><path class="cls-7" d="M290.65,277s3.95,4.91,5.36,3.57S290.65,277,290.65,277Z"/><path class="cls-7" d="M288.12,286.63c.3,0,1.27-.15,3.2,1.19s2.08-1,1.34-2S288.12,286.63,288.12,286.63Z"/><path class="cls-7" d="M283.66,177c.67.22,4.57,1.22,5.36,3.57S283.66,177,283.66,177Z"/><path class="cls-7" d="M125.14,178.91l-.32-.08s-11.4-2.56-18.46-.64l-.29-1.59,18.89.15Z"/><path class="cls-26" d="M115,173.92s28.57.15,38.53,19.79,12.2,57.14,12.2,57.14,1.62,5.36-.75,5.5-3.42-4.91-3.42-4.91.9-3.72.15-5.36-9.81-47.15-9.81-47.15-1-14.28-27.08-20.53c0,0-30.5-6.84-22.62,10.27,0,0,.45,2.38-1.19,1.93s-3.57-4.91-2.23-10.54S115,173.92,115,173.92Z"/><path class="cls-7" d="M170.73,169.24l-.08.07c-2,1.62-9.53,14.37-14.58,14.72h-.3l-.34-.39h0l-.08-.09,13.22-16.63Z"/><path class="cls-7" d="M155.92,153.39l6.7,2.84s3.27,3.27,3.13,6.25,1.62.74,1.62.74a1.86,1.86,0,0,1,1.19,1.62c0,1.18,3.27,2.38,1.19,4s-9.82,14.88-14.88,14.73a102,102,0,0,0-9.67-9.67C140,169.46,135.24,146.54,155.92,153.39Z"/><path class="cls-39" d="M156.37,153.39l6.7,2.84s3.27,3.27,3.13,6.25,1.62.74,1.62.74a1.86,1.86,0,0,1,1.19,1.62c0,1.18,3.27,2.38,1.19,4s-9.82,14.88-14.88,14.73a102,102,0,0,0-9.67-9.67C140.44,169.46,135.69,146.54,156.37,153.39Z"/><path class="cls-7" d="M342.36,178.09l-6.92,12.33-4.79,2.47c-.12-1.3-.19-2.17-.19-2.17s-3.13-7.3,4.91-12.8c7-4.83,3.33-8.74,2.32-9.63l.21-.19,1.62-.22Z"/><path class="cls-7" d="M388.55,172.65c-1.1,2.43-10.48,9-10.48,9a.44.44,0,0,1,0,0l-.44-.49,8.92-10.27,1.62,1Z"/><path class="cls-7" d="M363.54,225a22.76,22.76,0,0,1-3.93.11,58.4,58.4,0,0,0-8.19-6.79c-1.4-1-2.95-2-4.61-2.88-5.88-3.24-13.18-5.8-20.63-4.56l-.5.09.49-.41c.3-.26.77-.69,1.28-1.2l5.52-3,25.74,9.07-1.3.56,5.76,1.83S363.89,219.49,363.54,225Z"/><path class="cls-25" d="M355.3,165.44s19.94,1.93,29,.89c0,0,4.46,3.42,3.87,5.65s-10.54,9.22-10.54,9.22-.74,17.41-4.76,21.58-7.61,14.88-5.82,18.46-7,3-7,3-16.67-17.41-33.93-14.13c0,0,6.25-5.06,5.8-8.78s-1-10.57-1-10.57-3.12-7.3,4.91-12.8,2.08-9.83,2.08-9.83-.3-1.34,3.12-1.78a35.21,35.21,0,0,0,4.91-.89s3.27-3,4.76-2.38S355.3,165.44,355.3,165.44Z"/><path class="cls-7" d="M378.07,179.07s2.38,4.68-.22,7.14a31.26,31.26,0,0,0-2.79,3.39,101.51,101.51,0,0,0-12,20.85c-5.5,12.81-15,34.58-16.39,35.73-2,1.62-2.16,5-.15,5.06s3.2-2.68,3.2-2.68a79.09,79.09,0,0,1,3.27-8c1.27-2.31,14.43-32.51,14.43-32.51s4.91-12.95,10.42-15.92c0,0,4.76-7.89,3.94-11.38S378.07,179.07,378.07,179.07Z"/><path class="cls-26" d="M378.07,178.61s2.38,4.69-.22,7.14a31.25,31.25,0,0,0-2.79,3.39,101.51,101.51,0,0,0-12,20.85c-5.5,12.81-15,34.58-16.39,35.73-2,1.62-2.16,5-.15,5.06s3.2-2.68,3.2-2.68a79.09,79.09,0,0,1,3.27-8c1.27-2.31,14.43-32.51,14.43-32.51s4.91-12.95,10.42-15.92c0,0,4.76-7.89,3.94-11.38S378.07,178.61,378.07,178.61Z"/><path class="cls-23" d="M398.32,194.31a13.36,13.36,0,0,1-.69,8s-6.32.3-12.65-8.56l-3.8-9.3s-4.24-7.22-6.77-6.84-4.46,13-10.49,11.83-2.84-16.37,5.13-17.93l3.07-.78a7.42,7.42,0,0,1,6.45,1.37c1.48,1.16,3.47,2.71,5.88,4.46,2,1.45,3.84,2.87,5.41,4.09A22.31,22.31,0,0,1,398.32,194.31Z"/><path class="cls-7" d="M332.42,193.64a14,14,0,0,0,7.92,4.46c4.91.78,7.71-.78,11.83.9S332.42,193.64,332.42,193.64Z"/><path class="cls-7" d="M373.49,186.72s-9.26,7.92-8.92,10S373.49,186.72,373.49,186.72Z"/><g class="cls-2"><path d="M348.13,142.85a1.89,1.89,0,0,1-2.21.15,3.16,3.16,0,0,1-1-2.9c-.09.34-.18.67-.24,1a3.4,3.4,0,0,0,1,3.37c1,.73,2.81,0,2.64-1.22A1.62,1.62,0,0,0,348.13,142.85Z"/><path d="M345.44,137.73a8.11,8.11,0,0,0,.32-1.7,2.85,2.85,0,0,0-1.66-3c-1.18-.35-2.43.5-3.65.3a2.24,2.24,0,0,1-1.73-1.84,1.77,1.77,0,0,0-.13.22,2.25,2.25,0,0,0,1.56,3.11c1.22.2,2.47-.64,3.65-.3a2.85,2.85,0,0,1,1.66,3A1.76,1.76,0,0,1,345.44,137.73Z"/><path d="M340.05,128.69a1.5,1.5,0,0,0,.35-1.37c-.44-1.35-2.75-.76-3.65-1.86a1.39,1.39,0,0,1-.25-.49,1.67,1.67,0,0,0,0,2C337.33,128,339.52,127.5,340.05,128.69Z"/><path d="M376.43,150.21a1.82,1.82,0,0,0-1.24.77c-.1.2-.11.43-.19.64a2.12,2.12,0,0,1-1.19,1c-2.22,1.05-4.49,2-6.8,2.87a2.88,2.88,0,0,1-2,.23c-.49-.19-.84-.63-1.31-.85-1.22-.57-2.57.24-3.79-.52a2.65,2.65,0,0,1-1.22-2.66c0-1.7-.23-5.61-3.19-4.46-1.1.41-1.79,1.88-3,1.77s-1.54-1.7-1.7-2.91a29.06,29.06,0,0,0-2.1-6.87c-.17-.43-.43-.92-.88-1-.68-.06-.88.91-.6,1.55a.57.57,0,0,1,.3-.06c.45,0,.71.53.88,1a28.5,28.5,0,0,1,2.1,6.87c.16,1.22.48,2.8,1.7,2.91s1.87-1.35,3-1.77c3-1.14,3.19,2.76,3.2,4.46a2.62,2.62,0,0,0,1.22,2.67c1.22.75,2.57-.06,3.79.52.47.22.81.66,1.31.85a3,3,0,0,0,2-.23q3.46-1.29,6.79-2.87a2.24,2.24,0,0,0,1.22-1c.08-.21.09-.44.19-.64a1.81,1.81,0,0,1,1.24-.77c1.7-.52,3.56-1.53,3.84-3.29a3.93,3.93,0,0,0,0-.69A5.87,5.87,0,0,1,376.43,150.21Z"/><path d="M384,134.25a3.68,3.68,0,0,0-.45,1.79,2.68,2.68,0,0,1,.15-.3c.41-.72,1.18-1.25,1.39-2.05a2.36,2.36,0,0,0,0-.91C384.77,133.29,384.28,133.72,384,134.25Z"/><path d="M380.34,145a4.38,4.38,0,0,0,0,.65c.66-1.44,2.26-2.47,2.79-4a4.34,4.34,0,0,0,.21-1.27C382.59,142,380.63,143.12,380.34,145Z"/></g><path class="cls-7" d="M315.27,289.09a44.21,44.21,0,0,0-4.76,3.65c-1.93,1.79-6.77,3.27-6.77,3.27Z"/><path class="cls-7" d="M291.47,307.91s-9.15,8.18-10.64,8S291.47,307.91,291.47,307.91Z"/><path class="cls-7" d="M310.44,297.88l-.81,1.18c-2.24,3.19-9.77,2.41-12.35.55C299.58,298.83,306.69,296.64,310.44,297.88Z"/><g class="cls-2"><path d="M273.31,114.52a5.9,5.9,0,0,0,.24-.93A5.9,5.9,0,0,0,273.31,114.52Z"/><path d="M245,124.41a3.61,3.61,0,0,1,.22-.6c.64-1.46-.18-2.49-1.14-3.47a5.33,5.33,0,0,1-1.7-3.24,8.83,8.83,0,0,1-.1-1,2.21,2.21,0,0,0-.21.32,3.89,3.89,0,0,0-.14,2.27,5.3,5.3,0,0,0,1.7,3.24A3.65,3.65,0,0,1,245,124.41Z"/><path d="M270.22,137.6c-.73-.21-1.38.51-1.75,1.18s-.78,1.47-1.53,1.57c-.92.12-1.55-.87-1.93-1.72a6.68,6.68,0,0,1-.75-2.66,3,3,0,0,1,0-.33,6,6,0,0,0-.48,1.89,6.12,6.12,0,0,0,.75,2.66c.39.85,1,1.83,1.93,1.72.75-.1,1.17-.9,1.53-1.57s1-1.39,1.75-1.18c.33.1.67.37,1,.21a.7.7,0,0,0,.28-.49,5.86,5.86,0,0,0,.13-1.06C270.86,138,270.54,137.7,270.22,137.6Z"/><path d="M274.8,130.16c-1,.77-2.15,1.35-2.73,2.43a3.84,3.84,0,0,0-.41,1.51c.59-1.05,1.75-1.62,2.7-2.38a7.93,7.93,0,0,0,2.81-4.77A7.91,7.91,0,0,1,274.8,130.16Z"/><path d="M264.74,134.11a8.86,8.86,0,0,0,.41-1.38,8.49,8.49,0,0,0-.64-4.18c-.33-1-1-2.19-2-2.07a2.29,2.29,0,0,1-.62.07c-.55-.09-.67-.81-.72-1.36a6.18,6.18,0,0,0-5-5.27,1.59,1.59,0,0,0-.88.06c-.41.17-.6.59-.95.84-1.13.78-2.57-.72-4-.6-1.17.1-1.88,1.3-2.36,2.36s-1.09,2.29-2.23,2.54a.67.67,0,0,1-.54-.06.41.41,0,0,1-.18-.33,2.43,2.43,0,0,1-.2.68c-.18.41-.43,1-.06,1.22a.69.69,0,0,0,.54.06c1.14-.25,1.75-1.47,2.23-2.54s1.22-2.27,2.36-2.37c1.38-.11,2.82,1.39,4,.6.35-.24.56-.66.95-.84a1.58,1.58,0,0,1,.88-.06,6.18,6.18,0,0,1,5.09,5.27c.06.55.17,1.28.72,1.36a2.29,2.29,0,0,0,.62-.07c1-.12,1.68,1.08,2,2.07A8.9,8.9,0,0,1,264.74,134.11Z"/></g><path class="cls-28" d="M272.14,180.92s-5.68,1.73-8.26,1.73-12.6-.05-12.6-.05-26.22-8.76-18.36,3.24,20.31,5.3,20.31,5.3l2.23.5c1.22.28,24.94.06,25.72-.89S272.14,180.92,272.14,180.92Z"/><path class="cls-7" d="M288.45,191.44c-3.57.33-10.59.41-10.59.41s-5.24-10.38-9.71-10c0,0,4.13-4.68,5.8-4.13.28.09.46-.11.54-.51,4.38,1.33,12.71,4.6,13.52,10.33C288.23,189,288.36,190.34,288.45,191.44Z"/><path class="cls-29" d="M288.89,191.44c-3.57.33-10.59.41-10.59.41s-5.24-10.38-9.71-10c0,0,4.13-4.68,5.8-4.13.28.09.46-.11.54-.51,4.37,1.33,12.7,4.6,13.52,10.33C288.67,189,288.81,190.34,288.89,191.44Z"/><path class="cls-7" d="M288.89,191.44c-3.57.33-10.59.41-10.59.41s-5.24-10.38-9.71-10c0,0,4.13-4.68,5.8-4.13.28.09.46-.11.54-.51,4.37,1.33,12.7,4.6,13.52,10.33C288.67,189,288.81,190.34,288.89,191.44Z"/><path class="cls-7" d="M257.54,221.32s10-2.46,11.6-1.12S257.54,221.32,257.54,221.32Z"/><path class="cls-7" d="M228.75,230.91s4.24,2.43,4.68,4.46S228.75,230.91,228.75,230.91Z"/><g class="cls-2"><path d="M157.4,97.73a4.61,4.61,0,0,0,.24,1.62v-.51a21,21,0,0,0,.21-2.3,3.14,3.14,0,0,0-.22-.93C157.63,96.33,157.44,97,157.4,97.73Z"/><path d="M116.19,97.06c.2.52.49,1,.68,1.53a2.28,2.28,0,0,0,0-.37A9.47,9.47,0,0,0,116,96,2.92,2.92,0,0,0,116.19,97.06Z"/><path d="M160.75,103.89a1.11,1.11,0,0,0-.25-.37,1.52,1.52,0,0,1-.73.79,3.84,3.84,0,0,1-1.84.24c-1.39,2.41-5.65,1.28-7.3,3.52-.79,1.06-.68,2.51-1,3.8-.49,2.1-2.14,4-1.82,6.14.11.75.44,1.59,0,2.2a1.59,1.59,0,0,1-1.93.29c-1.65-.67-2.56-2.38-3.73-3.72s-3.29-2.33-4.64-1.19c-1.14,1-.94,2.73-.81,4.22s-.31,3.4-1.78,3.65c-.59.11-1.22-.11-1.79,0-1.84.43-1.7,3.62-3.49,4.2a3.69,3.69,0,0,1-2-.15c-2.37-.56-5.07.63-7.26,0-1.22-.37-1.76-1.68-2.09-3.07.31,1.75.77,3.72,2.31,4.19,2.19.66,4.89-.52,7.26,0a3.69,3.69,0,0,0,2,.15c1.8-.58,1.65-3.77,3.49-4.2.58-.13,1.22.08,1.79,0,1.47-.26,1.89-2.17,1.78-3.65s-.31-3.24.83-4.22c1.36-1.14,3.47-.15,4.64,1.19s2.08,3.05,3.73,3.72a1.65,1.65,0,0,0,1.93-.29c.42-.56.12-1.45,0-2.2-.32-2.14,1.33-4,1.82-6.14.3-1.29.2-2.73,1-3.8,1.65-2.24,5.91-1.11,7.3-3.52a3.8,3.8,0,0,0,1.84-.24A1.32,1.32,0,0,0,160.75,103.89Z"/><path d="M117.76,121.51a8.43,8.43,0,0,0-1.3-3.22,16.29,16.29,0,0,1-1.79-2.11,2.15,2.15,0,0,0,0,.28c.05,1.22,1.28,2,2,2.95A8,8,0,0,1,118,122.6C117.91,122.2,117.84,121.83,117.76,121.51Z"/><path d="M116.3,110.55c-.12-1.5-1.1-3-1.56-4.6C114.88,107.5,115.84,109,116.3,110.55Z"/></g><path class="cls-7" d="M194.38,249.55s12.48-.37,9.5,1-11.4,1.22-11.4,1.22Z"/><path class="cls-7" d="M245.71,276.15s5.8-.89,7.3.07S245.71,276.15,245.71,276.15Z"/><path class="cls-9" d="M419.56,258.33s2.22,2.9-1,7.3-5.92,8.08-4.84,10.82c0,0,4.9-8.14,8.88-8.25S423.94,263.22,419.56,258.33Z"/><path class="cls-7" d="M419.56,258.33a3.51,3.51,0,0,1,.45.91c3.89,4.57,6,8.83,2.22,8.94-3.48.1-7.66,6.32-8.66,7.9a3.69,3.69,0,0,0,.12.36s4.9-8.14,8.88-8.25S423.94,263.22,419.56,258.33Z"/><path class="cls-11" d="M423.69,262c0,1-.11,1.85-.26,1.85s-.26-.81-.26-1.85.14-.54.28-.54S423.69,261,423.69,262Z"/><path class="cls-11" d="M425.1,263.25c-.9.49-1.68.79-1.75.66s.61-.62,1.5-1.11.54-.13.61,0S426,262.76,425.1,263.25Z"/><path class="cls-9" d="M407.83,258.33s-2.22,2.9,1,7.3,5.92,8.08,4.84,10.82c0,0-4.9-8.14-8.88-8.25S403.45,263.22,407.83,258.33Z"/><path class="cls-7" d="M407.83,258.33a3.67,3.67,0,0,0-.45.91c-3.89,4.57-6,8.83-2.22,8.94,3.48.1,7.66,6.32,8.66,7.9a2.84,2.84,0,0,1-.12.36s-4.9-8.14-8.88-8.25S403.45,263.22,407.83,258.33Z"/><path class="cls-11" d="M403.7,262c0,1,.11,1.85.26,1.85s.26-.81.26-1.85-.15-.54-.29-.54S403.7,261,403.7,262Z"/><path class="cls-11" d="M402.29,263.25c.9.49,1.68.79,1.75.66s-.6-.62-1.5-1.11-.54-.13-.61,0S401.39,262.76,402.29,263.25Z"/><path class="cls-12" d="M404.41,276.06s6.21-.19,8.08-1.52,9.55-2.92,10-.79,9.33,10.63,2.32,10.69-16.29-1.1-18.15-2.23S404.41,276.06,404.41,276.06Z"/><path class="cls-13" d="M425,283.71c-7,.06-16.29-1.09-18.15-2.23-1.42-.86-2-4-2.18-5.41h-.21s.41,5,2.26,6.14,11.15,2.28,18.15,2.23c2,0,2.73-.74,2.68-1.8C427.23,283.27,426.46,283.67,425,283.71Z"/><path class="cls-33" d="M283.25,193c0,1.14-3.58,2.48-8,2.48s-8-1.34-8-2.48,3.58-1.65,8-1.65S283.25,191.87,283.25,193Z"/><path class="cls-7" d="M283.25,193c0,1.14-3.58,2.48-8,2.48s-8-1.34-8-2.48,3.58-1.65,8-1.65S283.25,191.87,283.25,193Z"/><ellipse class="cls-33" cx="275.26" cy="193.02" rx="8" ry="2.07"/><ellipse class="cls-7" cx="275.26" cy="193.02" rx="4.52" ry="1.17"/><path class="cls-35" d="M281.81,190.54a3.52,3.52,0,0,1-2.89,1.83,4.51,4.51,0,0,1-1.4-.1l.55-.81a2.75,2.75,0,0,0,1.07,0,2.07,2.07,0,0,0,1.4-1c.58-1-.15-1.18-.66-1.17h-.31l.44-.64s.18,0,.44-.05C281.29,188.51,282.91,188.62,281.81,190.54Z"/><path class="cls-35" d="M278.28,193.36a10,10,0,0,1-6.18,0l0-.31,0-.23,6-.08,0,.37Z"/><path class="cls-7" d="M279.14,191.45a5,5,0,0,1-.22.91,4.51,4.51,0,0,1-1.4-.1l.55-.81A2.75,2.75,0,0,0,279.14,191.45Z"/><path class="cls-7" d="M280.45,188.57a.89.89,0,0,1-.17.23l0,0a3.54,3.54,0,0,0-.35.41h-.31l.44-.64Z"/><path class="cls-7" d="M278.25,193.11c-1.07.41-5.07.5-6.08-.06l0-.23,6-.08Z"/><path class="cls-35" d="M280.17,188.8l0,0a3.36,3.36,0,0,0-1,2c-.19,1.77-.57,2-.61,2-.31.54-5.68.75-6.49,0s-1.31-2-1-2.72c.16-.41-.18-.86-.52-1.18s-.28-1,.36-1.3A13.69,13.69,0,0,1,275,187a11.76,11.76,0,0,1,4.68.52l.11,0a1,1,0,0,1,.53.52A.69.69,0,0,1,280.17,188.8Z"/><ellipse class="cls-7" cx="275.18" cy="188.63" rx="4.08" ry="0.66"/><ellipse class="cls-44" cx="275.18" cy="188.7" rx="4.08" ry="0.66"/><path class="cls-45" d="M276,188.29s-2.93.06-2.84.78A9.45,9.45,0,0,1,276,188.29Z"/><path class="cls-45" d="M276.86,188.47s-1.75,0-1.47.6c0,0,.41,0,.35-.2s1.12-.31,1.12-.31Z"/><path class="cls-36" d="M270.63,188.29s-.11,1.22,4.46,1.16,4.55-.88,4.59-1.16h-.25s-.06,1-4.27,1-4.33-1-4.33-1Z"/><path class="cls-7" d="M280.36,188.09l-2.76,1a.35.35,0,0,1-.33,0l0,0c-.13-.11-.09-.27.08-.34l2.52-1.1A1,1,0,0,1,280.36,188.09Z"/><path class="cls-33" d="M277.31,188.61l7.15-3.11a1.44,1.44,0,0,1,.54-.12c.36,0,.87,0,.71.43a.87.87,0,0,1-.54.45L277.6,189a.34.34,0,0,1-.33,0l0,0C277.1,188.85,277.14,188.68,277.31,188.61Z"/><path class="cls-7" d="M277.31,188.61l7.15-3.11a1.44,1.44,0,0,1,.54-.12c.36,0,.87,0,.71.43a.87.87,0,0,1-.54.45L277.6,189a.34.34,0,0,1-.33,0l0,0C277.1,188.85,277.14,188.68,277.31,188.61Z"/><path class="cls-33" d="M277.31,188.57l7.15-3.11a1.52,1.52,0,0,1,.54-.12c.36,0,.87,0,.71.43a.88.88,0,0,1-.54.45L277.6,189a.34.34,0,0,1-.33,0l0,0C277.1,188.8,277.14,188.65,277.31,188.57Z"/><path class="cls-7" d="M276.92,188.66s.76-.11.67,0,.33.32.33.32a3.28,3.28,0,0,1-.9,0C276.89,189,276.92,188.66,276.92,188.66Z"/><path class="cls-44" d="M276.86,188.68s.76-.11.67,0,.33.32.33.32a3.3,3.3,0,0,1-.91,0C276.83,189,276.86,188.68,276.86,188.68Z"/><path class="cls-46" d="M275.66,183.23a1.88,1.88,0,0,0-.69.88,2,2,0,0,0,0,.9,3.76,3.76,0,0,0,.15.61c0,.11.15.24.24.16,0-.28-.09-.56-.07-.84a1.57,1.57,0,0,1,.37-.84,4.11,4.11,0,0,0,.52-.73c.06-.12.28-1.24,0-1-.06,0-.13.41-.19.5A2,2,0,0,1,275.66,183.23Z"/><path class="cls-46" d="M275.78,185.07c0,.1.15.18.21.28a.48.48,0,0,1,.05.19,1,1,0,0,1-.21.92.74.74,0,0,0,.52-.47,1.29,1.29,0,0,0,.07-.32,2.68,2.68,0,0,0,0-.31c0-.15.07-.56-.21-.63a.34.34,0,0,0-.43.34Z"/><path class="cls-7" d="M271,189.94a2,2,0,0,0,1.31.41,3.59,3.59,0,0,1-1.38-.11Z"/><polygon class="cls-26" points="177.99 249.07 192.99 249.03 188.08 256.87 178.41 261.77 177.99 249.07"/></g></g></svg>